SplineFontDB: 3.2
FontName: Maestro
FullName: Maestro
FamilyName: Maestro
Weight: Book
Copyright: Copyright (c) 1999 Coda Music Technology
Version: Macromedia Fontographer 4.1 7/6/99
ItalicAngle: 0
UnderlinePosition: -82
UnderlineWidth: 9
Ascent: 800
Descent: 200
InvalidEm: 0
sfntRevision: 0x00010000
LayerCount: 3
Layer: 0 1 "+BBcEMAQ0BD0EOAQ5 +BD8EOwQwBD0A" 1
Layer: 1 1 "+BB8ENQRABDUENAQ9BDgEOQAA +BD8EOwQwBD0A" 0
Layer: 2 0 "+BBcEMAQ0BD0EOAQ5 +BD8EOwQwBD0A 2" 1
XUID: [1021 549 585334851 11379]
StyleMap: 0x0040
FSType: 1
OS2Version: 0
OS2_WeightWidthSlopeOnly: 0
OS2_UseTypoMetrics: 0
CreationTime: 931288107
ModificationTime: 1712108315
PfmFamily: 81
TTFWeight: 400
TTFWidth: 5
LineGap: 0
VLineGap: 0
Panose: 0 0 4 0 0 0 0 0 0 0
OS2TypoAscent: 1457
OS2TypoAOffset: 0
OS2TypoDescent: -980
OS2TypoDOffset: 0
OS2TypoLinegap: 0
OS2WinAscent: 1457
OS2WinAOffset: 0
OS2WinDescent: 980
OS2WinDOffset: 0
HheadAscent: 1457
HheadAOffset: 0
HheadDescent: -980
HheadDOffset: 0
OS2SubXSize: 700
OS2SubYSize: 650
OS2SubXOff: 0
OS2SubYOff: 143
OS2SupXSize: 700
OS2SupYSize: 650
OS2SupXOff: 0
OS2SupYOff: 453
OS2StrikeYSize: 50
OS2StrikeYPos: 259
OS2Vendor: 'Alts'
OS2UnicodeRanges: 00000000.00000000.00000000.00000000
Lookup: 258 0 0 "'kern' Horizontal Kerning lookup 0" { "'kern' Horizontal Kerning lookup 0 subtable"  } ['kern' ('DFLT' <'dflt' > ) ]
DEI: 91125
TtTable: prep
NPUSHB
 15
 10
 10
 9
 9
 8
 8
 7
 7
 6
 6
 1
 1
 0
 0
 1
SCANTYPE
PUSHW_1
 511
SCANCTRL
RCVT
ROUND[Grey]
WCVTP
RCVT
ROUND[Grey]
WCVTP
RCVT
ROUND[Grey]
WCVTP
RCVT
ROUND[Grey]
WCVTP
RCVT
ROUND[Grey]
WCVTP
RCVT
ROUND[Grey]
WCVTP
RCVT
ROUND[Grey]
WCVTP
PUSHB_4
 3
 2
 70
 0
CALL
PUSHB_4
 5
 4
 70
 0
CALL
PUSHB_2
 2
 2
RCVT
ROUND[Grey]
WCVTP
PUSHB_2
 4
 4
RCVT
ROUND[Grey]
WCVTP
EndTTInstrs
TtTable: fpgm
NPUSHB
 1
 0
FDEF
SROUND
RCVT
DUP
PUSHB_1
 3
CINDEX
RCVT
SWAP
SUB
ROUND[Grey]
RTG
SWAP
ROUND[Grey]
ADD
WCVTP
ENDF
EndTTInstrs
ShortTable: cvt  1334
  -3
  119
  27
  59
  19
  30
  109
  32
  68
  253
  253
  -3961
  -16171

StartChar: .notdef
Encoding: 65536 -1 0
Width: 500
GlyphClass: 1
Flags: W
LayerCount: 3
Fore
SplineSet
63 0 m 1,0,-1
 63 493 l 1,1,-1
 438 493 l 1,2,-1
 438 0 l 1,3,-1
 63 0 l 1,0,-1
125 63 m 1,4,-1
 375 63 l 1,5,-1
 375 431 l 1,6,-1
 125 431 l 1,7,-1
 125 63 l 1,4,-1
EndSplineSet
Validated: 1
EndChar

StartChar: exclam
Encoding: 61473 61473 4
Width: 278
GlyphClass: 1
Flags: W
LayerCount: 3
Fore
SplineSet
-1 119 m 1,0,-1
 278 276 l 1,1,-1
 278 160 l 1,2,-1
 -1 -1 l 1,3,-1
 -1 119 l 1,0,-1
EndSplineSet
Validated: 1
EndChar

StartChar: quotedbl
Encoding: 61474 61474 5
Width: 451
GlyphClass: 1
Flags: W
LayerCount: 3
Fore
SplineSet
268 507 m 1,0,-1
 296 507 l 1,1,-1
 42 0 l 1,2,-1
 14 0 l 1,3,-1
 268 507 l 1,0,-1
423 507 m 1,4,-1
 451 507 l 1,5,-1
 197 0 l 1,6,-1
 169 0 l 1,7,-1
 423 507 l 1,4,-1
EndSplineSet
Validated: 1
EndChar

StartChar: numbersign
Encoding: 61475 61475 6
Width: 236
GlyphClass: 1
Flags: W
LayerCount: 3
Fore
SplineSet
170 94 m 1,0,-1
 72 62 l 1,1,-1
 72 -87 l 1,2,-1
 170 -55 l 1,3,-1
 170 94 l 1,0,-1
0 142 m 1,4,-1
 43 156 l 1,5,-1
 43 319 l 1,6,-1
 72 319 l 1,7,-1
 72 166 l 1,8,-1
 170 198 l 1,9,-1
 170 344 l 1,10,-1
 199 344 l 1,11,-1
 199 207 l 1,12,-1
 238 220 l 1,13,-1
 238 116 l 1,14,-1
 199 103 l 1,15,-1
 199 -45 l 1,16,-1
 238 -33 l 1,17,-1
 238 -136 l 1,18,-1
 199 -149 l 1,19,-1
 199 -312 l 1,20,-1
 170 -312 l 1,21,-1
 170 -158 l 1,22,-1
 72 -190 l 1,23,-1
 72 -338 l 1,24,-1
 43 -338 l 1,25,-1
 43 -200 l 1,26,-1
 0 -214 l 1,27,-1
 0 -110 l 1,28,-1
 43 -96 l 1,29,-1
 43 53 l 1,30,-1
 0 39 l 1,31,-1
 0 142 l 1,4,-1
EndSplineSet
Validated: 1
EndChar

StartChar: dollar
Encoding: 61476 61476 7
Width: 274
GlyphClass: 1
Flags: W
LayerCount: 3
Fore
SplineSet
188 -150 m 1,0,-1
 149 -164 l 1,1,-1
 149 -242 l 1,2,-1
 188 -229 l 1,3,-1
 188 -150 l 1,0,-1
149 22 m 1,4,-1
 149 -109 l 1,5,-1
 188 -95 l 1,6,-1
 188 -16 l 1,7,-1
 214 -16 l 1,8,-1
 214 -87 l 1,9,-1
 235 -81 l 1,10,-1
 235 -135 l 1,11,-1
 214 -142 l 1,12,-1
 214 -221 l 1,13,-1
 235 -214 l 1,14,-1
 235 -269 l 1,15,-1
 214 -275 l 1,16,-1
 214 -363 l 1,17,-1
 188 -363 l 1,18,-1
 188 -283 l 1,19,-1
 149 -297 l 1,20,-1
 149 -378 l 1,21,-1
 123 -378 l 1,22,-1
 123 -304 l 1,23,-1
 100 -312 l 1,24,-1
 100 -258 l 1,25,-1
 123 -249 l 1,26,-1
 123 -171 l 1,27,-1
 100 -179 l 1,28,-1
 100 -124 l 1,29,-1
 123 -116 l 1,30,-1
 123 22 l 1,31,-1
 -1 22 l 1,32,-1
 -1 46 l 1,33,-1
 123 253 l 1,34,-1
 149 253 l 1,35,-1
 149 46 l 1,36,-1
 181 46 l 1,37,-1
 181 22 l 1,38,-1
 149 22 l 1,4,-1
123 189 m 1,39,-1
 35 46 l 1,40,-1
 123 46 l 1,41,-1
 123 189 l 1,39,-1
EndSplineSet
Validated: 1
EndChar

StartChar: percent
Encoding: 61477 61477 8
Width: 570
GlyphClass: 1
Flags: W
LayerCount: 3
Fore
SplineSet
127 283 m 0,0,1
 127 266 127 266 114.5 253.5 c 128,-1,2
 102 241 102 241 85 241 c 0,3,4
 67 241 67 241 54.5 253.5 c 128,-1,5
 42 266 42 266 42 283 c 0,6,7
 42 301 42 301 54.5 313 c 128,-1,8
 67 325 67 325 85 325 c 0,9,10
 102 325 102 325 114.5 313 c 128,-1,11
 127 301 127 301 127 283 c 0,0,1
499 418 m 0,12,13
 499 401 499 401 486.5 388.5 c 128,-1,14
 474 376 474 376 456 376 c 0,15,16
 439 376 439 376 426.5 388.5 c 128,-1,17
 414 401 414 401 414 418 c 0,18,19
 414 436 414 436 426.5 448.5 c 128,-1,20
 439 461 439 461 456 461 c 0,21,22
 474 461 474 461 486.5 448.5 c 128,-1,23
 499 436 499 436 499 418 c 0,12,13
13 545 m 0,24,25
 13 604 13 604 57 649 c 128,-1,26
 101 694 101 694 168 694 c 0,27,28
 217 694 217 694 262 662 c 0,29,30
 310 627 310 627 315 579 c 0,31,32
 317 556 317 556 306 536 c 128,-1,33
 295 516 295 516 273 517 c 0,34,35
 222 519 222 519 218 562 c 0,36,37
 217 572 217 572 225 587.5 c 128,-1,38
 233 603 233 603 233 611 c 0,39,40
 233 615 233 615 231 620 c 0,41,42
 219 655 219 655 166 655 c 0,43,44
 133 655 133 655 111.5 634.5 c 128,-1,45
 90 614 90 614 89 590 c 0,46,47
 86 522 86 522 153 474 c 0,48,49
 166 465 166 465 286 403 c 1,50,-1
 482 689 l 1,51,-1
 532 689 l 1,52,-1
 323 383 l 1,53,54
 422 322 422 322 464 279 c 0,55,56
 523 220 523 220 527 151 c 0,57,58
 530 94 530 94 484 47 c 128,-1,59
 438 0 438 0 372 0 c 0,60,61
 321 0 321 0 273 34 c 0,62,63
 222 70 222 70 217 117 c 0,64,65
 215 139 215 139 229.5 164.5 c 128,-1,66
 244 190 244 190 262 189 c 0,67,68
 302 187 302 187 315 134 c 0,69,70
 318 123 318 123 310.5 106 c 128,-1,71
 303 89 303 89 303 82 c 0,72,73
 303 57 303 57 333 46 c 0,74,75
 355 37 355 37 383 39 c 0,76,77
 414 41 414 41 434 64 c 0,78,79
 451 85 451 85 451 110 c 0,80,81
 451 170 451 170 387 217 c 0,82,83
 366 233 366 233 258 289 c 1,84,85
 207 213 207 213 68 10 c 1,86,-1
 17 10 l 1,87,-1
 221 308 l 1,88,89
 13 434 13 434 13 545 c 0,24,25
EndSplineSet
Validated: 33
EndChar

StartChar: ampersand
Encoding: 61478 61478 9
Width: 709
GlyphClass: 1
Flags: W
LayerCount: 3
Fore
SplineSet
466 -252 m 1,0,1
 429 -258 429 -258 385 -258 c 0,2,3
 292 -258 292 -258 248 -237 c 0,4,5
 108 -170 108 -170 50 -72 c 0,6,7
 8 -1 8 -1 0 116 c 0,8,9
 -7 213 -7 213 46 319 c 0,10,11
 91 410 91 410 162.5 477.5 c 128,-1,12
 234 545 234 545 324 613 c 1,13,14
 319 638 319 638 310 712 c 0,15,16
 305 781 305 781 305 807 c 0,17,18
 305 879 305 879 317 944 c 0,19,20
 329 1003 329 1003 378 1082 c 0,21,22
 432 1169 432 1169 472 1170 c 0,23,24
 505 1170 505 1170 545.5 1071 c 128,-1,25
 586 972 586 972 588 901 c 0,26,27
 590 807 590 807 569 739 c 0,28,29
 555 694 555 694 517 627 c 0,30,31
 501 600 501 600 451 538 c 0,32,33
 437 520 437 520 414 501 c 0,34,35
 394 486 394 486 375 470 c 1,36,-1
 408 276 l 1,37,38
 421 278 421 278 437 278 c 0,39,40
 528 278 528 278 578 241 c 0,41,42
 672 172 672 172 681 44 c 0,43,44
 688 -45 688 -45 641 -121 c 0,45,46
 590 -204 590 -204 491 -245 c 1,47,48
 504 -336 504 -336 517 -419 c 0,49,50
 524 -469 524 -469 524 -504 c 0,51,52
 524 -552 524 -552 509 -580 c 0,53,54
 454 -683 454 -683 342 -690 c 0,55,56
 275 -694 275 -694 211 -662 c 0,57,58
 131 -623 131 -623 127 -549 c 0,59,60
 123 -495 123 -495 148 -457 c 0,61,62
 176 -412 176 -412 231 -409 c 0,63,64
 269 -406 269 -406 303 -433.5 c 128,-1,65
 337 -461 337 -461 340 -502 c 0,66,67
 347 -592 347 -592 229 -625 c 1,68,69
 256 -664 256 -664 337 -664 c 0,70,71
 380 -664 380 -664 421 -638 c 128,-1,72
 462 -612 462 -612 484 -573 c 0,73,74
 498 -547 498 -547 498 -494 c 0,75,76
 498 -462 498 -462 493 -422 c 0,77,78
 479 -337 479 -337 466 -252 c 1,0,1
487 1015 m 0,79,80
 424 1015 424 1015 383 918 c 0,81,82
 344 828 344 828 344 709 c 0,83,84
 344 670 344 670 349 634 c 1,85,86
 428 696 428 696 483 770 c 0,87,88
 552 862 552 862 547 929 c 0,89,90
 541 1016 541 1016 487 1015 c 0,79,80
429 138 m 1,91,-1
 485 -211 l 1,92,93
 612 -168 612 -168 601 -14 c 0,94,95
 589 145 589 145 429 138 c 1,91,-1
403 136 m 1,96,97
 330 134 330 134 293 85 c 0,98,99
 265 47 265 47 268 0 c 0,100,101
 269 -35 269 -35 293.5 -71.5 c 128,-1,102
 318 -108 318 -108 347 -123 c 1,103,104
 342 -126 342 -126 337 -134 c 1,105,106
 279 -106 279 -106 252 -69 c 0,107,108
 212 -15 212 -15 207 51 c 0,109,110
 204 95 204 95 227 143 c 0,111,112
 252 195 252 195 300 232 c 0,113,114
 336 260 336 260 382 271 c 1,115,-1
 352 452 l 1,116,117
 318 432 318 432 254 374 c 0,118,119
 175 303 175 303 139 247 c 0,120,121
 61 126 61 126 68 38 c 0,122,123
 76 -71 76 -71 167 -149.5 c 128,-1,124
 258 -228 258 -228 381 -228 c 0,125,126
 421 -228 421 -228 461 -219 c 1,127,128
 431 -41 431 -41 403 136 c 1,96,97
EndSplineSet
Validated: 33
EndChar

StartChar: quotesingle
Encoding: 61479 61479 10
Width: 109
GlyphClass: 1
Flags: W
LayerCount: 3
Fore
SplineSet
41 0 m 256,0,1
 -1 0 -1 0 -1 40 c 0,2,3
 -1 105 -1 105 36 221 c 1,4,-1
 50 221 l 1,5,6
 83 103 83 103 83 40 c 0,7,8
 83 0 83 0 41 0 c 256,0,1
EndSplineSet
Validated: 1
EndChar

StartChar: parenleft
Encoding: 61480 61480 11
Width: 129
GlyphClass: 1
Flags: W
LayerCount: 3
Fore
SplineSet
94 -123 m 1,0,-1
 91 -131 l 1,1,2
 56 -112 56 -112 29 -54 c 0,3,4
 0 10 0 10 0 82 c 0,5,6
 0 148 0 148 28.5 212 c 128,-1,7
 57 276 57 276 91 294 c 1,8,-1
 94 286 l 1,9,10
 30 216 30 216 30 82 c 0,11,12
 30 -53 30 -53 94 -123 c 1,0,-1
EndSplineSet
Validated: 1
EndChar

StartChar: parenright
Encoding: 61481 61481 12
Width: 163
GlyphClass: 1
Flags: W
LayerCount: 3
Fore
SplineSet
130 82 m 0,0,1
 130 10 130 10 100 -54 c 0,2,3
 74 -112 74 -112 38 -131 c 1,4,-1
 35 -123 l 1,5,6
 99 -53 99 -53 99 82 c 256,7,8
 99 217 99 217 35 286 c 1,9,-1
 38 294 l 1,10,11
 72 276 72 276 101 212 c 128,-1,12
 130 148 130 148 130 82 c 0,0,1
EndSplineSet
Validated: 1
EndChar

StartChar: asterisk
Encoding: 61482 61482 13
Width: 432
GlyphClass: 1
Flags: W
LayerCount: 3
Fore
SplineSet
207 239 m 1,0,1
 207 267 207 267 205 303 c 0,2,3
 204 321 204 321 188.5 337 c 128,-1,4
 173 353 173 353 173 368 c 0,5,6
 173 408 173 408 215 408 c 0,7,8
 255 408 255 408 255 366 c 0,9,10
 255 353 255 353 238.5 336.5 c 128,-1,11
 222 320 222 320 222 303 c 0,12,13
 222 262 222 262 223 241 c 1,14,15
 239 238 239 238 246 231 c 1,16,17
 271 253 271 253 277 260 c 0,18,19
 295 281 295 281 297 296 c 0,20,21
 297 306 297 306 297 317 c 0,22,23
 298 329 298 329 306 337 c 0,24,25
 321 351 321 351 336 351 c 256,26,27
 351 351 351 351 365 337 c 0,28,29
 376 326 376 326 376 310 c 0,30,31
 376 297 376 297 367 285 c 128,-1,32
 358 273 358 273 345 271 c 0,33,34
 333 271 333 271 320 271 c 0,35,36
 308 270 308 270 298 260 c 0,37,38
 273 235 273 235 258 219 c 1,39,40
 265 207 265 207 267 199 c 1,41,42
 279 199 279 199 299 199 c 0,43,44
 318 200 318 200 327 200 c 0,45,46
 345 200 345 200 361.5 215.5 c 128,-1,47
 378 231 378 231 391 231 c 0,48,49
 433 231 433 231 433 190 c 0,50,51
 433 150 433 150 390 150 c 0,52,53
 378 150 378 150 361 166.5 c 128,-1,54
 344 183 344 183 327 183 c 0,55,56
 286 183 286 183 267 182 c 1,57,58
 265 168 265 168 256 158 c 1,59,60
 264 150 264 150 277 137.5 c 128,-1,61
 290 125 290 125 296 119 c 0,62,63
 308 107 308 107 325 107 c 0,64,65
 327 107 327 107 332 107 c 128,-1,66
 337 107 337 107 339 107 c 0,67,68
 352 107 352 107 360 99 c 0,69,70
 373 85 373 85 373 68 c 0,71,72
 373 52 373 52 360.5 40.5 c 128,-1,73
 348 29 348 29 331 29 c 256,74,75
 314 29 314 29 302 43 c 0,76,77
 294 52 294 52 293 73 c 128,-1,78
 292 94 292 94 282 106 c 0,79,80
 262 129 262 129 243 147 c 1,81,82
 238 143 238 143 225 141 c 1,83,84
 225 129 225 129 226 108 c 128,-1,85
 227 87 227 87 227 78 c 0,86,87
 227 60 227 60 242 43.5 c 128,-1,88
 257 27 257 27 257 13 c 0,89,90
 257 -28 257 -28 216 -28 c 0,91,92
 177 -28 177 -28 177 15 c 0,93,94
 177 28 177 28 193 44.5 c 128,-1,95
 209 61 209 61 209 78 c 0,96,97
 209 118 209 118 208 140 c 1,98,99
 198 141 198 141 184 151 c 1,100,101
 171 136 171 136 145 109 c 0,102,103
 134 98 134 98 134 84 c 0,104,105
 133 57 133 57 133 57 c 2,106,107
 131 45 131 45 118.5 37.5 c 128,-1,108
 106 30 106 30 94 30 c 0,109,110
 77 30 77 30 66 43 c 128,-1,111
 55 56 55 56 55 72 c 256,112,113
 55 88 55 88 69 101 c 0,114,115
 78 109 78 109 99 109.5 c 128,-1,116
 120 110 120 110 132 120 c 0,117,118
 153 139 153 139 173 163 c 1,119,120
 170 169 170 169 166 182 c 1,121,122
 155 182 155 182 134.5 181 c 128,-1,123
 114 180 114 180 105 180 c 0,124,125
 86 180 86 180 69.5 164.5 c 128,-1,126
 53 149 53 149 39 149 c 0,127,128
 -2 149 -2 149 -2 190 c 0,129,130
 -2 230 -2 230 41 230 c 0,131,132
 54 230 54 230 70.5 214.5 c 128,-1,133
 87 199 87 199 105 199 c 0,134,135
 112 199 112 199 133.5 199 c 128,-1,136
 155 199 155 199 166 199 c 1,137,138
 170 214 170 214 177 220 c 1,139,140
 162 234 162 234 135 261 c 0,141,142
 124 274 124 274 108 274 c 0,143,144
 105 274 105 274 100 273 c 0,145,146
 94 273 94 273 92 273 c 0,147,148
 79 273 79 273 71 282 c 0,149,150
 57 298 57 298 57 314 c 0,151,152
 57 331 57 331 71.5 341.5 c 128,-1,153
 86 352 86 352 101 352 c 0,154,155
 118 352 118 352 129 338 c 0,156,157
 137 328 137 328 138.5 307 c 128,-1,158
 140 286 140 286 150 274 c 0,159,160
 156 265 156 265 189 232 c 1,161,162
 196 239 196 239 207 239 c 1,0,1
216 220 m 0,163,164
 185 220 185 220 185 190 c 0,165,166
 185 159 185 159 216 159 c 0,167,168
 246 159 246 159 246 190 c 0,169,170
 246 220 246 220 216 220 c 0,163,164
EndSplineSet
Validated: 1
EndChar

StartChar: plus
Encoding: 61483 61483 14
Width: 329
GlyphClass: 1
Flags: W
LayerCount: 3
Fore
SplineSet
0 -9 m 1,0,-1
 0 10 l 1,1,-1
 138 10 l 1,2,-1
 138 148 l 1,3,-1
 158 148 l 1,4,-1
 158 10 l 1,5,-1
 296 10 l 1,6,-1
 296 -9 l 1,7,-1
 158 -9 l 1,8,-1
 158 -148 l 1,9,-1
 138 -148 l 1,10,-1
 138 -9 l 1,11,-1
 0 -9 l 1,0,-1
EndSplineSet
Validated: 1
EndChar

StartChar: comma
Encoding: 61484 61484 15
Width: 214
GlyphClass: 1
Flags: W
LayerCount: 3
Fore
SplineSet
214 -37 m 0,0,1
 214 -88 214 -88 177 -143 c 0,2,3
 133 -208 133 -208 52 -248 c 1,4,5
 50 -243 50 -243 48 -236 c 1,6,7
 152 -169 152 -169 144 -87 c 0,8,9
 143 -80 143 -80 127.5 -78.5 c 128,-1,10
 112 -77 112 -77 96 -75 c 0,11,12
 71 -71 71 -71 51 -53.5 c 128,-1,13
 31 -36 31 -36 31 -11 c 0,14,15
 29 47 29 47 71 70 c 0,16,17
 98 85 98 85 131 83 c 0,18,19
 170 79 170 79 194 41 c 0,20,21
 214 7 214 7 214 -37 c 0,0,1
EndSplineSet
Validated: 33
EndChar

StartChar: hyphen
Encoding: 61485 61485 16
Width: 370
GlyphClass: 1
Flags: W
LayerCount: 3
Fore
SplineSet
0 -21 m 1,0,1
 190 -106 190 -106 370 -19 c 1,2,3
 187 -206 187 -206 0 -21 c 1,0,1
EndSplineSet
Validated: 33
EndChar

StartChar: period
Encoding: 61486 61486 17
Width: 155
GlyphClass: 1
Flags: W
LayerCount: 3
Fore
SplineSet
31 20 m 256,0,1
 31 41 31 41 46 55.5 c 128,-1,2
 61 70 61 70 83 70 c 0,3,4
 104 70 104 70 119.5 55.5 c 128,-1,5
 135 41 135 41 135 20 c 256,6,7
 135 -1 135 -1 119.5 -16 c 128,-1,8
 104 -31 104 -31 83 -31 c 0,9,10
 61 -31 61 -31 46 -16 c 128,-1,11
 31 -1 31 -1 31 20 c 256,0,1
EndSplineSet
Validated: 1
EndChar

StartChar: slash
Encoding: 61487 61487 18
Width: 158
GlyphClass: 1
Flags: W
LayerCount: 3
Fore
SplineSet
111 -154 m 1,0,-1
 111 664 l 1,1,-1
 161 664 l 1,2,-1
 161 -154 l 1,3,-1
 111 -154 l 1,0,-1
-1 -154 m 1,4,-1
 -1 664 l 1,5,-1
 49 664 l 1,6,-1
 49 -154 l 1,7,-1
 -1 -154 l 1,4,-1
EndSplineSet
Validated: 1
EndChar

StartChar: zero
Encoding: 61488 61488 19
Width: 391
GlyphClass: 1
Flags: W
LayerCount: 3
Fore
SplineSet
197 248 m 0,0,1
 293 248 293 248 346 170 c 0,2,3
 392 102 392 102 392 3 c 0,4,5
 392 -97 392 -97 346 -164 c 0,6,7
 293 -242 293 -242 197 -242 c 0,8,9
 102 -242 102 -242 48 -164 c 0,10,11
 1 -96 1 -96 1 3 c 256,12,13
 1 102 1 102 48 170 c 0,14,15
 102 248 102 248 197 248 c 0,0,1
131 0 m 0,16,17
 131 -215 131 -215 198 -215 c 256,18,19
 265 -215 265 -215 265 0 c 0,20,21
 265 221 265 221 198 221 c 256,22,23
 131 221 131 221 131 0 c 0,16,17
EndSplineSet
Validated: 1
EndChar

StartChar: one
Encoding: 61489 61489 20
Width: 300
GlyphClass: 1
Flags: W
LayerCount: 3
Fore
SplineSet
263 -243 m 1,0,-1
 45 -243 l 1,1,-1
 45 -217 l 1,2,3
 94 -219 94 -219 93 -183 c 2,4,-1
 93 157 l 1,5,6
 79 122 79 122 23 -1 c 1,7,-1
 -3 -1 l 1,8,-1
 100 243 l 1,9,-1
 215 243 l 1,10,-1
 215 -181 l 2,11,12
 215 -218 215 -218 263 -217 c 1,13,-1
 263 -243 l 1,0,-1
EndSplineSet
Validated: 33
EndChar

StartChar: two
Encoding: 61490 61490 21
Width: 390
GlyphClass: 1
Flags: W
LayerCount: 3
Fore
SplineSet
378 -73 m 1,0,1
 365 -143 365 -143 336 -189 c 0,2,3
 299 -246 299 -246 243 -246 c 0,4,5
 205 -246 205 -246 161 -218.5 c 128,-1,6
 117 -191 117 -191 95 -191 c 0,7,8
 69 -191 69 -191 47.5 -207 c 128,-1,9
 26 -223 26 -223 19 -247 c 1,10,-1
 0 -247 l 1,11,12
 -1 -236 -1 -236 -1 -226 c 0,13,14
 -1 -196 -1 -196 9 -170 c 0,15,16
 37 -96 37 -96 107 -53 c 0,17,18
 206 9 206 9 231.5 38 c 128,-1,19
 257 67 257 67 257 114 c 0,20,21
 258 161 258 161 231 193.5 c 128,-1,22
 204 226 204 226 167 226 c 0,23,24
 152 226 152 226 125 211 c 0,25,26
 93 193 93 193 92 176 c 0,27,28
 91 169 91 169 119 151 c 0,29,30
 151 130 151 130 159 102 c 0,31,32
 162 94 162 94 162 85 c 0,33,34
 162 58 162 58 142 36.5 c 128,-1,35
 122 15 122 15 93 15 c 0,36,37
 47 15 47 15 26 51 c 0,38,39
 9 78 9 78 10 116 c 0,40,41
 13 171 13 171 73 211 c 0,42,43
 129 249 129 249 195 249 c 0,44,45
 389 249 389 249 389 98 c 0,46,47
 389 28 389 28 302 -7 c 0,48,49
 246 -27 246 -27 189 -47 c 0,50,51
 104 -80 104 -80 97 -100 c 1,52,53
 124 -88 124 -88 157 -88 c 0,54,55
 197 -88 197 -88 245.5 -106 c 128,-1,56
 294 -124 294 -124 291 -124 c 1,57,58
 341 -124 341 -124 360 -68 c 1,59,60
 365 -68 365 -68 368 -70.5 c 128,-1,61
 371 -73 371 -73 378 -73 c 1,0,1
EndSplineSet
Validated: 33
EndChar

StartChar: three
Encoding: 61491 61491 22
Width: 376
GlyphClass: 1
Flags: W
LayerCount: 3
Fore
SplineSet
373 -99 m 0,0,1
 373 -168 373 -168 302 -211 c 0,2,3
 243 -246 243 -246 177 -246 c 0,4,5
 99 -246 99 -246 49 -210 c 128,-1,6
 -1 -174 -1 -174 -1 -114 c 0,7,8
 -1 -87 -1 -87 20.5 -64.5 c 128,-1,9
 42 -42 42 -42 69 -42 c 0,10,11
 99 -42 99 -42 122 -59 c 128,-1,12
 145 -76 145 -76 145 -106 c 0,13,14
 145 -133 145 -133 126.5 -157.5 c 128,-1,15
 108 -182 108 -182 109 -199 c 0,16,17
 110 -205 110 -205 125.5 -214.5 c 128,-1,18
 141 -224 141 -224 149 -224 c 0,19,20
 194 -224 194 -224 223 -180 c 0,21,22
 248 -143 248 -143 248 -102 c 0,23,24
 248 -63 248 -63 225 -43 c 0,25,26
 207 -29 207 -29 170 -22 c 0,27,28
 137 -17 137 -17 105 -12 c 0,29,30
 105 -11 105 -11 105 2 c 0,31,32
 106 15 106 15 106 14 c 1,33,34
 234 29 234 29 233 119 c 0,35,36
 232 217 232 217 136 217 c 0,37,38
 130 217 130 217 118.5 208 c 128,-1,39
 107 199 107 199 108 192 c 0,40,41
 110 182 110 182 129 162 c 128,-1,42
 148 142 148 142 155 121 c 0,43,44
 157 115 157 115 157 108 c 0,45,46
 157 83 157 83 134 62 c 128,-1,47
 111 41 111 41 85 41 c 0,48,49
 55 41 55 41 30 69 c 0,50,51
 8 93 8 93 8 115 c 0,52,53
 8 167 8 167 50 202 c 0,54,55
 104 246 104 246 210 246 c 0,56,57
 264 246 264 246 308.5 212 c 128,-1,58
 353 178 353 178 353 125 c 0,59,60
 353 81 353 81 323 53 c 0,61,62
 304 35 304 35 268 21 c 0,63,64
 238 9 238 9 238 6 c 0,65,66
 373 -8 373 -8 373 -99 c 0,0,1
EndSplineSet
Validated: 33
EndChar

StartChar: four
Encoding: 61492 61492 23
Width: 415
GlyphClass: 1
Flags: W
LayerCount: 3
Fore
SplineSet
405 -110 m 1,0,-1
 333 -110 l 1,1,-1
 333 -176 l 2,2,3
 333 -213 333 -213 380 -215 c 1,4,-1
 380 -241 l 1,5,-1
 163 -241 l 1,6,-1
 163 -215 l 1,7,8
 212 -215 212 -215 211 -178 c 2,9,-1
 211 -110 l 1,10,-1
 26 -110 l 1,11,12
 8 -91 8 -91 8 -91 c 1,13,14
 93 23 93 23 118 85 c 0,15,16
 135 126 135 126 159 250 c 1,17,-1
 332 250 l 1,18,19
 307 203 307 203 215 98 c 0,20,21
 136 8 136 8 56 -82 c 1,22,-1
 211 -82 l 1,23,-1
 211 41 l 1,24,-1
 333 175 l 1,25,-1
 333 -82 l 1,26,-1
 405 -82 l 1,27,-1
 405 -110 l 1,0,-1
EndSplineSet
Validated: 33
EndChar

StartChar: five
Encoding: 61493 61493 24
Width: 343
GlyphClass: 1
Flags: W
LayerCount: 3
Fore
SplineSet
342 253 m 1,0,1
 314 189 314 189 289 167 c 0,2,3
 257 138 257 138 187 133 c 0,4,5
 162 131 162 131 111 137 c 128,-1,6
 60 143 60 143 45 142 c 1,7,-1
 45 32 l 1,8,9
 114 72 114 72 172 76 c 0,10,11
 203 79 203 79 240 63.5 c 128,-1,12
 277 48 277 48 300 22 c 0,13,14
 332 -12 332 -12 332 -71 c 0,15,16
 332 -119 332 -119 309 -158 c 0,17,18
 276 -214 276 -214 231 -233 c 0,19,20
 200 -247 200 -247 142 -247 c 0,21,22
 91 -247 91 -247 48 -216 c 0,23,24
 0 -183 0 -183 0 -132 c 0,25,26
 0 -102 0 -102 25.5 -77 c 128,-1,27
 51 -52 51 -52 77 -52 c 0,28,29
 100 -52 100 -52 121.5 -76.5 c 128,-1,30
 143 -101 143 -101 143 -123 c 0,31,32
 143 -153 143 -153 124 -172 c 128,-1,33
 105 -191 105 -191 106 -197 c 0,34,35
 107 -206 107 -206 119.5 -214 c 128,-1,36
 132 -222 132 -222 135 -222 c 0,37,38
 172 -222 172 -222 200 -174 c 0,39,40
 223 -133 223 -133 223 -102 c 0,41,42
 223 -53 223 -53 204 -15 c 0,43,44
 178 35 178 35 129 35 c 0,45,46
 79 35 79 35 20 -13 c 1,47,-1
 20 253 l 1,48,49
 111 242 111 242 184 242 c 0,50,51
 260 242 260 242 342 253 c 1,0,1
EndSplineSet
Validated: 33
EndChar

StartChar: six
Encoding: 61494 61494 25
Width: 376
GlyphClass: 1
Flags: W
LayerCount: 3
Fore
SplineSet
375 -93 m 0,0,1
 375 -168 375 -168 315 -214 c 0,2,3
 261 -255 261 -255 184 -255 c 0,4,5
 158 -255 158 -255 119 -237 c 0,6,7
 73 -216 73 -216 52 -186 c 0,8,9
 0 -115 0 -115 -2 -26 c 0,10,11
 -3 36 -3 36 21 98 c 0,12,13
 42 151 42 151 69 178 c 0,14,15
 102 210 102 210 131 223 c 0,16,17
 164 237 164 237 215 237 c 0,18,19
 262 237 262 237 305 212 c 0,20,21
 355 183 355 183 355 138 c 0,22,23
 355 112 355 112 342 91 c 0,24,25
 325 66 325 66 297 66 c 0,26,27
 260 66 260 66 239 91 c 0,28,29
 221 111 221 111 221 133 c 0,30,31
 221 139 221 139 223 143 c 0,32,33
 228 159 228 159 238 168 c 0,34,35
 245 174 245 174 245 190 c 0,36,37
 246 197 246 197 234 205.5 c 128,-1,38
 222 214 222 214 208 214 c 0,39,40
 149 214 149 214 135 129 c 0,41,42
 118 27 118 27 120 -5 c 1,43,44
 153 18 153 18 184 26 c 0,45,46
 209 32 209 32 255 32 c 0,47,48
 305 32 305 32 340 -7.5 c 128,-1,49
 375 -47 375 -47 375 -93 c 0,0,1
127 -129 m 0,50,51
 127 -157 127 -157 141 -189 c 0,52,53
 158 -231 158 -231 187 -231 c 0,54,55
 223 -231 223 -231 242 -181 c 0,56,57
 257 -141 257 -141 255 -98 c 0,58,59
 254 -70 254 -70 240 -45 c 0,60,61
 220 -11 220 -11 185 -15 c 0,62,63
 127 -22 127 -22 127 -129 c 0,50,51
EndSplineSet
Validated: 33
EndChar

StartChar: seven
Encoding: 61495 61495 26
Width: 403
GlyphClass: 1
Flags: W
LayerCount: 3
Fore
SplineSet
408 239 m 1,0,1
 406 213 406 213 393 155 c 1,2,3
 366 76 366 76 324 -4 c 0,4,5
 285 -78 285 -78 281 -92 c 0,6,7
 261 -166 261 -166 254 -252 c 1,8,9
 232 -254 232 -254 211 -249 c 128,-1,10
 190 -244 190 -244 177 -244 c 0,11,12
 162 -244 162 -244 138.5 -248.5 c 128,-1,13
 115 -253 115 -253 95 -252 c 1,14,15
 95 -163 95 -163 141 -104 c 0,16,17
 170 -67 170 -67 234 -9 c 0,18,19
 292 44 292 44 305 64 c 0,20,21
 314 74 314 74 330 113 c 1,22,23
 297 86 297 86 248 86 c 0,24,25
 215 86 215 86 170.5 122.5 c 128,-1,26
 126 159 126 159 91 159 c 0,27,28
 28 159 28 159 16 88 c 0,29,30
 12 87 12 87 -1 88 c 1,31,-1
 -1 241 l 1,32,-1
 16 241 l 1,33,34
 20 227 20 227 30 211 c 1,35,36
 40 211 40 211 85 230 c 128,-1,37
 130 249 130 249 159 249 c 0,38,39
 204 249 204 249 259 214 c 128,-1,40
 314 179 314 179 325 179 c 0,41,42
 344 179 344 179 360 208 c 0,43,44
 382 246 382 246 388 252 c 1,45,-1
 408 239 l 1,0,1
EndSplineSet
Validated: 33
EndChar

StartChar: eight
Encoding: 61496 61496 27
Width: 377
GlyphClass: 1
Flags: W
LayerCount: 3
Fore
SplineSet
376 -83 m 0,0,1
 376 -155 376 -155 313 -205 c 0,2,3
 256 -250 256 -250 186 -250 c 256,4,5
 116 -250 116 -250 64 -220 c 0,6,7
 1 -185 1 -185 1 -121 c 0,8,9
 1 -78 1 -78 28 -43 c 0,10,11
 49 -14 49 -14 75 -4 c 1,12,13
 11 32 11 32 11 111 c 0,14,15
 11 178 11 178 64 213 c 0,16,17
 111 245 111 245 186 245 c 0,18,19
 354 245 354 245 358 121 c 0,20,21
 360 66 360 66 310 24 c 1,22,23
 376 -9 376 -9 376 -83 c 0,0,1
309 121 m 0,24,25
 301 220 301 220 187 220 c 0,26,27
 148 220 148 220 118 200 c 128,-1,28
 88 180 88 180 93 150 c 0,29,30
 103 102 103 102 276 46 c 1,31,32
 312 86 312 86 309 121 c 0,24,25
274 -137 m 0,33,34
 274 -86 274 -86 205 -53 c 0,35,36
 163 -33 163 -33 105 -23 c 1,37,38
 52 -55 52 -55 53 -103 c 0,39,40
 55 -218 55 -218 175 -218 c 0,41,42
 203 -218 203 -218 236 -196 c 0,43,44
 274 -169 274 -169 274 -137 c 0,33,34
EndSplineSet
Validated: 33
EndChar

StartChar: nine
Encoding: 61497 61497 28
Width: 376
GlyphClass: 1
Flags: W
LayerCount: 3
Fore
SplineSet
-2 92 m 0,0,1
 -1 166 -1 166 58 204 c 0,2,3
 109 237 109 237 189 237 c 0,4,5
 219 237 219 237 253 227 c 0,6,7
 299 212 299 212 321 185 c 0,8,9
 373 123 373 123 375 24 c 0,10,11
 377 -97 377 -97 313 -181 c 0,12,13
 256 -255 256 -255 162 -255 c 0,14,15
 117 -255 117 -255 72 -224 c 0,16,17
 22 -190 22 -190 22 -146 c 0,18,19
 22 -121 22 -121 39 -101 c 0,20,21
 59 -77 59 -77 88 -77 c 0,22,23
 118 -77 118 -77 139.5 -92.5 c 128,-1,24
 161 -108 161 -108 161 -131 c 0,25,26
 161 -138 161 -138 159 -146 c 0,27,28
 154 -162 154 -162 141 -179 c 0,29,30
 132 -192 132 -192 131 -208 c 0,31,32
 131 -216 131 -216 143 -224.5 c 128,-1,33
 155 -233 155 -233 169 -233 c 0,34,35
 186 -232 186 -232 207.5 -202.5 c 128,-1,36
 229 -173 229 -173 242 -133 c 0,37,38
 253 -99 253 -99 254 -64 c 1,39,40
 253 -96 253 -96 253 -3 c 1,41,42
 220 -27 220 -27 189 -34 c 0,43,44
 164 -41 164 -41 118 -41 c 0,45,46
 69 -41 69 -41 32 3 c 0,47,48
 -2 44 -2 44 -2 92 c 0,0,1
246 128 m 0,49,50
 246 154 246 154 233 179 c 0,51,52
 215 213 215 213 186 213 c 0,53,54
 150 213 150 213 131 171 c 0,55,56
 116 138 116 138 118 97 c 0,57,58
 119 67 119 67 133 40 c 0,59,60
 154 2 154 2 189 7 c 0,61,62
 246 14 246 14 246 128 c 0,49,50
EndSplineSet
Validated: 41
EndChar

StartChar: colon
Encoding: 61498 61498 29
Width: 228
GlyphClass: 1
Flags: W
LayerCount: 3
Fore
SplineSet
148 -58 m 1,0,1
 118 -81 118 -81 80 -81 c 0,2,3
 30 -81 30 -81 22 -70 c 1,4,-1
 21 -413 l 1,5,6
 52 -415 52 -415 88.5 -394 c 128,-1,7
 125 -373 125 -373 145 -336 c 0,8,9
 161 -308 161 -308 171.5 -263 c 128,-1,10
 182 -218 182 -218 180 -188 c 0,11,12
 174 -110 174 -110 148 -58 c 1,0,1
1 -17 m 1,13,14
 0 -17 0 -17 4 1 c 0,15,16
 13 38 13 38 45.5 63 c 128,-1,17
 78 88 78 88 123 93 c 0,18,19
 166 98 166 98 185 71 c 0,20,21
 192 63 192 63 196 39 c 0,22,23
 199 16 199 16 195 6 c 0,24,25
 180 -29 180 -29 156 -51 c 1,26,27
 172 -78 172 -78 174 -91 c 0,28,29
 197 -155 197 -155 198 -195 c 0,30,31
 200 -265 200 -265 157 -360 c 0,32,33
 145 -387 145 -387 108 -431 c 0,34,35
 79 -465 79 -465 50.5 -499.5 c 128,-1,36
 22 -534 22 -534 20 -545 c 0,37,38
 17 -564 17 -564 15 -583 c 1,39,-1
 1 -585 l 1,40,-1
 1 -17 l 1,13,14
EndSplineSet
Validated: 33
EndChar

StartChar: semicolon
Encoding: 61499 61499 30
Width: 376
GlyphClass: 1
Flags: W
LayerCount: 3
Fore
SplineSet
358 193 m 0,0,1
 356 113 356 113 332 63 c 1,2,-1
 343 62 l 1,3,4
 350 72 350 72 358 97 c 0,5,6
 377 162 377 162 376 201 c 0,7,8
 375 275 375 275 347 341 c 0,9,10
 324 395 324 395 248 481 c 0,11,12
 197 538 197 538 196 581 c 1,13,-1
 181 582 l 1,14,-1
 181 74 l 1,15,16
 173 85 173 85 123 85 c 0,17,18
 45 85 45 85 8 -2 c 0,19,20
 4 -12 4 -12 7 -35 c 0,21,22
 10 -59 10 -59 18 -67 c 0,23,24
 37 -94 37 -94 80 -89 c 0,25,26
 125 -84 125 -84 157.5 -59 c 128,-1,27
 190 -34 190 -34 199 3 c 0,28,29
 203 21 203 21 201 21 c 1,30,-1
 201 405 l 1,31,32
 286 411 286 411 325 330 c 0,33,34
 360 261 360 261 358 193 c 0,0,1
EndSplineSet
Validated: 41
EndChar

StartChar: less
Encoding: 61500 61500 31
Width: 286
GlyphClass: 1
Flags: W
LayerCount: 3
Fore
SplineSet
91 171 m 256,0,1
 91 192 91 192 106 206.5 c 128,-1,2
 121 221 121 221 143 221 c 0,3,4
 164 221 164 221 179.5 206.5 c 128,-1,5
 195 192 195 192 195 171 c 256,6,7
 195 150 195 150 179.5 135 c 128,-1,8
 164 120 164 120 143 120 c 0,9,10
 121 120 121 120 106 135 c 128,-1,11
 91 150 91 150 91 171 c 256,0,1
-1 33 m 1,12,-1
 285 33 l 1,13,-1
 285 1 l 1,14,-1
 -1 1 l 1,15,-1
 -1 33 l 1,12,-1
EndSplineSet
Validated: 1
EndChar

StartChar: equal
Encoding: 61501 61501 32
Width: 997
GlyphClass: 1
Flags: W
LayerCount: 3
Fore
SplineSet
998 1002 m 1,0,-1
 0 1002 l 1,1,-1
 0 1021 l 1,2,-1
 998 1021 l 1,3,-1
 998 1002 l 1,0,-1
998 747 m 1,4,-1
 0 747 l 1,5,-1
 0 768 l 1,6,-1
 998 768 l 1,7,-1
 998 747 l 1,4,-1
998 494 m 1,8,-1
 0 494 l 1,9,-1
 0 513 l 1,10,-1
 998 513 l 1,11,-1
 998 494 l 1,8,-1
998 241 m 1,12,-1
 0 241 l 1,13,-1
 0 260 l 1,14,-1
 998 260 l 1,15,-1
 998 241 l 1,12,-1
998 -12 m 1,16,-1
 0 -12 l 1,17,-1
 0 7 l 1,18,-1
 998 7 l 1,19,-1
 998 -12 l 1,16,-1
EndSplineSet
Validated: 1
EndChar

StartChar: greater
Encoding: 61502 61502 33
Width: 390
GlyphClass: 1
Flags: W
LayerCount: 3
Fore
SplineSet
1 1 m 1,0,-1
 1 41 l 1,1,-1
 302 153 l 1,2,-1
 1 265 l 1,3,-1
 1 305 l 1,4,-1
 398 153 l 1,5,-1
 1 1 l 1,0,-1
EndSplineSet
Validated: 1
EndChar

StartChar: question
Encoding: 61503 61503 34
Width: 723
GlyphClass: 1
Flags: W
LayerCount: 3
Fore
SplineSet
502 -262 m 0,0,1
 471 -319 471 -319 424 -374 c 128,-1,2
 377 -429 377 -429 324 -467 c 0,3,4
 263 -512 263 -512 173 -546 c 0,5,6
 117 -567 117 -567 12 -586 c 1,7,-1
 5 -571 l 1,8,9
 56 -554 56 -554 100 -534 c 0,10,11
 205 -487 205 -487 257 -432 c 0,12,13
 425 -257 425 -257 420 -7 c 0,14,15
 419 77 419 77 391 136 c 0,16,17
 351 221 351 221 268 221 c 0,18,19
 209 221 209 221 155 180 c 0,20,21
 96 136 96 136 101 82 c 0,22,23
 102 79 102 79 105 79 c 2,24,25
 105 79 105 79 132.5 86 c 128,-1,26
 160 93 160 93 186 92 c 0,27,28
 221 91 221 91 244 58 c 0,29,30
 265 29 265 29 265 -11 c 0,31,32
 265 -54 265 -54 240.5 -82 c 128,-1,33
 216 -110 216 -110 172 -110 c 0,34,35
 121 -110 121 -110 86 -77 c 0,36,37
 48 -43 48 -43 48 12 c 0,38,39
 45 152 45 152 159 215 c 0,40,41
 221 249 221 249 296 250 c 0,42,43
 373 252 373 252 446 201.5 c 128,-1,44
 519 151 519 151 547 73 c 0,45,46
 564 26 564 26 564 -28 c 0,47,48
 564 -75 564 -75 552 -132 c 0,49,50
 539 -192 539 -192 502 -262 c 0,0,1
603 123 m 0,51,52
 602 146 602 146 618 161 c 128,-1,53
 634 176 634 176 657 177 c 0,54,55
 680 177 680 177 696.5 162.5 c 128,-1,56
 713 148 713 148 713 125 c 0,57,58
 714 102 714 102 697.5 85.5 c 128,-1,59
 681 69 681 69 659 69 c 0,60,61
 636 68 636 68 619.5 84 c 128,-1,62
 603 100 603 100 603 123 c 0,51,52
603 -129 m 0,63,64
 603 -107 603 -107 619 -91.5 c 128,-1,65
 635 -76 635 -76 658 -75 c 0,66,67
 681 -75 681 -75 697 -90 c 128,-1,68
 713 -105 713 -105 714 -127 c 0,69,70
 714 -150 714 -150 698 -166.5 c 128,-1,71
 682 -183 682 -183 660 -183 c 0,72,73
 637 -184 637 -184 620.5 -168 c 128,-1,74
 604 -152 604 -152 603 -129 c 0,63,64
EndSplineSet
Validated: 33
EndChar

StartChar: at
Encoding: 61504 61504 35
Width: 277
GlyphClass: 1
Flags: W
LayerCount: 3
Fore
SplineSet
-1 297 m 1,0,-1
 278 454 l 1,1,-1
 278 334 l 1,2,-1
 -1 177 l 1,3,-1
 -1 297 l 1,0,-1
-1 297 m 1,4,-1
 278 454 l 1,5,-1
 278 334 l 1,6,-1
 -1 177 l 1,7,-1
 -1 297 l 1,4,-1
-1 297 m 1,8,-1
 278 454 l 1,9,-1
 278 334 l 1,10,-1
 -1 177 l 1,11,-1
 -1 297 l 1,8,-1
-1 119 m 1,12,-1
 278 276 l 1,13,-1
 278 155 l 1,14,-1
 -1 -1 l 1,15,-1
 -1 119 l 1,12,-1
EndSplineSet
Validated: 5
EndChar

StartChar: A
Encoding: 61505 61505 36
Width: 436
GlyphClass: 1
Flags: W
LayerCount: 3
Fore
SplineSet
95 -205 m 1,0,-1
 92 -213 l 1,1,2
 57 -194 57 -194 30 -136 c 0,3,4
 0 -72 0 -72 0 0 c 0,5,6
 0 66 0 66 29 130 c 128,-1,7
 58 194 58 194 92 212 c 1,8,-1
 95 204 l 1,9,10
 31 134 31 134 31 0 c 0,11,12
 31 -135 31 -135 95 -205 c 1,0,-1
341 -205 m 1,13,-1
 344 -213 l 1,14,15
 379 -194 379 -194 406 -136 c 0,16,17
 435 -72 435 -72 435 0 c 0,18,19
 435 66 435 66 406.5 130 c 128,-1,20
 378 194 378 194 344 212 c 1,21,-1
 341 204 l 1,22,23
 405 134 405 134 405 0 c 0,24,25
 405 -135 405 -135 341 -205 c 1,13,-1
164 433 m 1,26,-1
 164 113 l 1,27,28
 209 154 209 154 265 155 c 0,29,30
 300 155 300 155 325 126 c 0,31,32
 347 99 347 99 348 66 c 0,33,34
 349 40 349 40 335 6 c 0,35,36
 330 -8 330 -8 313 -24 c 0,37,38
 300 -36 300 -36 286 -49 c 0,39,40
 212 -103 212 -103 138 -158 c 1,41,-1
 138 433 l 1,42,-1
 164 433 l 1,26,-1
245 91 m 0,43,44
 232 105 232 105 213 105 c 0,45,46
 190 105 190 105 175 78 c 0,47,48
 164 57 164 57 164 -21 c 2,49,-1
 164 -107 l 2,50,51
 165 -111 165 -111 220 -58 c 0,52,53
 250 -30 250 -30 259 8 c 0,54,55
 263 23 263 23 263 38 c 0,56,57
 263 71 263 71 245 91 c 0,43,44
EndSplineSet
Validated: 41
EndChar

StartChar: B
Encoding: 61506 61506 37
Width: 656
GlyphClass: 1
Flags: W
LayerCount: 3
Fore
SplineSet
180 -506 m 1,0,-1
 180 505 l 1,1,-1
 220 505 l 1,2,-1
 220 -506 l 1,3,-1
 180 -506 l 1,0,-1
121 -506 m 1,4,-1
 1 -506 l 1,5,-1
 1 505 l 1,6,-1
 121 505 l 1,7,-1
 121 -506 l 1,4,-1
318 222 m 1,8,9
 325 199 325 199 331 176 c 0,10,11
 342 142 342 142 363 124 c 0,12,13
 392 100 392 100 442 101 c 0,14,15
 536 102 536 102 536 275 c 0,16,17
 536 349 536 349 514 408 c 0,18,19
 486 485 486 485 434 485 c 0,20,21
 380 485 380 485 341 464 c 0,22,23
 308 447 308 447 308 433 c 0,24,25
 308 426 308 426 320 428 c 0,26,27
 338 432 338 432 351 432 c 0,28,29
 411 432 411 432 411 360 c 0,30,31
 411 332 411 332 385 312 c 0,32,33
 363 296 363 296 342 296 c 0,34,35
 305 296 305 296 281 331 c 0,36,37
 260 363 260 363 264 393 c 0,38,39
 282 520 282 520 485 510 c 0,40,41
 553 507 553 507 604 440.5 c 128,-1,42
 655 374 655 374 655 282 c 0,43,44
 655 187 655 187 610 122 c 0,45,46
 559 49 559 49 470 50 c 0,47,48
 430 50 430 50 394 70 c 0,49,50
 376 82 376 82 359 94 c 1,51,52
 350 84 350 84 338 43 c 0,53,54
 327 7 327 7 327 0 c 0,55,56
 327 -6 327 -6 338 -43 c 0,57,58
 350 -83 350 -83 359 -94 c 1,59,60
 376 -82 376 -82 394 -70 c 0,61,62
 430 -50 430 -50 470 -49 c 0,63,64
 559 -49 559 -49 610 -122 c 0,65,66
 655 -187 655 -187 655 -282 c 0,67,68
 655 -374 655 -374 604 -440 c 128,-1,69
 553 -506 553 -506 485 -510 c 0,70,71
 282 -520 282 -520 264 -393 c 0,72,73
 260 -363 260 -363 281 -331 c 0,74,75
 305 -295 305 -295 342 -295 c 0,76,77
 363 -295 363 -295 385 -312 c 0,78,79
 411 -331 411 -331 411 -360 c 0,80,81
 411 -431 411 -431 348 -431 c 0,82,83
 336 -431 336 -431 320 -428 c 0,84,85
 309 -425 309 -425 309 -432 c 0,86,87
 309 -445 309 -445 343 -464 c 0,88,89
 384 -486 384 -486 434 -485 c 0,90,91
 486 -485 486 -485 514 -408 c 0,92,93
 536 -348 536 -348 536 -275 c 0,94,95
 536 -101 536 -101 442 -101 c 0,96,97
 371 -101 371 -101 344 -149 c 1,98,99
 329 -185 329 -185 314 -220 c 1,100,101
 318 -106 318 -106 239 0 c 1,102,103
 320 106 320 106 318 222 c 1,8,9
EndSplineSet
Validated: 33
EndChar

StartChar: C
Encoding: 61507 61507 38
Width: 422
GlyphClass: 1
Flags: W
LayerCount: 3
Fore
SplineSet
204 -212 m 1,0,-1
 204 211 l 1,1,2
 126 173 126 173 126 1 c 0,3,4
 126 -181 126 -181 204 -212 c 1,0,-1
204 375 m 1,5,-1
 232 375 l 1,6,-1
 232 247 l 1,7,8
 312 244 312 244 363 207 c 0,9,10
 418 166 418 166 418 99 c 0,11,12
 418 71 418 71 390.5 47.5 c 128,-1,13
 363 24 363 24 341 24 c 0,14,15
 312 24 312 24 288 39 c 0,16,17
 256 59 256 59 256 99 c 0,18,19
 256 128 256 128 274 147.5 c 128,-1,20
 292 167 292 167 319 167 c 0,21,22
 338 167 338 167 338 179 c 0,23,24
 338 185 338 185 332 191 c 0,25,26
 303 222 303 222 256 222 c 0,27,28
 244 222 244 222 232 220 c 1,29,-1
 232 -218 l 1,30,31
 236 -218 236 -218 241 -218 c 0,32,33
 294 -218 294 -218 338 -177 c 0,34,35
 385 -132 385 -132 383 -71 c 1,36,-1
 411 -71 l 1,37,38
 410 -91 410 -91 399 -124 c 128,-1,39
 388 -157 388 -157 376 -172 c 0,40,41
 350 -204 350 -204 309 -226 c 128,-1,42
 268 -248 268 -248 232 -249 c 1,43,-1
 232 -412 l 1,44,-1
 204 -412 l 1,45,-1
 204 -247 l 1,46,47
 117 -237 117 -237 60.5 -165 c 128,-1,48
 4 -93 4 -93 4 1 c 0,49,50
 4 96 4 96 59 166 c 0,51,52
 116 240 116 240 204 246 c 1,53,-1
 204 375 l 1,5,-1
EndSplineSet
Validated: 33
EndChar

StartChar: E
Encoding: 61509 61509 39
Width: 342
GlyphClass: 1
Flags: W
LayerCount: 3
Fore
SplineSet
224 32 m 1,0,1
 170 -1 170 -1 112 0 c 0,2,3
 50 1 50 1 19 38 c 1,4,-1
 19 -494 l 1,5,-1
 21 -494 l 1,6,7
 41 -490 41 -490 58 -484 c 0,8,9
 100 -471 100 -471 123 -455 c 0,10,11
 202 -403 202 -403 248 -267 c 0,12,13
 270 -205 270 -205 270 -148 c 0,14,15
 270 -133 270 -133 268 -120 c 0,16,17
 256 -32 256 -32 224 32 c 1,0,1
8 131 m 0,18,19
 27 184 27 184 85.5 221.5 c 128,-1,20
 144 259 144 259 207 258 c 0,21,22
 258 257 258 257 289 231.5 c 128,-1,23
 320 206 320 206 320 166 c 0,24,25
 320 94 320 94 240 40 c 1,26,27
 286 -64 286 -64 286 -156 c 0,28,29
 286 -281 286 -281 216 -399 c 0,30,31
 154 -503 154 -503 89 -594 c 0,32,33
 21 -689 21 -689 21 -760 c 1,34,-1
 2 -760 l 1,35,-1
 2 -756 l 1,36,-1
 0 -756 l 1,37,-1
 0 94 l 2,38,39
 1 112 1 112 8 131 c 0,18,19
EndSplineSet
Validated: 33
EndChar

StartChar: F
Encoding: 61510 61510 40
Width: 730
GlyphClass: 1
Flags: W
LayerCount: 3
Fore
SplineSet
864 386 m 0,0,1
 864 361 864 361 847 339 c 128,-1,2
 830 317 830 317 803 317 c 0,3,4
 770 317 770 317 770 355 c 0,5,6
 770 371 770 371 789 386 c 0,7,8
 816 407 816 407 822 415 c 1,9,10
 822 428 822 428 802 428 c 0,11,12
 744 428 744 428 715 345 c 0,13,14
 705 318 705 318 688 258 c 1,15,16
 688 258 688 258 784 258 c 1,17,-1
 784 237 l 1,18,19
 683 238 683 238 682 237 c 0,20,21
 670 193 670 193 653 136 c 0,22,23
 639 95 639 95 605 2 c 1,24,25
 570 -82 570 -82 504 -148 c 0,26,27
 456 -195 456 -195 390 -195 c 0,28,29
 370 -194 370 -194 348.5 -171.5 c 128,-1,30
 327 -149 327 -149 327 -123 c 0,31,32
 327 -98 327 -98 340 -79 c 0,33,34
 355 -56 355 -56 381 -56 c 0,35,36
 423 -56 423 -56 423 -104 c 1,37,38
 418 -129 418 -129 399.5 -142.5 c 128,-1,39
 381 -156 381 -156 381 -158 c 0,40,41
 389 -167 389 -167 395 -167 c 0,42,43
 453 -167 453 -167 506 28 c 0,44,45
 524 89 524 89 565 237 c 1,46,-1
 479 237 l 1,47,-1
 479 258 l 1,48,-1
 574 258 l 1,49,50
 591 300 591 300 626 352 c 0,51,52
 692 452 692 452 803 451 c 0,53,54
 827 451 827 451 845.5 432 c 128,-1,55
 864 413 864 413 864 386 c 0,0,1
172 0 m 1,56,-1
 224 168 l 2,57,58
 229 191 229 191 229 203 c 0,59,60
 229 221 229 221 220 222 c 0,61,62
 188 225 188 225 163 168 c 1,63,-1
 107 0 l 1,64,-1
 42 0 l 1,65,-1
 98 168 l 2,66,67
 104 189 104 189 104 200 c 0,68,69
 104 223 104 223 85 223 c 0,70,71
 52 223 52 223 10 127 c 1,72,-1
 0 128 l 1,73,74
 56 287 56 287 129 275 c 0,75,76
 142 273 142 273 162 254 c 0,77,78
 178 239 178 239 180 234 c 1,79,80
 225 274 225 274 266 274 c 0,81,82
 282 273 282 273 313 235 c 1,83,84
 362 275 362 275 397 272 c 0,85,86
 434 269 434 269 434 219 c 0,87,88
 434 202 434 202 431 194 c 2,89,-1
 397 83 l 2,90,91
 384 39 384 39 399 37 c 0,92,93
 421 34 421 34 459 101 c 1,94,-1
 467 94 l 2,95,96
 469 91 469 91 451 64 c 0,97,98
 430 31 430 31 407 11 c 0,99,100
 376 -16 376 -16 348 -13 c 0,101,102
 334 -12 334 -12 323.5 1 c 128,-1,103
 313 14 313 14 313 31 c 0,104,105
 313 39 313 39 315 46 c 2,106,-1
 353 168 l 2,107,108
 359 190 359 190 359 202 c 0,109,110
 359 221 359 221 347 222 c 0,111,112
 322 224 322 224 292 168 c 1,113,-1
 237 0 l 1,114,-1
 172 0 l 1,56,-1
EndSplineSet
Validated: 33
EndChar

StartChar: G
Encoding: 61511 61511 41
Width: 165
GlyphClass: 1
Flags: W
LayerCount: 3
Fore
SplineSet
165 86 m 1,0,-1
 0 -7 l 1,1,-1
 0 28 l 1,2,-1
 165 121 l 1,3,-1
 165 86 l 1,0,-1
EndSplineSet
Validated: 1
EndChar

StartChar: H
Encoding: 61512 61512 42
Width: 356
GlyphClass: 1
Flags: W
LayerCount: 3
Fore
SplineSet
325 230 m 0,0,1
 333 217 333 217 333 195 c 0,2,3
 333 165 333 165 320 132 c 0,4,5
 292 54 292 54 227 22 c 0,6,7
 186 1 186 1 132 1 c 0,8,9
 119 1 119 1 107 3 c 0,10,11
 43 8 43 8 17 36 c 1,12,-1
 17 -765 l 1,13,-1
 -2 -765 l 1,14,-1
 -2 89 l 2,15,16
 -2 111 -2 111 10 143 c 0,17,18
 35 210 35 210 100 247 c 0,19,20
 146 274 146 274 207 274 c 0,21,22
 221 274 221 274 236 272 c 0,23,24
 265 269 265 269 281 263 c 0,25,26
 312 253 312 253 325 230 c 0,0,1
301 213 m 0,27,28
 289 233 289 233 263 233 c 256,29,30
 237 233 237 233 201 215 c 0,31,32
 179 204 179 204 140 182 c 0,33,34
 106 163 106 163 79 145 c 0,35,36
 25 111 25 111 25 78 c 0,37,38
 25 68 25 68 31 59 c 0,39,40
 42 39 42 39 69 39 c 0,41,42
 94 39 94 39 131 58 c 0,43,44
 160 72 160 72 193 91 c 0,45,46
 212 102 212 102 253 126 c 0,47,48
 307 161 307 161 307 194 c 0,49,50
 307 204 307 204 301 213 c 0,27,28
EndSplineSet
Validated: 1
EndChar

StartChar: I
Encoding: 61513 61513 43
Width: 200
GlyphClass: 1
Flags: W
LayerCount: 3
Fore
SplineSet
113 62 m 1,0,-1
 58 44 l 1,1,-1
 58 -55 l 1,2,-1
 113 -36 l 1,3,-1
 113 62 l 1,0,-1
0 93 m 1,4,-1
 29 102 l 1,5,-1
 29 210 l 1,6,-1
 58 210 l 1,7,-1
 58 112 l 1,8,-1
 113 130 l 1,9,-1
 113 228 l 1,10,-1
 142 228 l 1,11,-1
 142 140 l 1,12,-1
 167 148 l 1,13,-1
 167 80 l 1,14,-1
 142 72 l 1,15,-1
 142 -26 l 1,16,-1
 167 -19 l 1,17,-1
 167 -87 l 1,18,-1
 142 -95 l 1,19,-1
 142 -205 l 1,20,-1
 113 -205 l 1,21,-1
 113 -105 l 1,22,-1
 58 -122 l 1,23,-1
 58 -223 l 1,24,-1
 29 -223 l 1,25,-1
 29 -133 l 1,26,-1
 0 -142 l 1,27,-1
 0 -74 l 1,28,-1
 29 -64 l 1,29,-1
 29 34 l 1,30,-1
 0 25 l 1,31,-1
 0 93 l 1,4,-1
EndSplineSet
Validated: 1
EndChar

StartChar: J
Encoding: 61514 61514 44
Width: 330
GlyphClass: 1
Flags: W
LayerCount: 3
Fore
SplineSet
214 71 m 0,0,1
 152 -33 152 -33 87 -124 c 0,2,3
 19 -219 19 -219 19 -290 c 1,4,-1
 0 -290 l 1,5,-1
 0 -24 l 1,6,-1
 19 -24 l 1,7,8
 39 -20 39 -20 56 -14 c 0,9,10
 98 -1 98 -1 121 15 c 0,11,12
 200 67 200 67 247 203 c 0,13,14
 267 263 267 263 266 350 c 0,15,16
 265 438 265 438 218 527 c 1,17,-1
 229 534 l 1,18,19
 284 450 284 450 284 318 c 0,20,21
 284 189 284 189 214 71 c 0,0,1
EndSplineSet
Validated: 33
EndChar

StartChar: K
Encoding: 61515 61515 45
Width: 330
GlyphClass: 1
Flags: W
LayerCount: 3
Fore
SplineSet
287 -159 m 0,0,1
 299 -107 299 -107 292 -57 c 0,2,3
 285 -5 285 -5 236 63 c 0,4,5
 190 125 190 125 87 221 c 0,6,7
 66 241 66 241 49 263 c 0,8,9
 28 290 28 290 21 309 c 128,-1,10
 14 328 14 328 14 348 c 1,11,-1
 0 348 l 1,12,-1
 0 130 l 1,13,14
 75 130 75 130 124 104 c 0,15,16
 236 43 236 43 267 -60 c 0,17,18
 283 -116 283 -116 271 -159 c 0,19,20
 263 -188 263 -188 249 -215 c 1,21,-1
 257 -220 l 1,22,23
 279 -190 279 -190 287 -159 c 0,0,1
EndSplineSet
Validated: 41
EndChar

StartChar: L
Encoding: 61516 61516 46
Width: 279
GlyphClass: 1
Flags: W
LayerCount: 3
Fore
SplineSet
250 -1 m 0,0,1
 250 44 250 44 217 77 c 128,-1,2
 184 110 184 110 138 110 c 0,3,4
 93 110 93 110 60.5 77 c 128,-1,5
 28 44 28 44 28 -1 c 0,6,7
 28 -47 28 -47 60.5 -79.5 c 128,-1,8
 93 -112 93 -112 138 -112 c 0,9,10
 184 -112 184 -112 217 -79.5 c 128,-1,11
 250 -47 250 -47 250 -1 c 0,0,1
277 -1 m 0,12,13
 277 -58 277 -58 236 -98 c 128,-1,14
 195 -138 195 -138 138 -138 c 0,15,16
 82 -138 82 -138 42 -98 c 128,-1,17
 2 -58 2 -58 2 -1 c 256,18,19
 2 56 2 56 42 95.5 c 128,-1,20
 82 135 82 135 138 135 c 0,21,22
 195 135 195 135 236 95 c 128,-1,23
 277 55 277 55 277 -1 c 0,12,13
EndSplineSet
Validated: 1
EndChar

StartChar: M
Encoding: 61517 61517 47
Width: 634
GlyphClass: 1
Flags: W
LayerCount: 3
Fore
SplineSet
303 96 m 1,0,-1
 303 -85 l 1,1,-1
 275 -85 l 1,2,-1
 275 68 l 1,3,-1
 237 31 l 2,4,5
 213 8 213 8 210 8 c 0,6,7
 209 8 209 8 189 30 c 2,8,-1
 108 118 l 2,9,10
 106 121 106 121 97 133 c 0,11,12
 85 146 85 146 82 146 c 0,13,14
 75 146 75 146 51 123 c 2,15,-1
 0 75 l 1,16,-1
 0 111 l 1,17,-1
 132 237 l 2,18,19
 155 258 155 258 161 258 c 0,20,21
 166 258 166 258 187 232 c 2,22,-1
 275 141 l 1,23,-1
 275 338 l 1,24,-1
 303 338 l 1,25,-1
 303 152 l 1,26,-1
 311 161 l 1,27,-1
 389 232 l 2,28,29
 413 254 413 254 414 254 c 0,30,31
 417 254 417 254 437 231 c 2,32,-1
 506 151 l 2,33,34
 507 149 507 149 519.5 136.5 c 128,-1,35
 532 124 532 124 535 124 c 0,36,37
 542 124 542 124 563 146 c 2,38,-1
 607 193 l 1,39,-1
 607 156 l 1,40,-1
 479 28 l 2,41,42
 458 7 458 7 451 7 c 0,43,44
 447 7 447 7 425 31 c 2,45,-1
 359 103 l 2,46,47
 358 105 358 105 349 115 c 128,-1,48
 340 125 340 125 337 125 c 0,49,50
 332 125 332 125 313 106 c 2,51,-1
 303 96 l 1,0,-1
EndSplineSet
Validated: 1
EndChar

StartChar: N
Encoding: 61518 61518 48
Width: 435
GlyphClass: 1
Flags: W
LayerCount: 3
Fore
SplineSet
279 92 m 1,0,-1
 165 62 l 1,1,-1
 165 -95 l 1,2,-1
 279 -65 l 1,3,-1
 279 92 l 1,0,-1
165 158 m 1,4,-1
 304 196 l 1,5,-1
 304 -375 l 1,6,-1
 279 -375 l 1,7,-1
 279 -161 l 1,8,-1
 139 -197 l 1,9,-1
 139 381 l 1,10,-1
 165 381 l 1,11,-1
 165 158 l 1,4,-1
95 -205 m 1,12,-1
 92 -213 l 1,13,14
 57 -194 57 -194 30 -136 c 0,15,16
 1 -72 1 -72 1 0 c 0,17,18
 1 66 1 66 29.5 130 c 128,-1,19
 58 194 58 194 92 212 c 1,20,-1
 95 204 l 1,21,22
 31 134 31 134 31 0 c 0,23,24
 31 -135 31 -135 95 -205 c 1,12,-1
341 -205 m 1,25,-1
 344 -213 l 1,26,27
 379 -194 379 -194 406 -136 c 0,28,29
 436 -72 436 -72 436 0 c 0,30,31
 436 66 436 66 407 130 c 128,-1,32
 378 194 378 194 344 212 c 1,33,-1
 341 204 l 1,34,35
 405 134 405 134 405 0 c 0,36,37
 405 -135 405 -135 341 -205 c 1,25,-1
EndSplineSet
Validated: 9
EndChar

StartChar: O
Encoding: 61519 61519 49
Width: 300
GlyphClass: 1
Flags: W
LayerCount: 3
Fore
SplineSet
155 126 m 1,0,1
 199 75 199 75 300 -2 c 1,2,-1
 146 -128 l 1,3,4
 108 -84 108 -84 0 2 c 1,5,-1
 155 126 l 1,0,1
134 79 m 1,6,-1
 54 16 l 1,7,-1
 167 -82 l 1,8,-1
 245 -17 l 1,9,-1
 134 79 l 1,6,-1
EndSplineSet
Validated: 1
EndChar

StartChar: P
Encoding: 61520 61520 50
Width: 859
GlyphClass: 1
Flags: W
LayerCount: 3
Fore
SplineSet
866 182 m 0,0,1
 866 177 866 177 857 146 c 0,2,3
 846 110 846 110 832 87 c 0,4,5
 768 -28 768 -28 683 -25 c 0,6,7
 662 -25 662 -25 635 -9 c 0,8,9
 629 -6 629 -6 606 17 c 1,10,-1
 540 -144 l 1,11,-1
 610 -150 l 1,12,-1
 610 -169 l 1,13,-1
 349 -169 l 1,14,-1
 349 -150 l 1,15,-1
 435 -144 l 1,16,-1
 583 205 l 2,17,18
 586 214 586 214 582 218 c 128,-1,19
 578 222 578 222 570 221 c 0,20,21
 553 219 553 219 536 207 c 0,22,23
 498 180 498 180 466.5 115.5 c 128,-1,24
 435 51 435 51 416 27 c 0,25,26
 382 -16 382 -16 340 -12 c 0,27,28
 308 -9 308 -9 308 30 c 0,29,30
 308 39 308 39 311 48 c 2,31,-1
 351 169 l 2,32,33
 356 191 356 191 356 203 c 0,34,35
 356 222 356 222 344 223 c 0,36,37
 319 226 319 226 290 169 c 1,38,-1
 230 0 l 1,39,-1
 166 0 l 1,40,-1
 221 169 l 2,41,42
 226 192 226 192 226 204 c 0,43,44
 226 222 226 222 217 223 c 0,45,46
 185 226 185 226 160 169 c 1,47,-1
 100 0 l 1,48,-1
 36 0 l 1,49,-1
 96 169 l 2,50,51
 101 190 101 190 101 201 c 0,52,53
 101 224 101 224 82 224 c 0,54,55
 49 224 49 224 8 128 c 1,56,-1
 -3 130 l 1,57,58
 53 288 53 288 126 276 c 0,59,60
 139 274 139 274 159 255 c 0,61,62
 175 240 175 240 177 235 c 1,63,64
 222 276 222 276 264 275 c 0,65,66
 279 275 279 275 310 237 c 1,67,68
 359 276 359 276 394 273 c 0,69,70
 431 270 431 270 431 220 c 0,71,72
 431 202 431 202 429 195 c 2,73,-1
 390 101 l 2,74,75
 384 84 384 84 384 66 c 0,76,77
 384 53 384 53 390 53 c 0,78,79
 404 53 404 53 444 131 c 0,80,81
 518 271 518 271 593 272 c 0,82,83
 615 273 615 273 627 265 c 0,84,85
 658 244 658 244 670 213 c 1,86,87
 682 229 682 229 703 245 c 0,88,89
 739 271 739 271 781 271 c 0,90,91
 853 271 853 271 866 182 c 0,0,1
773 206 m 0,92,93
 773 233 773 233 751 233 c 0,94,95
 726 233 726 233 699 208 c 128,-1,96
 672 183 672 183 661 154 c 0,97,98
 632 84 632 84 632 59 c 0,99,100
 632 48 632 48 640 32 c 0,101,102
 651 11 651 11 667 11 c 0,103,104
 697 11 697 11 737 100 c 0,105,106
 772 178 772 178 773 206 c 0,92,93
EndSplineSet
Validated: 33
EndChar

StartChar: Q
Encoding: 61521 61521 51
Width: 342
GlyphClass: 1
Flags: W
LayerCount: 3
Fore
SplineSet
8 130 m 0,0,1
 27 184 27 184 85.5 221 c 128,-1,2
 144 258 144 258 207 257 c 0,3,4
 258 257 258 257 289 231 c 128,-1,5
 320 205 320 205 320 165 c 0,6,7
 320 146 320 146 312 127 c 0,8,9
 293 73 293 73 234 36 c 128,-1,10
 175 -1 175 -1 112 -1 c 0,11,12
 50 0 50 0 19 38 c 1,13,-1
 19 -757 l 1,14,-1
 0 -757 l 1,15,-1
 0 93 l 2,16,17
 0 111 0 111 8 130 c 0,0,1
EndSplineSet
Validated: 33
EndChar

StartChar: R
Encoding: 61522 61522 52
Width: 328
GlyphClass: 1
Flags: W
LayerCount: 3
Fore
SplineSet
321 414 m 0,0,1
 319 370 319 370 304 305 c 0,2,3
 300 286 300 286 283 242 c 1,4,5
 294 224 294 224 299 214 c 0,6,7
 306 195 306 195 313 164 c 0,8,9
 325 110 325 110 313 62 c 0,10,11
 303 25 303 25 291 4 c 0,12,13
 282 -13 282 -13 246 -58 c 0,14,15
 217 -96 217 -96 156 -139 c 0,16,17
 91 -185 91 -185 77 -200 c 0,18,19
 57 -220 57 -220 36 -239 c 1,20,21
 17 -264 17 -264 17 -308 c 1,22,-1
 0 -308 l 1,23,-1
 0 86 l 1,24,-1
 19 86 l 1,25,26
 50 95 50 95 76 104 c 0,27,28
 139 125 139 125 170 147 c 0,29,30
 236 192 236 192 276 293 c 0,31,32
 303 362 303 362 304 428 c 0,33,34
 306 532 306 532 254 618 c 1,35,-1
 265 626 l 1,36,37
 294 583 294 583 310 520 c 0,38,39
 324 461 324 461 321 414 c 0,0,1
275 223 m 1,40,41
 265 202 265 202 239 159 c 0,42,43
 211 120 211 120 160 80 c 0,44,45
 102 34 102 34 87 17 c 0,46,47
 47 -26 47 -26 38 -40 c 0,48,49
 18 -71 18 -71 18 -108 c 1,50,51
 103 -115 103 -115 150 -85 c 0,52,53
 241 -29 241 -29 284 67 c 0,54,55
 300 99 300 99 300 141 c 0,56,57
 300 166 300 166 275 223 c 1,40,41
EndSplineSet
Validated: 33
EndChar

StartChar: S
Encoding: 61523 61523 53
Width: 493
GlyphClass: 1
Flags: W
LayerCount: 3
Fore
SplineSet
216 217 m 0,0,1
 216 184 216 184 184 185 c 0,2,3
 161 185 161 185 158.5 200.5 c 128,-1,4
 156 216 156 216 155 232 c 0,5,6
 153 254 153 254 129 254 c 0,7,8
 111 254 111 254 97.5 241.5 c 128,-1,9
 84 229 84 229 84 207 c 0,10,11
 84 178 84 178 116 165 c 0,12,13
 145 153 145 153 174 140 c 1,14,15
 206 119 206 119 206 72 c 0,16,17
 206 32 206 32 167 2 c 0,18,19
 132 -25 132 -25 95 -25 c 0,20,21
 65 -25 65 -25 37 -9 c 0,22,23
 2 11 2 11 2 45 c 0,24,25
 2 94 2 94 39 94 c 0,26,27
 54 94 54 94 62 80 c 0,28,29
 69 70 69 70 69 59 c 0,30,31
 69 50 69 50 57 26 c 1,32,33
 77 6 77 6 90 6 c 0,34,35
 113 6 113 6 134.5 22 c 128,-1,36
 156 38 156 38 156 61 c 0,37,38
 156 82 156 82 125.5 98.5 c 128,-1,39
 95 115 95 115 66 131 c 0,40,41
 34 154 34 154 34 190 c 0,42,43
 34 228 34 228 72 256 c 0,44,45
 106 282 106 282 143 282 c 0,46,47
 173 282 173 282 194.5 262 c 128,-1,48
 216 242 216 242 216 217 c 0,0,1
621 385 m 0,49,50
 621 361 621 361 604 339 c 128,-1,51
 587 317 587 317 561 317 c 0,52,53
 527 317 527 317 527 355 c 0,54,55
 527 371 527 371 546 385 c 0,56,57
 573 406 573 406 579 414 c 1,58,59
 579 428 579 428 559 428 c 0,60,61
 502 428 502 428 472 345 c 0,62,63
 462 318 462 318 446 258 c 1,64,65
 446 258 446 258 541 258 c 1,66,-1
 541 237 l 1,67,68
 441 238 441 238 440 237 c 0,69,70
 428 194 428 194 410 136 c 0,71,72
 397 96 397 96 363 3 c 1,73,74
 328 -80 328 -80 262 -146 c 0,75,76
 215 -193 215 -193 149 -193 c 0,77,78
 129 -193 129 -193 107.5 -170 c 128,-1,79
 86 -147 86 -147 86 -122 c 256,80,81
 86 -97 86 -97 100 -76 c 128,-1,82
 114 -55 114 -55 140 -55 c 0,83,84
 182 -55 182 -55 182 -102 c 1,85,86
 177 -127 177 -127 158.5 -140.5 c 128,-1,87
 140 -154 140 -154 140 -156 c 0,88,89
 148 -165 148 -165 153 -165 c 0,90,91
 212 -165 212 -165 265 28 c 0,92,93
 282 90 282 90 323 237 c 1,94,-1
 238 237 l 1,95,-1
 238 258 l 1,96,-1
 332 258 l 1,97,98
 349 300 349 300 384 352 c 0,99,100
 450 451 450 451 561 450 c 0,101,102
 584 450 584 450 602.5 431 c 128,-1,103
 621 412 621 412 621 385 c 0,49,50
EndSplineSet
Validated: 33
EndChar

StartChar: T
Encoding: 61524 61524 54
Width: 628
GlyphClass: 1
Flags: W
LayerCount: 3
Fore
SplineSet
101 51 m 0,0,1
 73 51 73 51 51 34 c 0,2,3
 23 14 23 14 22 -23 c 0,4,5
 21 -79 21 -79 70 -90 c 0,6,7
 80 -92 80 -92 96.5 -84.5 c 128,-1,8
 113 -77 113 -77 123 -79 c 0,9,10
 172 -88 172 -88 174 -127 c 0,11,12
 175 -145 175 -145 153 -157.5 c 128,-1,13
 131 -170 131 -170 109 -166 c 0,14,15
 63 -157 63 -157 30 -114.5 c 128,-1,16
 -3 -72 -3 -72 -3 -25 c 0,17,18
 -3 39 -3 39 42 85 c 128,-1,19
 87 131 87 131 143 130 c 0,20,21
 212 129 212 129 280 72 c 1,22,23
 335 20 335 20 391 -32 c 0,24,25
 457 -88 457 -88 523 -87 c 0,26,27
 551 -87 551 -87 573 -71 c 0,28,29
 601 -51 601 -51 602 -14 c 0,30,31
 603 43 603 43 554 54 c 0,32,33
 544 56 544 56 528 48 c 128,-1,34
 512 40 512 40 501 42 c 0,35,36
 452 52 452 52 450 90 c 0,37,38
 449 108 449 108 471 121 c 128,-1,39
 493 134 493 134 515 130 c 0,40,41
 561 121 561 121 594.5 78 c 128,-1,42
 628 35 628 35 628 -11 c 0,43,44
 628 -76 628 -76 583 -121.5 c 128,-1,45
 538 -167 538 -167 481 -166 c 0,46,47
 412 -165 412 -165 344 -108 c 1,48,49
 289 -56 289 -56 233 -4 c 0,50,51
 167 52 167 52 101 51 c 0,0,1
EndSplineSet
Validated: 33
EndChar

StartChar: U
Encoding: 61525 61525 55
Width: 662
GlyphClass: 1
Flags: W
LayerCount: 3
Fore
SplineSet
664 -1 m 1,0,1
 657 -1 657 -1 648 -1 c 1,2,3
 580 247 580 247 333 247 c 0,4,5
 84 247 84 247 17 -1 c 1,6,-1
 2 -1 l 1,7,8
 2 132 2 132 99 251 c 0,9,10
 202 377 202 377 333 377 c 256,11,12
 464 377 464 377 566 251 c 0,13,14
 664 132 664 132 664 -1 c 1,0,1
407 51 m 256,15,16
 407 21 407 21 385.5 -0.5 c 128,-1,17
 364 -22 364 -22 334 -22 c 0,18,19
 303 -22 303 -22 282 -0.5 c 128,-1,20
 261 21 261 21 261 51 c 256,21,22
 261 81 261 81 282 102.5 c 128,-1,23
 303 124 303 124 334 124 c 0,24,25
 364 124 364 124 385.5 102.5 c 128,-1,26
 407 81 407 81 407 51 c 256,15,16
EndSplineSet
Validated: 1
EndChar

StartChar: V
Encoding: 61526 61526 56
Width: 682
GlyphClass: 1
Flags: W
LayerCount: 3
Fore
SplineSet
547 928 m 0,0,1
 541 1016 541 1016 487 1015 c 0,2,3
 424 1014 424 1014 382 917 c 0,4,5
 344 827 344 827 344 709 c 0,6,7
 344 669 344 669 349 633 c 1,8,9
 427 695 427 695 483 770 c 0,10,11
 552 862 552 862 547 928 c 0,0,1
601 -15 m 0,12,13
 589 145 589 145 428 137 c 1,14,-1
 485 -211 l 1,15,16
 612 -169 612 -169 601 -15 c 0,12,13
460 -219 m 1,17,18
 431 -42 431 -42 402 136 c 1,19,20
 329 133 329 133 293 85 c 0,21,22
 265 47 265 47 267 0 c 0,23,24
 269 -35 269 -35 293.5 -71.5 c 128,-1,25
 318 -108 318 -108 346 -123 c 1,26,27
 342 -126 342 -126 337 -134 c 1,28,29
 279 -106 279 -106 251 -69 c 0,30,31
 211 -15 211 -15 206 51 c 0,32,33
 203 94 203 94 226 142 c 0,34,35
 252 195 252 195 300 232 c 0,36,37
 336 259 336 259 381 271 c 1,38,-1
 351 452 l 1,39,40
 317 432 317 432 254 374 c 0,41,42
 174 302 174 302 139 247 c 0,43,44
 61 126 61 126 67 38 c 0,45,46
 75 -72 75 -72 166.5 -150.5 c 128,-1,47
 258 -229 258 -229 381 -229 c 0,48,49
 421 -229 421 -229 460 -219 c 1,17,18
338 -979 m 0,50,51
 292 -978 292 -978 264 -955.5 c 128,-1,52
 236 -933 236 -933 236 -902 c 0,53,54
 236 -851 236 -851 293 -824 c 1,55,56
 246 -800 246 -800 247 -761 c 0,57,58
 248 -711 248 -711 292 -687 c 1,59,60
 228 -679 228 -679 184 -648 c 0,61,62
 130 -611 130 -611 126 -549 c 0,63,64
 123 -495 123 -495 147 -457 c 0,65,66
 175 -413 175 -413 231 -409 c 0,67,68
 268 -406 268 -406 302.5 -433.5 c 128,-1,69
 337 -461 337 -461 340 -502 c 0,70,71
 347 -592 347 -592 229 -625 c 1,72,73
 256 -665 256 -665 337 -665 c 0,74,75
 380 -665 380 -665 421 -639 c 128,-1,76
 462 -613 462 -613 483 -573 c 0,77,78
 498 -547 498 -547 498 -494 c 0,79,80
 498 -462 498 -462 492 -422 c 0,81,82
 479 -337 479 -337 466 -252 c 1,83,84
 429 -258 429 -258 384 -258 c 0,85,86
 292 -258 292 -258 248 -237 c 0,87,88
 107 -171 107 -171 50 -73 c 0,89,90
 8 -1 8 -1 0 115 c 0,91,92
 -7 213 -7 213 46 319 c 0,93,94
 91 410 91 410 162.5 477.5 c 128,-1,95
 234 545 234 545 324 613 c 1,96,97
 319 638 319 638 310 712 c 0,98,99
 305 781 305 781 305 807 c 0,100,101
 305 879 305 879 317 943 c 0,102,103
 328 1003 328 1003 377 1081 c 0,104,105
 432 1169 432 1169 472 1169 c 0,106,107
 504 1170 504 1170 545 1071 c 128,-1,108
 586 972 586 972 587 901 c 0,109,110
 590 807 590 807 569 739 c 0,111,112
 555 694 555 694 516 627 c 0,113,114
 501 600 501 600 450 537 c 0,115,116
 436 520 436 520 413 501 c 0,117,118
 394 485 394 485 375 470 c 1,119,-1
 407 275 l 1,120,121
 421 277 421 277 436 277 c 0,122,123
 527 277 527 277 578 240 c 0,124,125
 672 172 672 172 681 44 c 0,126,127
 688 -45 688 -45 640 -121 c 0,128,129
 589 -204 589 -204 490 -245 c 1,130,131
 504 -335 504 -335 516 -419 c 0,132,133
 524 -469 524 -469 524 -504 c 0,134,135
 524 -552 524 -552 509 -580 c 0,136,137
 469 -653 469 -653 403 -678 c 1,138,-1
 369 -681 l 1,139,140
 427 -700 427 -700 426 -755 c 0,141,142
 426 -792 426 -792 387 -815 c 1,143,144
 439 -848 439 -848 438 -895 c 0,145,146
 437 -930 437 -930 406.5 -955 c 128,-1,147
 376 -980 376 -980 338 -979 c 0,50,51
340 -695 m 0,148,149
 317 -694 317 -694 303.5 -707.5 c 128,-1,150
 290 -721 290 -721 289 -741 c 0,151,152
 289 -770 289 -770 339 -790 c 2,153,-1
 365 -801 l 1,154,155
 393 -788 393 -788 394 -753 c 0,156,157
 394 -731 394 -731 378 -713 c 128,-1,158
 362 -695 362 -695 340 -695 c 0,148,149
343 -851 m 2,159,-1
 317 -839 l 1,160,161
 300 -843 300 -843 287.5 -860.5 c 128,-1,162
 275 -878 275 -878 275 -898 c 0,163,164
 274 -922 274 -922 293.5 -940.5 c 128,-1,165
 313 -959 313 -959 338 -959 c 0,166,167
 390 -960 390 -960 391 -907 c 0,168,169
 391 -873 391 -873 343 -851 c 2,159,-1
336 -688 m 1024,170,-1
EndSplineSet
Validated: 33
EndChar

StartChar: W
Encoding: 61527 61527 57
Width: 594
GlyphClass: 1
Flags: W
LayerCount: 3
Fore
SplineSet
520 -245 m 1,0,-1
 491 -245 l 1,1,-1
 491 -59 l 1,2,3
 468 -92 468 -92 419.5 -113 c 128,-1,4
 371 -134 371 -134 312 -134 c 0,5,6
 158 -133 158 -133 102 -54 c 1,7,-1
 102 -245 l 1,8,-1
 73 -245 l 1,9,-1
 73 249 l 1,10,-1
 102 249 l 1,11,-1
 102 55 l 1,12,13
 125 89 125 89 174.5 110.5 c 128,-1,14
 224 132 224 132 283 132 c 0,15,16
 440 131 440 131 491 47 c 1,17,-1
 491 249 l 1,18,-1
 520 249 l 1,19,-1
 520 -245 l 1,0,-1
-1 249 m 1,20,-1
 28 249 l 1,21,-1
 28 -245 l 1,22,-1
 -1 -245 l 1,23,-1
 -1 249 l 1,20,-1
565 249 m 1,24,-1
 594 249 l 1,25,-1
 594 -245 l 1,26,-1
 565 -245 l 1,27,-1
 565 249 l 1,24,-1
211 21 m 0,28,29
 221 -43 221 -43 240 -72 c 0,30,31
 264 -110 264 -110 312 -110 c 0,32,33
 347 -110 347 -110 368 -83 c 128,-1,34
 389 -56 389 -56 385 -27 c 0,35,36
 364 106 364 106 281 106 c 0,37,38
 246 106 246 106 225 77 c 0,39,40
 206 52 206 52 211 21 c 0,28,29
EndSplineSet
Validated: 33
EndChar

StartChar: X
Encoding: 61528 61528 58
Width: 364
GlyphClass: 1
Flags: W
LayerCount: 3
Fore
SplineSet
275 -260 m 1,0,1
 265 -281 265 -281 239 -324 c 0,2,3
 211 -363 211 -363 160 -403 c 0,4,5
 102 -450 102 -450 87 -466 c 0,6,7
 47 -510 47 -510 38 -524 c 0,8,9
 18 -555 18 -555 18 -591 c 1,10,11
 101 -595 101 -595 150 -569 c 0,12,13
 168 -559 168 -559 207 -521 c 0,14,15
 261 -468 261 -468 284 -417 c 0,16,17
 299 -384 299 -384 299 -342 c 0,18,19
 299 -317 299 -317 275 -260 c 1,0,1
274 68 m 1,20,21
 211 -1 211 -1 111 0 c 0,22,23
 49 1 49 1 19 38 c 1,24,-1
 19 -397 l 1,25,26
 49 -389 49 -389 76 -380 c 0,27,28
 139 -358 139 -358 169 -337 c 0,29,30
 243 -286 243 -286 276 -190 c 0,31,32
 305 -106 305 -106 306 -57 c 0,33,34
 307 -13 307 -13 274 68 c 1,20,21
7 131 m 0,35,36
 26 184 26 184 84.5 221.5 c 128,-1,37
 143 259 143 259 206 258 c 0,38,39
 257 257 257 257 288 231.5 c 128,-1,40
 319 206 319 206 319 166 c 0,41,42
 319 124 319 124 286 84 c 1,43,44
 325 -17 325 -17 321 -70 c 0,45,46
 318 -114 318 -114 304 -178 c 0,47,48
 299 -197 299 -197 283 -241 c 1,49,50
 294 -260 294 -260 298 -270 c 0,51,52
 306 -288 306 -288 313 -319 c 0,53,54
 324 -374 324 -374 313 -421 c 0,55,56
 303 -459 303 -459 291 -480 c 0,57,58
 282 -497 282 -497 246 -542 c 0,59,60
 217 -579 217 -579 156 -622 c 0,61,62
 91 -668 91 -668 77 -684 c 0,63,64
 57 -703 57 -703 37 -723 c 0,65,66
 18 -747 18 -747 19 -792 c 1,67,-1
 0 -792 l 1,68,-1
 0 -397 l 1,69,-1
 0 84 l 2,70,71
 0 112 0 112 7 131 c 0,35,36
EndSplineSet
Validated: 33
EndChar

StartChar: Y
Encoding: 61529 61529 59
Width: 319
GlyphClass: 1
Flags: W
LayerCount: 3
Fore
SplineSet
291 1 m 2,0,-1
 291 95 l 1,1,-1
 24 95 l 1,2,-1
 24 1 l 2,3,4
 24 -45 24 -45 67 -72 c 0,5,6
 105 -95 105 -95 159 -95 c 0,7,8
 210 -95 210 -95 248 -72 c 0,9,10
 291 -45 291 -45 291 1 c 2,0,-1
319 1 m 2,11,12
 319 -56 319 -56 267 -90 c 0,13,14
 222 -119 222 -119 159 -119 c 0,15,16
 95 -119 95 -119 49 -90 c 0,17,18
 -3 -57 -3 -57 -3 1 c 2,19,-1
 -3 119 l 1,20,-1
 319 119 l 1,21,-1
 319 1 l 2,11,12
EndSplineSet
Validated: 1
EndChar

StartChar: Z
Encoding: 61530 61530 60
Width: 525
GlyphClass: 1
Flags: W
LayerCount: 3
Fore
SplineSet
386 385 m 0,0,1
 386 360 386 360 370 340 c 0,2,3
 352 317 352 317 325 317 c 0,4,5
 292 317 292 317 292 355 c 0,6,7
 292 370 292 370 311 385 c 0,8,9
 338 406 338 406 343 414 c 1,10,11
 344 427 344 427 324 427 c 0,12,13
 266 427 266 427 237 345 c 0,14,15
 227 318 227 318 210 258 c 1,16,17
 210 258 210 258 306 258 c 1,18,-1
 306 236 l 1,19,20
 205 237 205 237 205 236 c 0,21,22
 192 193 192 193 175 136 c 0,23,24
 162 95 162 95 127 3 c 0,25,26
 92 -81 92 -81 27 -146 c 0,27,28
 -21 -194 -21 -194 -86 -193 c 0,29,30
 -107 -193 -107 -193 -128.5 -170.5 c 128,-1,31
 -150 -148 -150 -148 -150 -122 c 0,32,33
 -150 -97 -150 -97 -135.5 -76.5 c 128,-1,34
 -121 -56 -121 -56 -96 -56 c 0,35,36
 -54 -56 -54 -56 -53 -103 c 1,37,38
 -58 -128 -58 -128 -77 -141.5 c 128,-1,39
 -96 -155 -96 -155 -96 -157 c 0,40,41
 -88 -165 -88 -165 -82 -165 c 0,42,43
 -24 -165 -24 -165 29 28 c 0,44,45
 47 89 47 89 88 236 c 1,46,-1
 2 236 l 1,47,-1
 2 258 l 1,48,-1
 97 258 l 1,49,50
 114 299 114 299 149 352 c 0,51,52
 215 451 215 451 325 450 c 0,53,54
 349 450 349 450 367.5 431 c 128,-1,55
 386 412 386 412 386 385 c 0,0,1
464 103 m 0,56,57
 482 81 482 81 482 56 c 0,58,59
 482 24 482 24 453 -0.5 c 128,-1,60
 424 -25 424 -25 390 -27 c 0,61,62
 367 -29 367 -29 339.5 -13.5 c 128,-1,63
 312 2 312 2 302 2 c 0,64,65
 269 2 269 2 245 -13 c 1,66,-1
 232 -1 l 1,67,68
 322 86 322 86 442 194 c 1,69,70
 399 195 399 195 347 194 c 0,71,72
 326 190 326 190 311 165 c 1,73,-1
 303 173 l 1,74,-1
 350 257 l 1,75,-1
 535 257 l 1,76,-1
 528 239 l 1,77,-1
 316 50 l 1,78,79
 328 51 328 51 338 51 c 0,80,81
 365 51 365 51 387 40 c 0,82,83
 400 33 400 33 412 27 c 0,84,85
 427 23 427 23 438 28 c 128,-1,86
 449 33 449 33 445 48 c 1,87,88
 431 47 431 47 422 59.5 c 128,-1,89
 413 72 413 72 413 87 c 0,90,91
 413 115 413 115 442 115 c 0,92,93
 455 115 455 115 464 103 c 0,56,57
EndSplineSet
Validated: 33
EndChar

StartChar: bracketleft
Encoding: 61531 61531 61
Width: 406
GlyphClass: 1
Flags: W
LayerCount: 3
Fore
SplineSet
235 71 m 1,0,-1
 168 47 l 1,1,-1
 168 -64 l 1,2,-1
 235 -40 l 1,3,-1
 235 71 l 1,0,-1
108 108 m 1,4,-1
 140 118 l 1,5,-1
 140 240 l 1,6,-1
 168 240 l 1,7,-1
 168 125 l 1,8,-1
 235 149 l 1,9,-1
 235 259 l 1,10,-1
 263 259 l 1,11,-1
 263 156 l 1,12,-1
 289 166 l 1,13,-1
 289 88 l 1,14,-1
 263 78 l 1,15,-1
 263 -33 l 1,16,-1
 289 -24 l 1,17,-1
 289 -101 l 1,18,-1
 263 -111 l 1,19,-1
 263 -234 l 1,20,-1
 235 -234 l 1,21,-1
 235 -118 l 1,22,-1
 168 -142 l 1,23,-1
 168 -253 l 1,24,-1
 140 -253 l 1,25,-1
 140 -149 l 1,26,-1
 108 -160 l 1,27,-1
 108 -82 l 1,28,-1
 140 -71 l 1,29,-1
 140 40 l 1,30,-1
 108 30 l 1,31,-1
 108 108 l 1,4,-1
404 0 m 0,32,33
 404 -127 404 -127 318 -184 c 1,34,-1
 315 -177 l 1,35,36
 374 -116 374 -116 374 0 c 0,37,38
 374 57 374 57 365 90 c 0,39,40
 352 138 352 138 315 177 c 1,41,-1
 318 184 l 1,42,43
 348 167 348 167 374 119 c 0,44,45
 404 63 404 63 404 0 c 0,32,33
89 -177 m 1,46,-1
 86 -184 l 1,47,48
 0 -126 0 -126 0 0 c 0,49,50
 0 63 0 63 29 117 c 0,51,52
 53 163 53 163 86 184 c 1,53,-1
 89 177 l 1,54,55
 52 138 52 138 39 90 c 0,56,57
 30 57 30 57 30 0 c 0,58,59
 30 -116 30 -116 89 -177 c 1,46,-1
EndSplineSet
Validated: 1
EndChar

StartChar: backslash
Encoding: 61532 61532 62
Width: 42
GlyphClass: 1
Flags: W
LayerCount: 3
Fore
SplineSet
19 1014 m 1,0,-1
 19 0 l 1,1,-1
 0 0 l 1,2,-1
 0 1014 l 1,3,-1
 19 1014 l 1,0,-1
EndSplineSet
Validated: 1
EndChar

StartChar: bracketright
Encoding: 61533 61533 63
Width: 361
GlyphClass: 1
Flags: W
LayerCount: 3
Fore
SplineSet
190 27 m 1,0,1
 199 31 199 31 212 44 c 1,2,3
 224 73 224 73 218 94 c 1,4,-1
 279 98 l 1,5,-1
 276 33 l 1,6,7
 273 35 273 35 259 34 c 0,8,9
 241 33 241 33 227 26 c 0,10,11
 223 24 223 24 209 6 c 1,12,-1
 209 -4 l 1,13,14
 217 -19 217 -19 227 -23 c 0,15,16
 255 -35 255 -35 276 -30 c 1,17,-1
 279 -93 l 1,18,-1
 216 -88 l 1,19,20
 215 -76 215 -76 215 -63 c 0,21,22
 215 -54 215 -54 208 -40 c 0,23,24
 205 -33 205 -33 190 -21 c 1,25,-1
 179 -21 l 1,26,27
 165 -29 165 -29 160 -40 c 0,28,29
 148 -68 148 -68 153 -88 c 1,30,-1
 90 -93 l 1,31,-1
 95 -27 l 1,32,33
 110 -35 110 -35 142 -20 c 0,34,35
 154 -14 154 -14 162 -4 c 1,36,-1
 163 6 l 1,37,38
 152 24 152 24 142 29 c 0,39,40
 115 40 115 40 95 35 c 1,41,-1
 90 98 l 1,42,-1
 156 94 l 1,43,44
 148 79 148 79 163 46 c 0,45,46
 169 35 169 35 179 27 c 1,47,-1
 190 27 l 1,0,1
362 0 m 0,48,49
 362 -127 362 -127 276 -184 c 1,50,-1
 273 -177 l 1,51,52
 332 -116 332 -116 332 0 c 0,53,54
 332 57 332 57 323 90 c 0,55,56
 310 138 310 138 273 177 c 1,57,-1
 276 184 l 1,58,59
 306 167 306 167 332 119 c 0,60,61
 362 63 362 63 362 0 c 0,48,49
89 -177 m 1,62,-1
 86 -184 l 1,63,64
 0 -126 0 -126 0 0 c 0,65,66
 0 63 0 63 29 117 c 0,67,68
 53 163 53 163 86 184 c 1,69,-1
 89 177 l 1,70,71
 52 138 52 138 39 90 c 0,72,73
 30 57 30 57 30 0 c 0,74,75
 30 -116 30 -116 89 -177 c 1,62,-1
EndSplineSet
Validated: 33
EndChar

StartChar: asciicircum
Encoding: 61534 61534 64
Width: 226
GlyphClass: 1
Flags: W
LayerCount: 3
Fore
SplineSet
107 248 m 1,0,-1
 226 -1 l 1,1,-1
 138 -1 l 1,2,-1
 82 122 l 1,3,-1
 26 0 l 1,4,-1
 0 0 l 1,5,-1
 107 248 l 1,0,-1
EndSplineSet
Validated: 1
EndChar

StartChar: underscore
Encoding: 61535 61535 65
Width: 422
GlyphClass: 1
Flags: W
LayerCount: 3
Fore
SplineSet
423 19 m 1,0,-1
 423 0 l 1,1,-1
 0 0 l 1,2,-1
 0 19 l 1,3,-1
 423 19 l 1,0,-1
EndSplineSet
Validated: 1
EndChar

StartChar: grave
Encoding: 61536 61536 66
Width: 1054
GlyphClass: 1
Flags: W
LayerCount: 3
Fore
SplineSet
602 304 m 1,0,-1
 557 223 l 1,1,-1
 366 223 l 1,2,-1
 340 174 l 1,3,4
 378 162 378 162 452 130 c 1,5,6
 527 88 527 88 527 22 c 0,7,8
 527 -16 527 -16 498.5 -62.5 c 128,-1,9
 470 -109 470 -109 435.5 -129 c 128,-1,10
 401 -149 401 -149 376.5 -156 c 128,-1,11
 352 -163 352 -163 310 -163 c 0,12,13
 274 -162 274 -162 246 -147 c 0,14,15
 214 -130 214 -130 220 -104 c 0,16,17
 226 -80 226 -80 257 -80 c 0,18,19
 277 -80 277 -80 294 -111 c 128,-1,20
 311 -142 311 -142 334 -140 c 0,21,22
 381 -137 381 -137 422 -97.5 c 128,-1,23
 463 -58 463 -58 463 -11 c 0,24,25
 463 32 463 32 408 64 c 0,26,27
 369 87 369 87 279 113 c 1,28,-1
 381 290 l 1,29,-1
 544 290 l 2,30,31
 569 290 569 290 580 297 c 0,32,33
 587 301 587 301 600 307 c 1,34,-1
 602 304 l 1,0,-1
206 -154 m 1,35,-1
 1 -154 l 1,36,-1
 7 -141 l 1,37,-1
 48 -124 l 2,38,39
 66 -116 66 -116 74 -106 c 0,40,41
 81 -99 81 -99 86 -75 c 2,42,-1
 146 198 l 2,43,44
 151 224 151 224 148 227 c 0,45,46
 144 232 144 232 117 225 c 2,47,-1
 81 216 l 1,48,-1
 79 227 l 1,49,-1
 240 295 l 1,50,-1
 154 -80 l 2,51,52
 149 -101 149 -101 153 -111 c 0,53,54
 159 -125 159 -125 171 -129 c 2,55,-1
 209 -142 l 1,56,-1
 206 -154 l 1,35,-1
816 82 m 0,57,58
 783 81 783 81 783 102 c 0,59,60
 783 106 783 106 785 112 c 2,61,-1
 831 233 l 2,62,63
 839 255 839 255 824 256 c 0,64,65
 803 257 803 257 788 232 c 1,66,-1
 731 88 l 1,67,-1
 697 88 l 1,68,-1
 756 233 l 1,69,70
 756 255 756 255 757 247 c 1,71,72
 756 259 756 259 745 260 c 0,73,74
 730 262 730 262 709 232 c 1,75,-1
 651 88 l 1,76,-1
 616 88 l 1,77,-1
 676 235 l 1,78,79
 676 256 676 256 667 257 c 0,80,81
 648 259 648 259 623 225 c 0,82,83
 606 201 606 201 601 189 c 1,84,-1
 579 188 l 1,85,86
 633 279 633 279 676 276 c 0,87,88
 691 275 691 275 702 255 c 1,89,90
 718 279 718 279 752 279 c 0,91,92
 770 279 770 279 778 253 c 1,93,94
 803 281 803 281 836 275 c 0,95,96
 862 271 862 271 865 233 c 1,97,-1
 819 115 l 2,98,99
 815 107 815 107 825 105 c 0,100,101
 836 104 836 104 855 135 c 1,102,-1
 863 125 l 2,103,104
 865 119 865 119 847.5 101 c 128,-1,105
 830 83 830 83 816 82 c 0,57,58
927 81 m 0,106,107
 908 81 908 81 891 89 c 0,108,109
 870 100 870 100 874 116 c 2,110,-1
 935 352 l 1,111,-1
 911 357 l 2,112,113
 907 357 907 357 910 363 c 256,114,115
 913 369 913 369 917 369 c 0,116,117
 926 368 926 368 945 373 c 0,118,119
 955 375 955 375 982 392 c 1,120,-1
 935 229 l 1,121,122
 969 271 969 271 1008 271 c 0,123,124
 1054 271 1054 271 1054 217 c 0,125,126
 1054 167 1054 167 1015.5 124.5 c 128,-1,127
 977 82 977 82 927 81 c 0,106,107
924 186 m 1,128,-1
 905 110 l 1,129,130
 910 105 910 105 914 101.5 c 128,-1,131
 918 98 918 98 930 99 c 0,132,133
 970 103 970 103 1001 153 c 0,134,135
 1027 197 1027 197 1027 232 c 0,136,137
 1027 253 1027 253 1009 253 c 0,138,139
 987 253 987 253 957 224 c 0,140,141
 933 202 933 202 924 186 c 1,128,-1
EndSplineSet
Validated: 33
EndChar

StartChar: a
Encoding: 61537 61537 67
Width: 480
GlyphClass: 1
Flags: W
LayerCount: 3
Fore
SplineSet
481 0 m 0,0,1
 481 -72 481 -72 451 -136 c 0,2,3
 424 -194 424 -194 389 -213 c 1,4,-1
 386 -205 l 1,5,6
 450 -135 450 -135 450 0 c 256,7,8
 450 135 450 135 386 204 c 1,9,-1
 389 212 l 1,10,11
 423 194 423 194 452 130 c 128,-1,12
 481 66 481 66 481 0 c 0,0,1
91 -205 m 1,13,-1
 88 -213 l 1,14,15
 53 -194 53 -194 26 -136 c 0,16,17
 -3 -72 -3 -72 -3 0 c 0,18,19
 -3 66 -3 66 25.5 130 c 128,-1,20
 54 194 54 194 88 212 c 1,21,-1
 91 204 l 1,22,23
 27 134 27 134 27 0 c 0,24,25
 27 -135 27 -135 91 -205 c 1,13,-1
288 93 m 1,26,-1
 191 61 l 1,27,-1
 191 -88 l 1,28,-1
 288 -56 l 1,29,-1
 288 93 l 1,26,-1
119 141 m 1,30,-1
 162 155 l 1,31,-1
 162 318 l 1,32,-1
 191 318 l 1,33,-1
 191 165 l 1,34,-1
 288 197 l 1,35,-1
 288 343 l 1,36,-1
 317 343 l 1,37,-1
 317 206 l 1,38,-1
 357 219 l 1,39,-1
 357 115 l 1,40,-1
 317 102 l 1,41,-1
 317 -46 l 1,42,-1
 357 -34 l 1,43,-1
 357 -137 l 1,44,-1
 317 -150 l 1,45,-1
 317 -313 l 1,46,-1
 288 -313 l 1,47,-1
 288 -160 l 1,48,-1
 191 -191 l 1,49,-1
 191 -339 l 1,50,-1
 162 -339 l 1,51,-1
 162 -201 l 1,52,-1
 119 -215 l 1,53,-1
 119 -111 l 1,54,-1
 162 -97 l 1,55,-1
 162 52 l 1,56,-1
 119 38 l 1,57,-1
 119 141 l 1,30,-1
EndSplineSet
Validated: 1
EndChar

StartChar: b
Encoding: 61538 61538 68
Width: 210
GlyphClass: 1
Flags: W
LayerCount: 3
Fore
SplineSet
26 433 m 1,0,-1
 26 177 l 1,1,2
 26 177 26 177 26 113 c 1,3,4
 71 154 71 154 127 155 c 0,5,6
 162 155 162 155 187 126 c 0,7,8
 209 99 209 99 210 66 c 0,9,10
 211 40 211 40 197 6 c 0,11,12
 192 -8 192 -8 175 -24 c 0,13,14
 162 -36 162 -36 148 -49 c 0,15,16
 74 -103 74 -103 0 -158 c 1,17,-1
 0 433 l 1,18,-1
 26 433 l 1,0,-1
107 91 m 0,19,20
 95 105 95 105 76 105 c 0,21,22
 52 105 52 105 37 78 c 0,23,24
 26 57 26 57 26 -21 c 2,25,-1
 26 -107 l 2,26,27
 27 -111 27 -111 82 -58 c 0,28,29
 112 -30 112 -30 121 8 c 0,30,31
 125 23 125 23 125 38 c 0,32,33
 125 71 125 71 107 91 c 0,19,20
EndSplineSet
Validated: 33
EndChar

StartChar: c
Encoding: 61539 61539 69
Width: 422
GlyphClass: 1
Flags: W
LayerCount: 3
Fore
SplineSet
220 247 m 0,0,1
 305 247 305 247 361.5 208 c 128,-1,2
 418 169 418 169 418 99 c 0,3,4
 418 71 418 71 391 47.5 c 128,-1,5
 364 24 364 24 341 24 c 0,6,7
 312 24 312 24 288 39 c 0,8,9
 256 59 256 59 256 99 c 0,10,11
 256 128 256 128 274.5 147.5 c 128,-1,12
 293 167 293 167 319 167 c 0,13,14
 338 167 338 167 338 179 c 0,15,16
 338 185 338 185 333 191 c 0,17,18
 303 222 303 222 256 222 c 0,19,20
 240 222 240 222 222 217 c 0,21,22
 126 191 126 191 126 1 c 0,23,24
 126 -218 126 -218 241 -218 c 0,25,26
 295 -218 295 -218 338 -177 c 0,27,28
 385 -132 385 -132 383 -71 c 1,29,-1
 411 -71 l 1,30,31
 410 -91 410 -91 399 -124 c 128,-1,32
 388 -157 388 -157 376 -172 c 0,33,34
 350 -204 350 -204 308 -226.5 c 128,-1,35
 266 -249 266 -249 230 -249 c 0,36,37
 133 -249 133 -249 68 -173 c 0,38,39
 4 -100 4 -100 4 1 c 0,40,41
 4 100 4 100 65.5 173.5 c 128,-1,42
 127 247 127 247 220 247 c 0,0,1
EndSplineSet
Validated: 33
EndChar

StartChar: e
Encoding: 61541 61541 70
Width: 555
GlyphClass: 1
Flags: W
LayerCount: 3
Fore
SplineSet
7 131 m 0,0,1
 26 184 26 184 84.5 221 c 128,-1,2
 143 258 143 258 206 258 c 0,3,4
 268 257 268 257 299 220 c 1,5,-1
 299 1026 l 1,6,-1
 318 1026 l 1,7,-1
 318 1026 l 1,8,9
 318 951 318 951 370 878 c 0,10,11
 407 829 407 829 482 716 c 0,12,13
 505 677 505 677 525 618 c 0,14,15
 543 566 543 566 547 532 c 0,16,17
 556 467 556 467 555 410 c 0,18,19
 554 315 554 315 525 240 c 1,20,-1
 513 246 l 1,21,22
 540 316 540 316 540 414 c 0,23,24
 540 498 540 498 515 572 c 0,25,26
 476 686 476 686 406 733 c 0,27,28
 365 760 365 760 318 764 c 1,29,-1
 318 174 l 2,30,31
 320 151 320 151 311 127 c 0,32,33
 292 73 292 73 233 36 c 128,-1,34
 174 -1 174 -1 111 0 c 0,35,36
 61 0 61 0 30 26 c 128,-1,37
 -1 52 -1 52 -1 92 c 0,38,39
 -1 111 -1 111 7 131 c 0,0,1
EndSplineSet
Validated: 37
EndChar

StartChar: f
Encoding: 61542 61542 71
Width: 261
GlyphClass: 1
Flags: W
LayerCount: 3
Fore
SplineSet
386 385 m 0,0,1
 386 360 386 360 370 340 c 0,2,3
 352 317 352 317 325 317 c 0,4,5
 292 317 292 317 292 355 c 0,6,7
 292 370 292 370 311 385 c 0,8,9
 338 406 338 406 343 414 c 1,10,11
 344 427 344 427 324 427 c 0,12,13
 266 427 266 427 237 345 c 0,14,15
 227 318 227 318 210 258 c 1,16,17
 210 258 210 258 306 258 c 1,18,-1
 306 236 l 1,19,20
 205 237 205 237 205 236 c 0,21,22
 192 193 192 193 175 136 c 0,23,24
 162 95 162 95 127 3 c 0,25,26
 92 -81 92 -81 27 -146 c 0,27,28
 -21 -194 -21 -194 -86 -193 c 0,29,30
 -107 -193 -107 -193 -128.5 -170.5 c 128,-1,31
 -150 -148 -150 -148 -150 -122 c 0,32,33
 -150 -97 -150 -97 -135.5 -76.5 c 128,-1,34
 -121 -56 -121 -56 -96 -56 c 0,35,36
 -54 -56 -54 -56 -53 -103 c 1,37,38
 -58 -128 -58 -128 -77 -141.5 c 128,-1,39
 -96 -155 -96 -155 -96 -157 c 0,40,41
 -88 -165 -88 -165 -82 -165 c 0,42,43
 -24 -165 -24 -165 29 28 c 0,44,45
 47 89 47 89 88 236 c 1,46,-1
 2 236 l 1,47,-1
 2 258 l 1,48,-1
 97 258 l 1,49,50
 114 299 114 299 149 352 c 0,51,52
 215 451 215 451 325 450 c 0,53,54
 349 450 349 450 367.5 431 c 128,-1,55
 386 412 386 412 386 385 c 0,0,1
EndSplineSet
Validated: 33
EndChar

StartChar: g
Encoding: 61543 61543 72
Width: 146
GlyphClass: 1
Flags: W
LayerCount: 3
Fore
SplineSet
82 324 m 0,0,1
 82 299 82 299 111 264 c 128,-1,2
 140 229 140 229 140 205 c 0,3,4
 140 168 140 168 111 133 c 128,-1,5
 82 98 82 98 82 70 c 0,6,7
 82 43 82 43 128 -16 c 1,8,-1
 111 -24 l 1,9,10
 89 -4 89 -4 53 34 c 0,11,12
 9 86 9 86 9 119 c 0,13,14
 9 156 9 156 37.5 190.5 c 128,-1,15
 66 225 66 225 66 253 c 0,16,17
 66 273 66 273 37.5 310 c 128,-1,18
 9 347 9 347 9 373 c 0,19,20
 9 409 9 409 37.5 444 c 128,-1,21
 66 479 66 479 66 507 c 0,22,23
 66 526 66 526 52 549 c 0,24,25
 40 568 40 568 27 587 c 1,26,-1
 41 592 l 1,27,28
 59 575 59 575 92 542 c 0,29,30
 140 487 140 487 140 459 c 0,31,32
 140 422 140 422 111 387 c 128,-1,33
 82 352 82 352 82 324 c 0,0,1
EndSplineSet
Validated: 1
EndChar

StartChar: h
Encoding: 61544 61544 73
Width: 333
GlyphClass: 1
Flags: W
LayerCount: 3
Fore
SplineSet
5 43 m 0,0,1
 -2 56 -2 56 -2 77 c 0,2,3
 -2 108 -2 108 10 141 c 0,4,5
 39 218 39 218 104 251 c 0,6,7
 145 271 145 271 199 271 c 0,8,9
 211 271 211 271 224 270 c 0,10,11
 287 264 287 264 314 236 c 1,12,-1
 314 1037 l 1,13,-1
 333 1037 l 1,14,-1
 333 183 l 2,15,16
 333 162 333 162 321 130 c 0,17,18
 296 62 296 62 230 25 c 0,19,20
 184 -1 184 -1 123 -1 c 0,21,22
 109 -1 109 -1 95 0 c 0,23,24
 66 4 66 4 50 9 c 0,25,26
 18 20 18 20 5 43 c 0,0,1
30 59 m 0,27,28
 41 39 41 39 68 39 c 0,29,30
 93 39 93 39 130 57 c 0,31,32
 151 68 151 68 191 90 c 0,33,34
 224 109 224 109 251 127 c 0,35,36
 305 162 305 162 305 194 c 0,37,38
 305 204 305 204 300 213 c 0,39,40
 288 233 288 233 262 233 c 0,41,42
 237 233 237 233 200 215 c 0,43,44
 171 200 171 200 137 181 c 0,45,46
 118 171 118 171 78 146 c 0,47,48
 24 111 24 111 24 79 c 0,49,50
 24 69 24 69 30 59 c 0,27,28
EndSplineSet
Validated: 1
EndChar

StartChar: i
Encoding: 61545 61545 74
Width: 156
GlyphClass: 1
Flags: W
LayerCount: 3
Fore
SplineSet
27 287 m 1,0,-1
 27 117 l 1,1,2
 27 117 27 117 27 71 c 1,3,4
 58 99 58 99 91 99 c 0,5,6
 136 99 136 99 138 46 c 0,7,8
 138 29 138 29 129 7 c 0,9,10
 123 -9 123 -9 104 -28 c 0,11,12
 101 -31 101 -31 -1 -99 c 1,13,-1
 -1 287 l 1,14,-1
 27 287 l 1,0,-1
78 56 m 0,15,16
 70 66 70 66 58 66 c 0,17,18
 43 66 43 66 34 48 c 0,19,20
 27 35 27 35 27 -10 c 2,21,-1
 27 -66 l 1,22,23
 39 -56 39 -56 62 -34 c 0,24,25
 81 -16 81 -16 87 8 c 0,26,27
 94 38 94 38 78 56 c 0,15,16
EndSplineSet
Validated: 33
EndChar

StartChar: j
Encoding: 61546 61546 75
Width: 330
GlyphClass: 1
Flags: W
LayerCount: 3
Fore
SplineSet
15 287 m 1,0,1
 15 220 15 220 73 139 c 0,2,3
 110 90 110 90 185 -24 c 0,4,5
 208 -62 208 -62 228 -121 c 0,6,7
 246 -174 246 -174 250 -208 c 0,8,9
 260 -279 260 -279 259 -329 c 0,10,11
 258 -421 258 -421 228 -499 c 1,12,-1
 216 -497 l 1,13,14
 243 -427 243 -427 243 -326 c 0,15,16
 243 -241 243 -241 218 -167 c 0,17,18
 179 -54 179 -54 108 -7 c 0,19,20
 67 21 67 21 15 25 c 1,21,-1
 1 25 l 1,22,-1
 1 287 l 1,23,-1
 15 287 l 1,0,1
EndSplineSet
Validated: 33
EndChar

StartChar: k
Encoding: 61547 61547 76
Width: 169
GlyphClass: 1
Flags: W
LayerCount: 3
Fore
SplineSet
17 167 m 256,0,1
 17 188 17 188 32.5 202.5 c 128,-1,2
 48 217 48 217 69 217 c 0,3,4
 91 217 91 217 106 202.5 c 128,-1,5
 121 188 121 188 121 167 c 256,6,7
 121 146 121 146 106 131 c 128,-1,8
 91 116 91 116 69 116 c 0,9,10
 48 116 48 116 32.5 131 c 128,-1,11
 17 146 17 146 17 167 c 256,0,1
EndSplineSet
Validated: 1
EndChar

StartChar: l
Encoding: 61548 61548 77
Width: 284
GlyphClass: 1
Flags: W
LayerCount: 3
Fore
SplineSet
262 -111 m 1,0,-1
 262 70 l 1,1,-1
 58 -111 l 1,2,-1
 262 -111 l 1,0,-1
-2 -133 m 1,3,-1
 285 126 l 1,4,-1
 285 -133 l 1,5,-1
 -2 -133 l 1,3,-1
EndSplineSet
Validated: 1
EndChar

StartChar: m
Encoding: 61549 61549 78
Width: 528
GlyphClass: 1
Flags: W
LayerCount: 3
Fore
SplineSet
237 31 m 2,0,1
 214 8 214 8 210 8 c 0,2,3
 209 8 209 8 189 30 c 2,4,-1
 108 118 l 2,5,6
 106 121 106 121 97 133 c 0,7,8
 85 146 85 146 82 146 c 0,9,10
 75 146 75 146 51 123 c 2,11,-1
 0 75 l 1,12,-1
 0 111 l 1,13,-1
 132 237 l 2,14,15
 155 258 155 258 161 258 c 0,16,17
 166 258 166 258 187 232 c 2,18,-1
 262 154 l 1,19,20
 272 135 272 135 282 135 c 0,21,22
 284 135 284 135 307 156 c 2,23,-1
 389 232 l 2,24,25
 413 254 413 254 414 254 c 0,26,27
 417 254 417 254 437 231 c 2,28,-1
 506 151 l 2,29,30
 507 149 507 149 519.5 136.5 c 128,-1,31
 532 124 532 124 535 124 c 0,32,33
 542 124 542 124 563 146 c 2,34,-1
 607 193 l 1,35,-1
 607 156 l 1,36,-1
 479 28 l 2,37,38
 458 7 458 7 451 7 c 0,39,40
 447 7 447 7 425 31 c 2,41,-1
 359 103 l 2,42,43
 358 105 358 105 349 115 c 128,-1,44
 340 125 340 125 337 125 c 0,45,46
 332 125 332 125 310 103 c 2,47,-1
 237 31 l 2,0,1
EndSplineSet
Validated: 1
EndChar

StartChar: n
Encoding: 61550 61550 79
Width: 198
GlyphClass: 1
Flags: W
LayerCount: 3
Fore
SplineSet
138 92 m 1,0,-1
 24 62 l 1,1,-1
 24 -95 l 1,2,-1
 138 -65 l 1,3,-1
 138 92 l 1,0,-1
24 158 m 1,4,-1
 164 196 l 1,5,-1
 164 -375 l 1,6,-1
 138 -375 l 1,7,-1
 138 -161 l 1,8,-1
 -1 -197 l 1,9,-1
 -1 381 l 1,10,-1
 24 381 l 1,11,-1
 24 158 l 1,4,-1
EndSplineSet
Validated: 1
EndChar

StartChar: o
Encoding: 61551 61551 80
Width: 190
GlyphClass: 1
Flags: W
LayerCount: 3
Fore
SplineSet
96 -95 m 0,0,1
 57 -95 57 -95 29 -67.5 c 128,-1,2
 1 -40 1 -40 1 0 c 0,3,4
 1 39 1 39 29 67 c 128,-1,5
 57 95 57 95 96 95 c 0,6,7
 134 95 134 95 162 67 c 128,-1,8
 190 39 190 39 190 0 c 0,9,10
 190 -40 190 -40 162 -67.5 c 128,-1,11
 134 -95 134 -95 96 -95 c 0,0,1
96 74 m 0,12,13
 65 74 65 74 42 52 c 128,-1,14
 19 30 19 30 19 0 c 0,15,16
 19 -31 19 -31 42 -53 c 128,-1,17
 65 -75 65 -75 96 -75 c 0,18,19
 126 -75 126 -75 148 -53 c 128,-1,20
 170 -31 170 -31 170 0 c 0,21,22
 170 30 170 30 148 52 c 128,-1,23
 126 74 126 74 96 74 c 0,12,13
EndSplineSet
Validated: 1
EndChar

StartChar: p
Encoding: 61552 61552 81
Width: 380
GlyphClass: 1
Flags: W
LayerCount: 3
Fore
SplineSet
298 207 m 0,0,1
 298 234 298 234 276 234 c 0,2,3
 251 234 251 234 224 209 c 128,-1,4
 197 184 197 184 186 155 c 0,5,6
 157 85 157 85 157 59 c 0,7,8
 157 49 157 49 165 33 c 0,9,10
 176 12 176 12 192 12 c 0,11,12
 222 12 222 12 262 101 c 0,13,14
 297 179 297 179 298 207 c 0,0,1
-23 130 m 1,15,16
 44 274 44 274 118 273 c 0,17,18
 141 273 141 273 152 266 c 0,19,20
 183 245 183 245 195 214 c 1,21,22
 207 230 207 230 228 246 c 0,23,24
 264 272 264 272 306 272 c 0,25,26
 367 272 367 272 380 183 c 0,27,28
 382 167 382 167 374 135 c 128,-1,29
 366 103 366 103 357 88 c 0,30,31
 293 -27 293 -27 208 -24 c 0,32,33
 187 -24 187 -24 160 -8 c 0,34,35
 154 -5 154 -5 131 18 c 1,36,-1
 65 -143 l 1,37,-1
 135 -149 l 1,38,-1
 135 -168 l 1,39,-1
 -126 -168 l 1,40,-1
 -126 -149 l 1,41,-1
 -40 -143 l 1,42,-1
 108 206 l 2,43,44
 109 210 109 210 109 214 c 0,45,46
 109 239 109 239 89 239 c 0,47,48
 64 239 64 239 27 190 c 0,49,50
 13 166 13 166 -11 128 c 0,51,52
 -12 128 -12 128 -23 130 c 1,15,16
401 190 m 1024,53,-1
EndSplineSet
Validated: 33
EndChar

StartChar: q
Encoding: 61553 61553 82
Width: 331
GlyphClass: 1
Flags: W
LayerCount: 3
Fore
SplineSet
4 130 m 0,0,1
 24 184 24 184 82.5 221 c 128,-1,2
 141 258 141 258 204 257 c 0,3,4
 266 257 266 257 297 219 c 1,5,-1
 297 1020 l 1,6,-1
 316 1020 l 1,7,-1
 316 170 l 2,8,9
 316 146 316 146 309 126 c 0,10,11
 289 73 289 73 230.5 36 c 128,-1,12
 172 -1 172 -1 109 -1 c 0,13,14
 58 0 58 0 27.5 26 c 128,-1,15
 -3 52 -3 52 -3 92 c 0,16,17
 -3 110 -3 110 4 130 c 0,0,1
EndSplineSet
Validated: 33
EndChar

StartChar: r
Encoding: 61554 61554 83
Width: 296
GlyphClass: 1
Flags: W
LayerCount: 3
Fore
SplineSet
295 -445 m 0,0,1
 292 -395 292 -395 279 -336 c 0,2,3
 274 -316 274 -316 256 -273 c 1,4,5
 266 -253 266 -253 284 -196 c 0,6,7
 295 -148 295 -148 290 -112 c 0,8,9
 275 1 275 1 208 63 c 0,10,11
 172 91 172 91 98 159 c 0,12,13
 79 179 79 179 55 205 c 0,14,15
 43 219 43 219 26 251 c 1,16,17
 18 276 18 276 18 297 c 1,18,-1
 0 297 l 1,19,-1
 0 -116 l 1,20,21
 10 -116 10 -116 20 -115 c 1,22,23
 57 -130 57 -130 143 -178 c 1,24,25
 217 -228 217 -228 250 -326 c 0,26,27
 277 -405 277 -405 280 -458 c 0,28,29
 282 -513 282 -513 250 -593 c 1,30,-1
 264 -596 l 1,31,32
 275 -563 275 -563 286 -530 c 0,33,34
 298 -488 298 -488 295 -445 c 0,0,1
270 -179 m 0,35,36
 266 -217 266 -217 248 -252 c 1,37,38
 228 -211 228 -211 213 -190 c 0,39,40
 185 -152 185 -152 76 -30 c 0,41,42
 39 11 39 11 36 15 c 0,43,44
 22 35 22 35 19 66 c 0,45,46
 19 71 19 71 18 80 c 1,47,48
 75 77 75 77 121 52 c 0,49,50
 234 -8 234 -8 264 -112 c 1,51,-1
 267 -121 l 2,52,53
 273 -142 273 -142 273 -151 c 0,54,55
 271 -165 271 -165 270 -179 c 0,35,36
EndSplineSet
Validated: 41
EndChar

StartChar: s
Encoding: 61555 61555 84
Width: 246
GlyphClass: 1
Flags: W
LayerCount: 3
Fore
SplineSet
220 217 m 0,0,1
 220 184 220 184 188 185 c 0,2,3
 165 185 165 185 162.5 200.5 c 128,-1,4
 160 216 160 216 159 232 c 0,5,6
 157 254 157 254 133 254 c 0,7,8
 115 254 115 254 101.5 241.5 c 128,-1,9
 88 229 88 229 88 207 c 0,10,11
 88 178 88 178 120 165 c 0,12,13
 149 153 149 153 178 140 c 1,14,15
 210 119 210 119 210 72 c 0,16,17
 210 32 210 32 171 2 c 0,18,19
 136 -25 136 -25 99 -25 c 0,20,21
 69 -25 69 -25 41 -9 c 0,22,23
 6 11 6 11 6 45 c 0,24,25
 6 94 6 94 43 94 c 0,26,27
 58 94 58 94 66 80 c 0,28,29
 73 70 73 70 73 59 c 0,30,31
 73 50 73 50 61 26 c 1,32,33
 81 6 81 6 94 6 c 0,34,35
 117 6 117 6 138.5 22 c 128,-1,36
 160 38 160 38 160 61 c 0,37,38
 160 82 160 82 129.5 98.5 c 128,-1,39
 99 115 99 115 70 131 c 0,40,41
 38 154 38 154 38 190 c 0,42,43
 38 228 38 228 76 256 c 0,44,45
 110 282 110 282 147 282 c 0,46,47
 177 282 177 282 198.5 262 c 128,-1,48
 220 242 220 242 220 217 c 0,0,1
EndSplineSet
Validated: 33
EndChar

StartChar: t
Encoding: 61556 61556 85
Width: 720
GlyphClass: 1
Flags: W
LayerCount: 3
Fore
SplineSet
289 -916 m 0,0,1
 243 -915 243 -915 215 -893 c 128,-1,2
 187 -871 187 -871 187 -840 c 0,3,4
 186 -790 186 -790 243 -763 c 1,5,6
 197 -738 197 -738 197 -699 c 0,7,8
 198 -662 198 -662 225 -638 c 128,-1,9
 252 -614 252 -614 291 -614 c 0,10,11
 325 -615 325 -615 351.5 -637.5 c 128,-1,12
 378 -660 378 -660 377 -694 c 0,13,14
 376 -730 376 -730 337 -753 c 1,15,16
 389 -786 389 -786 388 -833 c 0,17,18
 388 -868 388 -868 357.5 -892 c 128,-1,19
 327 -916 327 -916 289 -916 c 0,0,1
291 -633 m 0,20,21
 268 -632 268 -632 254 -645.5 c 128,-1,22
 240 -659 240 -659 240 -679 c 0,23,24
 239 -708 239 -708 289 -729 c 2,25,-1
 315 -739 l 1,26,27
 344 -727 344 -727 344 -691 c 0,28,29
 345 -670 345 -670 329 -652 c 128,-1,30
 313 -634 313 -634 291 -633 c 0,20,21
293 -789 m 2,31,-1
 268 -777 l 1,32,33
 250 -781 250 -781 238 -798.5 c 128,-1,34
 226 -816 226 -816 225 -837 c 0,35,36
 225 -860 225 -860 244 -878.5 c 128,-1,37
 263 -897 263 -897 289 -898 c 0,38,39
 340 -898 340 -898 341 -846 c 0,40,41
 342 -811 342 -811 293 -789 c 2,31,-1
529 -200 m 0,42,43
 498 -272 498 -272 477 -302 c 0,44,45
 455 -337 455 -337 379 -423 c 0,46,47
 355 -452 355 -452 293 -489 c 128,-1,48
 231 -526 231 -526 173 -546 c 0,49,50
 104 -569 104 -569 12 -586 c 1,51,-1
 5 -571 l 1,52,53
 56 -554 56 -554 100 -534 c 0,54,55
 205 -487 205 -487 257 -432 c 0,56,57
 425 -257 425 -257 420 -7 c 0,58,59
 419 77 419 77 391 136 c 0,60,61
 351 221 351 221 268 221 c 0,62,63
 209 221 209 221 155 180 c 0,64,65
 96 136 96 136 101 82 c 0,66,67
 102 79 102 79 105 79 c 2,68,69
 105 79 105 79 132.5 86 c 128,-1,70
 160 93 160 93 186 92 c 0,71,72
 221 91 221 91 244 58 c 0,73,74
 265 29 265 29 265 -11 c 0,75,76
 265 -54 265 -54 240.5 -82 c 128,-1,77
 216 -110 216 -110 172 -110 c 0,78,79
 121 -110 121 -110 86 -77 c 0,80,81
 48 -43 48 -43 48 12 c 0,82,83
 45 152 45 152 159 215 c 0,84,85
 221 249 221 249 296 250 c 0,86,87
 373 252 373 252 446 201.5 c 128,-1,88
 519 151 519 151 547 73 c 0,89,90
 563 30 563 30 563 -28 c 0,91,92
 563 -124 563 -124 529 -200 c 0,42,43
603 123 m 0,93,94
 602 146 602 146 618 161 c 128,-1,95
 634 176 634 176 657 177 c 0,96,97
 680 177 680 177 696.5 162.5 c 128,-1,98
 713 148 713 148 713 125 c 0,99,100
 714 102 714 102 697.5 85.5 c 128,-1,101
 681 69 681 69 659 69 c 0,102,103
 636 68 636 68 619.5 84 c 128,-1,104
 603 100 603 100 603 123 c 0,93,94
603 -129 m 0,105,106
 603 -107 603 -107 619 -91.5 c 128,-1,107
 635 -76 635 -76 658 -75 c 0,108,109
 681 -75 681 -75 697 -90 c 128,-1,110
 713 -105 713 -105 714 -127 c 0,111,112
 714 -150 714 -150 698 -166.5 c 128,-1,113
 682 -183 682 -183 660 -183 c 0,114,115
 637 -184 637 -184 620.5 -168 c 128,-1,116
 604 -152 604 -152 603 -129 c 0,105,106
EndSplineSet
Validated: 33
EndChar

StartChar: u
Encoding: 61557 61557 86
Width: 664
GlyphClass: 1
Flags: W
LayerCount: 3
Fore
SplineSet
1 2 m 1,0,1
 8 1 8 1 17 2 c 1,2,3
 85 -247 85 -247 332 -247 c 0,4,5
 581 -247 581 -247 648 2 c 1,6,-1
 663 2 l 1,7,8
 663 -132 663 -132 566 -251 c 0,9,10
 463 -377 463 -377 332 -377 c 256,11,12
 201 -377 201 -377 99 -251 c 0,13,14
 1 -132 1 -132 1 2 c 1,0,1
258 -51 m 0,15,16
 258 -20 258 -20 279.5 1.5 c 128,-1,17
 301 23 301 23 331 23 c 0,18,19
 362 23 362 23 383.5 1.5 c 128,-1,20
 405 -20 405 -20 405 -51 c 0,21,22
 405 -81 405 -81 383.5 -102.5 c 128,-1,23
 362 -124 362 -124 331 -124 c 0,24,25
 301 -124 301 -124 279.5 -102.5 c 128,-1,26
 258 -81 258 -81 258 -51 c 0,15,16
EndSplineSet
Validated: 1
EndChar

StartChar: v
Encoding: 61558 61558 87
Width: 226
GlyphClass: 1
Flags: W
LayerCount: 3
Fore
SplineSet
118 -11 m 1,0,-1
 -1 238 l 1,1,-1
 88 238 l 1,2,-1
 143 115 l 1,3,-1
 199 236 l 1,4,-1
 225 236 l 1,5,-1
 118 -11 l 1,0,-1
EndSplineSet
Validated: 1
EndChar

StartChar: w
Encoding: 61559 61559 88
Width: 421
GlyphClass: 1
Flags: W
LayerCount: 3
Fore
SplineSet
0 3 m 0,0,1
 -4 55 -4 55 54.5 94.5 c 128,-1,2
 113 134 113 134 196 134 c 0,3,4
 286 133 286 133 347 100 c 0,5,6
 414 64 414 64 420 -2 c 0,7,8
 425 -54 425 -54 366.5 -93 c 128,-1,9
 308 -132 308 -132 225 -132 c 0,10,11
 134 -131 134 -131 74 -99 c 0,12,13
 6 -62 6 -62 0 3 c 0,0,1
125 22 m 0,14,15
 144 -109 144 -109 223 -109 c 0,16,17
 258 -109 258 -109 279.5 -82 c 128,-1,18
 301 -55 301 -55 297 -26 c 0,19,20
 277 106 277 106 195 106 c 0,21,22
 161 106 161 106 140.5 79 c 128,-1,23
 120 52 120 52 125 22 c 0,14,15
EndSplineSet
Validated: 33
EndChar

StartChar: x
Encoding: 61560 61560 89
Width: 603
GlyphClass: 1
Flags: W
LayerCount: 3
Fore
SplineSet
597 256 m 1,0,1
 601 184 601 184 565 106 c 1,2,-1
 554 111 l 1,3,4
 584 186 584 186 582 243 c 0,5,6
 579 297 579 297 552 376 c 0,7,8
 521 468 521 468 445 520 c 0,9,10
 400 552 400 552 319 581 c 1,11,-1
 319 167 l 2,12,13
 319 148 319 148 312 127 c 0,14,15
 292 74 292 74 233.5 37 c 128,-1,16
 175 0 175 0 112 0 c 0,17,18
 61 1 61 1 30.5 27 c 128,-1,19
 0 53 0 53 0 93 c 0,20,21
 0 111 0 111 7 131 c 0,22,23
 27 185 27 185 85.5 222 c 128,-1,24
 144 259 144 259 207 258 c 0,25,26
 269 258 269 258 300 220 c 1,27,-1
 300 979 l 1,28,-1
 319 979 l 1,29,30
 319 933 319 933 339 908 c 0,31,32
 343 903 343 903 385 869 c 0,33,34
 467 804 467 804 523 729 c 0,35,36
 555 686 555 686 564 672 c 0,37,38
 580 644 580 644 589 609 c 0,39,40
 602 556 602 556 589 505 c 0,41,42
 576 458 576 458 558 428 c 1,43,44
 566 408 566 408 580 365 c 0,45,46
 587 337 587 337 597 256 c 1,0,1
574 519 m 0,47,48
 577 551 577 551 577 552 c 0,49,50
 577 560 577 560 569 586 c 0,51,52
 538 690 538 690 426 750 c 0,53,54
 380 775 380 775 323 778 c 1,55,-1
 323 778 l 1,56,57
 323 773 323 773 324 764 c 0,58,59
 327 733 327 733 341 713 c 0,60,61
 343 709 343 709 381 668 c 0,62,63
 414 632 414 632 447 596 c 0,64,65
 487 551 487 551 518 508 c 0,66,67
 533 487 533 487 552 446 c 1,68,69
 571 481 571 481 574 519 c 0,47,48
300 709 m 1024,70,-1
EndSplineSet
Validated: 33
EndChar

StartChar: y
Encoding: 61561 61561 90
Width: 299
GlyphClass: 1
Flags: W
LayerCount: 3
Fore
SplineSet
299 -130 m 1,0,-1
 -6 -130 l 1,1,-1
 146 133 l 1,2,-1
 299 -130 l 1,0,-1
146 83 m 1,3,-1
 37 -106 l 1,4,-1
 256 -106 l 1,5,-1
 146 83 l 1,3,-1
EndSplineSet
Validated: 1
EndChar

StartChar: z
Encoding: 61562 61562 91
Width: 294
GlyphClass: 1
Flags: W
LayerCount: 3
Fore
SplineSet
231 103 m 0,0,1
 249 80 249 80 249 56 c 0,2,3
 249 24 249 24 220 -0.5 c 128,-1,4
 191 -25 191 -25 157 -27 c 0,5,6
 134 -29 134 -29 106.5 -13.5 c 128,-1,7
 79 2 79 2 69 2 c 0,8,9
 36 2 36 2 12 -13 c 1,10,-1
 -1 -1 l 1,11,12
 89 86 89 86 209 194 c 1,13,14
 166 195 166 195 114 194 c 0,15,16
 93 190 93 190 78 165 c 1,17,-1
 70 173 l 1,18,-1
 116 257 l 1,19,-1
 302 257 l 1,20,-1
 295 239 l 1,21,-1
 83 50 l 1,22,23
 95 51 95 51 105 51 c 0,24,25
 132 51 132 51 154 40 c 0,26,27
 167 33 167 33 179 27 c 0,28,29
 194 23 194 23 205 28 c 128,-1,30
 216 33 216 33 212 48 c 1,31,32
 197 47 197 47 188.5 59.5 c 128,-1,33
 180 72 180 72 180 87 c 0,34,35
 180 115 180 115 209 115 c 0,36,37
 222 115 222 115 231 103 c 0,0,1
EndSplineSet
Validated: 33
EndChar

StartChar: braceleft
Encoding: 61563 61563 92
Width: 364
GlyphClass: 1
Flags: W
LayerCount: 3
Fore
SplineSet
365 0 m 0,0,1
 365 -127 365 -127 279 -184 c 1,2,-1
 276 -177 l 1,3,4
 335 -116 335 -116 335 0 c 0,5,6
 335 57 335 57 326 90 c 0,7,8
 313 138 313 138 276 177 c 1,9,-1
 279 184 l 1,10,11
 309 167 309 167 335 119 c 0,12,13
 365 63 365 63 365 0 c 0,0,1
89 -177 m 1,14,-1
 86 -184 l 1,15,16
 0 -126 0 -126 0 0 c 0,17,18
 0 63 0 63 29 117 c 0,19,20
 53 163 53 163 86 184 c 1,21,-1
 89 177 l 1,22,23
 52 138 52 138 39 90 c 0,24,25
 30 57 30 57 30 0 c 0,26,27
 30 -116 30 -116 89 -177 c 1,14,-1
152 325 m 1,28,-1
 152 80 l 1,29,30
 186 112 186 112 222 112 c 0,31,32
 272 112 272 112 274 51 c 0,33,34
 275 32 275 32 265 7 c 0,35,36
 258 -11 258 -11 237 -33 c 1,37,38
 180 -72 180 -72 123 -112 c 1,39,-1
 123 325 l 1,40,-1
 152 325 l 1,28,-1
208 64 m 0,41,42
 199 74 199 74 186 74 c 0,43,44
 169 74 169 74 159 54 c 0,45,46
 152 39 152 39 152 -12 c 2,47,-1
 152 -75 l 1,48,49
 166 -64 166 -64 191 -39 c 0,50,51
 211 -19 211 -19 218 9 c 0,52,53
 226 43 226 43 208 64 c 0,41,42
EndSplineSet
Validated: 33
EndChar

StartChar: bar
Encoding: 61564 61564 93
Width: 507
GlyphClass: 1
Flags: W
LayerCount: 3
Fore
SplineSet
254 0 m 1,0,-1
 0 254 l 1,1,-1
 254 507 l 1,2,-1
 507 254 l 1,3,-1
 254 0 l 1,0,-1
451 229 m 1,4,-1
 229 451 l 1,5,-1
 56 278 l 1,6,-1
 278 56 l 1,7,-1
 451 229 l 1,4,-1
EndSplineSet
Validated: 1
EndChar

StartChar: braceright
Encoding: 61565 61565 94
Width: 589
GlyphClass: 1
Flags: W
LayerCount: 3
Fore
SplineSet
589 0 m 0,0,1
 589 -72 589 -72 560 -136 c 0,2,3
 533 -194 533 -194 498 -213 c 1,4,-1
 495 -205 l 1,5,6
 559 -135 559 -135 559 0 c 256,7,8
 559 135 559 135 495 204 c 1,9,-1
 498 212 l 1,10,11
 532 194 532 194 560.5 130 c 128,-1,12
 589 66 589 66 589 0 c 0,0,1
94 -205 m 1,13,-1
 91 -213 l 1,14,15
 56 -194 56 -194 29 -136 c 0,16,17
 0 -72 0 -72 0 0 c 0,18,19
 0 66 0 66 28.5 130 c 128,-1,20
 57 194 57 194 91 212 c 1,21,-1
 94 204 l 1,22,23
 30 134 30 134 30 0 c 0,24,25
 30 -135 30 -135 94 -205 c 1,13,-1
EndSplineSet
Validated: 1
EndChar

StartChar: asciitilde
Encoding: 61566 61566 95
Width: 286
GlyphClass: 1
Flags: W
LayerCount: 3
Fore
SplineSet
39 81 m 0,0,1
 23 81 23 81 1 73 c 0,2,3
 -26 63 -26 63 -53 49 c 1,4,-1
 -62 54 l 1,5,6
 -40 79 -40 79 0 119 c 1,7,8
 56 167 56 167 90 167 c 0,9,10
 129 167 129 167 166 136.5 c 128,-1,11
 203 106 203 106 233 106 c 0,12,13
 248 106 248 106 271 114 c 0,14,15
 298 123 298 123 325 137 c 1,16,-1
 334 131 l 1,17,18
 312 107 312 107 271 67 c 0,19,20
 216 20 216 20 181 20 c 0,21,22
 142 20 142 20 105 50.5 c 128,-1,23
 68 81 68 81 39 81 c 0,0,1
EndSplineSet
Validated: 1
EndChar

StartChar: Aring
Encoding: 61569 61569 96
Width: 452
GlyphClass: 1
Flags: W
LayerCount: 3
Fore
SplineSet
235 35 m 1,0,1
 248 41 248 41 265 58 c 1,2,3
 269 69 269 69 272.5 92.5 c 128,-1,4
 276 116 276 116 274 125 c 1,5,-1
 355 129 l 1,6,-1
 351 44 l 1,7,8
 347 46 347 46 328 44 c 0,9,10
 304 43 304 43 285 33 c 0,11,12
 275 29 275 29 270.5 22 c 128,-1,13
 266 15 266 15 261 8 c 1,14,-1
 261 -7 l 1,15,16
 272 -26 272 -26 284 -31 c 128,-1,17
 296 -36 296 -36 318.5 -39.5 c 128,-1,18
 341 -43 341 -43 351 -40 c 1,19,-1
 355 -124 l 1,20,-1
 270 -118 l 1,21,22
 270 -102 270 -102 269 -86 c 0,23,24
 269 -73 269 -73 260 -55 c 0,25,26
 256 -45 256 -45 235 -29 c 1,27,-1
 221 -29 l 1,28,29
 203 -39 203 -39 196 -55 c 0,30,31
 180 -91 180 -91 187 -118 c 1,32,-1
 103 -124 l 1,33,-1
 109 -38 l 1,34,35
 113 -39 113 -39 130 -38 c 0,36,37
 153 -37 153 -37 172 -27 c 0,38,39
 188 -20 188 -20 199 -7 c 1,40,-1
 199 8 l 1,41,42
 185 32 185 32 172 37 c 0,43,44
 136 53 136 53 109 46 c 1,45,-1
 103 129 l 1,46,-1
 190 125 l 1,47,48
 188 121 188 121 190 103 c 0,49,50
 191 80 191 80 199.5 62.5 c 128,-1,51
 208 45 208 45 221 35 c 1,52,-1
 235 35 l 1,0,1
452 0 m 0,53,54
 452 -72 452 -72 422 -136 c 0,55,56
 395 -194 395 -194 360 -213 c 1,57,-1
 357 -205 l 1,58,59
 421 -135 421 -135 421 0 c 256,60,61
 421 135 421 135 357 204 c 1,62,-1
 360 212 l 1,63,64
 394 194 394 194 423 130 c 128,-1,65
 452 66 452 66 452 0 c 0,53,54
96 -205 m 1,66,-1
 93 -213 l 1,67,68
 58 -194 58 -194 31 -136 c 0,69,70
 2 -72 2 -72 2 0 c 0,71,72
 2 66 2 66 30.5 130 c 128,-1,73
 59 194 59 194 93 212 c 1,74,-1
 96 204 l 1,75,76
 32 134 32 134 32 0 c 0,77,78
 32 -135 32 -135 96 -205 c 1,66,-1
EndSplineSet
Validated: 33
EndChar

StartChar: Ccedilla
Encoding: 61570 61570 97
Width: 909
GlyphClass: 1
Flags: W
LayerCount: 3
Fore
SplineSet
214 217 m 0,0,1
 214 184 214 184 182 185 c 0,2,3
 159 185 159 185 156.5 200.5 c 128,-1,4
 154 216 154 216 153 232 c 0,5,6
 151 254 151 254 127 254 c 0,7,8
 109 254 109 254 95.5 241.5 c 128,-1,9
 82 229 82 229 82 207 c 0,10,11
 82 178 82 178 114 165 c 0,12,13
 143 153 143 153 172 140 c 1,14,15
 204 119 204 119 204 72 c 0,16,17
 204 32 204 32 168 3 c 0,18,19
 135 -22 135 -22 98 -22 c 0,20,21
 67 -22 67 -22 38 -8 c 0,22,23
 0 11 0 11 0 45 c 0,24,25
 0 94 0 94 37 94 c 0,26,27
 52 94 52 94 60 80 c 0,28,29
 67 70 67 70 67 59 c 0,30,31
 67 50 67 50 55 26 c 1,32,33
 75 6 75 6 88 6 c 0,34,35
 111 6 111 6 132.5 22 c 128,-1,36
 154 38 154 38 154 61 c 0,37,38
 154 82 154 82 123.5 98.5 c 128,-1,39
 93 115 93 115 64 131 c 0,40,41
 32 154 32 154 32 190 c 0,42,43
 32 228 32 228 70 256 c 0,44,45
 104 282 104 282 141 282 c 0,46,47
 171 282 171 282 192.5 262 c 128,-1,48
 214 242 214 242 214 217 c 0,0,1
626 388 m 0,49,50
 626 364 626 364 609 342 c 128,-1,51
 592 320 592 320 566 320 c 0,52,53
 532 320 532 320 532 358 c 0,54,55
 532 374 532 374 551 388 c 0,56,57
 578 409 578 409 584 417 c 1,58,59
 584 431 584 431 564 431 c 0,60,61
 507 431 507 431 477 348 c 0,62,63
 467 321 467 321 451 261 c 1,64,65
 451 261 451 261 546 261 c 1,66,-1
 546 240 l 1,67,68
 446 241 446 241 445 240 c 0,69,70
 433 197 433 197 415 139 c 0,71,72
 402 99 402 99 368 6 c 1,73,74
 333 -77 333 -77 267 -143 c 0,75,76
 220 -190 220 -190 154 -190 c 0,77,78
 134 -190 134 -190 112.5 -167 c 128,-1,79
 91 -144 91 -144 91 -119 c 256,80,81
 91 -94 91 -94 105 -73 c 128,-1,82
 119 -52 119 -52 145 -52 c 0,83,84
 187 -52 187 -52 187 -99 c 1,85,86
 182 -124 182 -124 163.5 -137.5 c 128,-1,87
 145 -151 145 -151 145 -153 c 0,88,89
 153 -162 153 -162 158 -162 c 0,90,91
 217 -162 217 -162 270 31 c 0,92,93
 287 93 287 93 328 240 c 1,94,-1
 243 240 l 1,95,-1
 243 261 l 1,96,-1
 337 261 l 1,97,98
 354 303 354 303 389 355 c 0,99,100
 455 454 455 454 566 453 c 0,101,102
 589 453 589 453 607.5 434 c 128,-1,103
 626 415 626 415 626 388 c 0,49,50
822 207 m 0,104,105
 823 234 823 234 801 234 c 0,106,107
 775 234 775 234 748.5 209 c 128,-1,108
 722 184 722 184 710 155 c 0,109,110
 682 85 682 85 682 60 c 0,111,112
 682 49 682 49 690 33 c 0,113,114
 701 13 701 13 717 13 c 0,115,116
 747 13 747 13 787 101 c 0,117,118
 822 179 822 179 822 207 c 0,104,105
502 130 m 1,119,120
 569 274 569 274 642 273 c 0,121,122
 666 273 666 273 677 266 c 0,123,124
 708 245 708 245 719 214 c 1,125,126
 732 230 732 230 753 246 c 0,127,128
 789 272 789 272 831 272 c 0,129,130
 892 272 892 272 904 183 c 0,131,132
 906 167 906 167 898.5 135 c 128,-1,133
 891 103 891 103 882 88 c 0,134,135
 818 -27 818 -27 749 -24 c 0,136,137
 710 -23 710 -23 685 -8 c 0,138,139
 678 -5 678 -5 656 18 c 1,140,-1
 590 -143 l 1,141,-1
 659 -149 l 1,142,-1
 659 -168 l 1,143,-1
 399 -168 l 1,144,-1
 399 -149 l 1,145,-1
 484 -143 l 1,146,-1
 632 206 l 2,147,148
 634 210 634 210 634 214 c 0,149,150
 634 240 634 240 614 240 c 0,151,152
 589 240 589 240 552 190 c 0,153,154
 537 166 537 166 513 128 c 1,155,156
 513 128 513 128 502 130 c 1,119,120
EndSplineSet
Validated: 33
EndChar

StartChar: Eacute
Encoding: 61571 61571 98
Width: 376
GlyphClass: 1
Flags: W
LayerCount: 3
Fore
SplineSet
210 282 m 0,0,1
 166 274 166 274 166 225 c 0,2,3
 166 205 166 205 176 187 c 0,4,5
 193 154 193 154 230 123 c 0,6,7
 236 118 236 118 253 105 c 1,8,9
 284 110 284 110 303.5 137.5 c 128,-1,10
 323 165 323 165 323 198 c 0,11,12
 323 236 323 236 298.5 260 c 128,-1,13
 274 284 274 284 235 284 c 0,14,15
 223 284 223 284 210 282 c 0,0,1
222 303 m 0,16,17
 251 304 251 304 286 294.5 c 128,-1,18
 321 285 321 285 336 269 c 0,19,20
 366 237 366 237 366 193 c 0,21,22
 366 152 366 152 341.5 119.5 c 128,-1,23
 317 87 317 87 278 74 c 1,24,25
 316 21 316 21 316 -29 c 0,26,27
 316 -84 316 -84 272 -118 c 128,-1,28
 228 -152 228 -152 184 -153 c 0,29,30
 98 -155 98 -155 49 -118.5 c 128,-1,31
 0 -82 0 -82 0 -28 c 0,32,33
 0 -11 0 -11 6 6 c 0,34,35
 24 64 24 64 122 107 c 1,36,37
 93 135 93 135 85 176 c 0,38,39
 77 218 77 218 108 259 c 0,40,41
 127 283 127 283 150.5 292 c 128,-1,42
 174 301 174 301 222 303 c 0,16,17
148 74 m 1,43,44
 117 70 117 70 93.5 48.5 c 128,-1,45
 70 27 70 27 62 0 c 0,46,47
 56 -20 56 -20 56 -45 c 0,48,49
 56 -87 56 -87 75 -104 c 0,50,51
 110 -134 110 -134 150 -134 c 0,52,53
 183 -134 183 -134 209.5 -115 c 128,-1,54
 236 -96 236 -96 236 -67 c 0,55,56
 236 -32 236 -32 198 19 c 0,57,58
 165 64 165 64 148 74 c 1,43,44
EndSplineSet
Validated: 33
EndChar

StartChar: Ntilde
Encoding: 61572 61572 99
Width: 252
GlyphClass: 1
Flags: W
LayerCount: 3
Fore
SplineSet
143 -19 m 1,0,-1
 143 -128 l 1,1,-1
 108 -128 l 1,2,-1
 108 -19 l 1,3,-1
 -1 -19 l 1,4,-1
 -1 16 l 1,5,-1
 108 16 l 1,6,-1
 108 125 l 1,7,-1
 143 125 l 1,8,-1
 143 16 l 1,9,-1
 252 16 l 1,10,-1
 252 -19 l 1,11,-1
 143 -19 l 1,0,-1
EndSplineSet
Validated: 1
EndChar

StartChar: Odieresis
Encoding: 61573 61573 100
Width: 265
GlyphClass: 1
Flags: W
LayerCount: 3
Fore
SplineSet
29 -3 m 1,0,-1
 0 358 l 1,1,-1
 36 358 l 1,2,-1
 54 117 l 1,3,-1
 235 513 l 1,4,-1
 266 513 l 1,5,-1
 29 -3 l 1,0,-1
EndSplineSet
Validated: 1
EndChar

StartChar: Udieresis
Encoding: 61574 61574 101
Width: 633
GlyphClass: 1
Flags: W
LayerCount: 3
Fore
SplineSet
602 304 m 1,0,-1
 557 223 l 1,1,-1
 366 223 l 1,2,-1
 340 174 l 1,3,4
 378 162 378 162 452 130 c 1,5,6
 527 88 527 88 527 22 c 0,7,8
 527 -16 527 -16 498.5 -62.5 c 128,-1,9
 470 -109 470 -109 435.5 -129 c 128,-1,10
 401 -149 401 -149 376.5 -156 c 128,-1,11
 352 -163 352 -163 310 -163 c 0,12,13
 274 -162 274 -162 246 -147 c 0,14,15
 214 -130 214 -130 220 -104 c 0,16,17
 226 -80 226 -80 257 -80 c 0,18,19
 277 -80 277 -80 294 -111 c 128,-1,20
 311 -142 311 -142 334 -140 c 0,21,22
 381 -137 381 -137 422 -97.5 c 128,-1,23
 463 -58 463 -58 463 -11 c 0,24,25
 463 32 463 32 408 64 c 0,26,27
 369 87 369 87 279 113 c 1,28,-1
 381 290 l 1,29,-1
 544 290 l 2,30,31
 569 290 569 290 580 297 c 0,32,33
 587 301 587 301 600 307 c 1,34,-1
 602 304 l 1,0,-1
206 -154 m 1,35,-1
 1 -154 l 1,36,-1
 7 -141 l 1,37,-1
 48 -124 l 2,38,39
 66 -116 66 -116 74 -106 c 0,40,41
 81 -99 81 -99 86 -75 c 2,42,-1
 146 198 l 2,43,44
 151 224 151 224 148 227 c 0,45,46
 144 232 144 232 117 225 c 2,47,-1
 81 216 l 1,48,-1
 79 227 l 1,49,-1
 240 295 l 1,50,-1
 154 -80 l 2,51,52
 149 -101 149 -101 153 -111 c 0,53,54
 159 -125 159 -125 171 -129 c 2,55,-1
 209 -142 l 1,56,-1
 206 -154 l 1,35,-1
EndSplineSet
Validated: 33
EndChar

StartChar: aacute
Encoding: 61575 61575 102
Width: 444
GlyphClass: 1
Flags: W
LayerCount: 3
Fore
SplineSet
141 26 m 0,0,1
 150 -38 150 -38 168 -67 c 0,2,3
 191 -106 191 -106 236 -106 c 0,4,5
 270 -106 270 -106 290 -79 c 128,-1,6
 310 -52 310 -52 305 -22 c 0,7,8
 286 110 286 110 207 110 c 0,9,10
 174 110 174 110 155 83 c 128,-1,11
 136 56 136 56 141 26 c 0,0,1
-1 249 m 1,12,-1
 29 249 l 1,13,-1
 29 61 l 1,14,15
 52 95 52 95 101 116.5 c 128,-1,16
 150 138 150 138 209 137 c 0,17,18
 361 137 361 137 414 56 c 1,19,-1
 414 249 l 1,20,-1
 444 249 l 1,21,-1
 444 -246 l 1,22,-1
 414 -246 l 1,23,-1
 414 -57 l 1,24,25
 390 -89 390 -89 342.5 -109 c 128,-1,26
 295 -129 295 -129 237 -129 c 0,27,28
 79 -128 79 -128 29 -42 c 1,29,-1
 29 -246 l 1,30,-1
 -1 -246 l 1,31,-1
 -1 249 l 1,12,-1
EndSplineSet
Validated: 33
EndChar

StartChar: agrave
Encoding: 61576 61576 103
Width: 183
GlyphClass: 1
Flags: W
LayerCount: 3
Fore
SplineSet
146 226 m 0,0,1
 146 211 146 211 135 200.5 c 128,-1,2
 124 190 124 190 109 190 c 256,3,4
 94 190 94 190 83 200.5 c 128,-1,5
 72 211 72 211 72 226 c 0,6,7
 72 240 72 240 83 250.5 c 128,-1,8
 94 261 94 261 109 261 c 256,9,10
 124 261 124 261 135 250.5 c 128,-1,11
 146 240 146 240 146 226 c 0,0,1
110 77 m 256,12,13
 110 62 110 62 99.5 51.5 c 128,-1,14
 89 41 89 41 74 41 c 0,15,16
 58 41 58 41 47.5 51.5 c 128,-1,17
 37 62 37 62 37 77 c 256,18,19
 37 92 37 92 47.5 102.5 c 128,-1,20
 58 113 58 113 74 113 c 0,21,22
 89 113 89 113 99.5 102.5 c 128,-1,23
 110 92 110 92 110 77 c 256,12,13
EndSplineSet
Validated: 1
EndChar

StartChar: acircumflex
Encoding: 61577 61577 104
Width: 396
GlyphClass: 1
Flags: W
LayerCount: 3
Fore
SplineSet
3 275 m 1,0,-1
 3 236 l 1,1,-1
 301 138 l 1,2,-1
 3 40 l 1,3,-1
 3 1 l 1,4,-1
 400 138 l 1,5,-1
 3 275 l 1,0,-1
13 314 m 1,6,-1
 377 314 l 1,7,-1
 377 346 l 1,8,-1
 13 346 l 1,9,-1
 13 314 l 1,6,-1
EndSplineSet
Validated: 9
EndChar

StartChar: adieresis
Encoding: 61578 61578 105
Width: 396
GlyphClass: 1
Flags: W
LayerCount: 3
Fore
SplineSet
2 71 m 1,0,-1
 2 110 l 1,1,-1
 299 208 l 1,2,-1
 2 306 l 1,3,-1
 2 345 l 1,4,-1
 399 208 l 1,5,-1
 2 71 l 1,0,-1
12 32 m 1,6,-1
 376 32 l 1,7,-1
 376 0 l 1,8,-1
 12 0 l 1,9,-1
 12 32 l 1,6,-1
EndSplineSet
Validated: 1
EndChar

StartChar: atilde
Encoding: 61579 61579 106
Width: 322
GlyphClass: 1
Flags: W
LayerCount: 3
Fore
SplineSet
0 -5 m 1,0,-1
 0 505 l 1,1,-1
 131 505 l 1,2,-1
 131 -5 l 1,3,-1
 0 -5 l 1,0,-1
193 -5 m 1,4,-1
 193 505 l 1,5,-1
 323 505 l 1,6,-1
 323 -5 l 1,7,-1
 193 -5 l 1,4,-1
EndSplineSet
Validated: 1
EndChar

StartChar: aring
Encoding: 61580 61580 107
Width: 638
GlyphClass: 1
Flags: W
LayerCount: 3
Fore
SplineSet
638 0 m 0,0,1
 638 -72 638 -72 609 -136 c 0,2,3
 582 -194 582 -194 547 -213 c 1,4,-1
 543 -205 l 1,5,6
 608 -135 608 -135 608 0 c 256,7,8
 608 135 608 135 543 204 c 1,9,-1
 547 212 l 1,10,11
 581 194 581 194 609.5 130 c 128,-1,12
 638 66 638 66 638 0 c 0,0,1
95 -205 m 1,13,-1
 92 -213 l 1,14,15
 56 -194 56 -194 30 -136 c 0,16,17
 0 -72 0 -72 0 0 c 0,18,19
 0 66 0 66 28.5 130 c 128,-1,20
 57 194 57 194 92 212 c 1,21,-1
 95 204 l 1,22,23
 30 134 30 134 30 0 c 0,24,25
 30 -135 30 -135 95 -205 c 1,13,-1
151 433 m 1,26,-1
 151 113 l 1,27,28
 196 154 196 154 252 155 c 0,29,30
 287 155 287 155 312 126 c 0,31,32
 334 99 334 99 335 66 c 0,33,34
 336 40 336 40 322 6 c 0,35,36
 317 -8 317 -8 300 -24 c 0,37,38
 287 -36 287 -36 273 -49 c 0,39,40
 199 -103 199 -103 125 -158 c 1,41,-1
 125 433 l 1,42,-1
 151 433 l 1,26,-1
232 91 m 0,43,44
 219 105 219 105 200 105 c 0,45,46
 177 105 177 105 162 78 c 0,47,48
 151 57 151 57 151 -21 c 2,49,-1
 151 -107 l 2,50,51
 152 -111 152 -111 207 -58 c 0,52,53
 236 -30 236 -30 246 8 c 0,54,55
 250 23 250 23 250 38 c 0,56,57
 250 71 250 71 232 91 c 0,43,44
377 433 m 1,58,-1
 377 113 l 1,59,60
 422 154 422 154 478 155 c 0,61,62
 513 155 513 155 536 127 c 128,-1,63
 559 99 559 99 561 66 c 0,64,65
 562 40 562 40 548 6 c 0,66,67
 542 -8 542 -8 526 -24 c 0,68,69
 512 -36 512 -36 499 -49 c 0,70,71
 425 -103 425 -103 351 -158 c 1,72,-1
 351 433 l 1,73,-1
 377 433 l 1,58,-1
458 91 m 0,74,75
 445 105 445 105 426 105 c 0,76,77
 402 105 402 105 388 78 c 0,78,79
 377 57 377 57 377 -21 c 2,80,-1
 377 -107 l 2,81,82
 377 -111 377 -111 433 -58 c 0,83,84
 462 -30 462 -30 472 8 c 0,85,86
 475 23 475 23 475 38 c 0,87,88
 475 71 475 71 458 91 c 0,74,75
EndSplineSet
Validated: 33
EndChar

StartChar: ccedilla
Encoding: 61581 61581 108
Width: 1024
GlyphClass: 1
Flags: W
LayerCount: 3
Fore
SplineSet
216 215 m 0,0,1
 216 182 216 182 184 183 c 0,2,3
 161 183 161 183 158.5 198.5 c 128,-1,4
 156 214 156 214 155 230 c 0,5,6
 153 252 153 252 129 252 c 0,7,8
 111 252 111 252 97.5 239.5 c 128,-1,9
 84 227 84 227 84 205 c 0,10,11
 84 176 84 176 116 163 c 0,12,13
 145 151 145 151 174 138 c 1,14,15
 206 117 206 117 206 70 c 0,16,17
 206 30 206 30 167 0 c 0,18,19
 132 -27 132 -27 95 -27 c 0,20,21
 65 -27 65 -27 37 -11 c 0,22,23
 2 9 2 9 2 43 c 0,24,25
 2 92 2 92 39 92 c 0,26,27
 54 92 54 92 62 78 c 0,28,29
 69 68 69 68 69 57 c 0,30,31
 69 48 69 48 57 24 c 1,32,33
 77 4 77 4 90 4 c 0,34,35
 113 4 113 4 134.5 20 c 128,-1,36
 156 36 156 36 156 59 c 0,37,38
 156 80 156 80 125.5 96.5 c 128,-1,39
 95 113 95 113 66 129 c 0,40,41
 34 152 34 152 34 188 c 0,42,43
 34 226 34 226 72 254 c 0,44,45
 106 280 106 280 143 280 c 0,46,47
 173 280 173 280 194.5 260 c 128,-1,48
 216 240 216 240 216 215 c 0,0,1
880 385 m 0,49,50
 880 360 880 360 864 340 c 0,51,52
 847 317 847 317 820 317 c 0,53,54
 786 317 786 317 786 355 c 0,55,56
 786 370 786 370 805 385 c 0,57,58
 832 406 832 406 838 414 c 1,59,60
 838 427 838 427 818 427 c 0,61,62
 761 427 761 427 731 345 c 0,63,64
 721 318 721 318 705 258 c 1,65,66
 705 258 705 258 800 258 c 1,67,-1
 800 236 l 1,68,69
 700 237 700 237 699 236 c 0,70,71
 687 193 687 193 669 136 c 0,72,73
 656 95 656 95 622 3 c 0,74,75
 587 -81 587 -81 521 -146 c 0,76,77
 474 -194 474 -194 408 -193 c 0,78,79
 388 -193 388 -193 366.5 -170.5 c 128,-1,80
 345 -148 345 -148 345 -122 c 0,81,82
 345 -97 345 -97 359 -76.5 c 128,-1,83
 373 -56 373 -56 399 -56 c 0,84,85
 441 -56 441 -56 441 -103 c 1,86,87
 436 -128 436 -128 417.5 -141.5 c 128,-1,88
 399 -155 399 -155 399 -156 c 0,89,90
 407 -165 407 -165 412 -165 c 0,91,92
 471 -165 471 -165 524 28 c 0,93,94
 541 89 541 89 582 236 c 1,95,96
 579 236 579 236 492 237 c 0,97,98
 460 237 460 237 441 236 c 1,99,100
 428 193 428 193 411 136 c 0,101,102
 398 95 398 95 363 3 c 0,103,104
 328 -81 328 -81 263 -146 c 0,105,106
 215 -194 215 -194 149 -193 c 0,107,108
 129 -193 129 -193 107.5 -170.5 c 128,-1,109
 86 -148 86 -148 86 -122 c 0,110,111
 86 -97 86 -97 100.5 -76.5 c 128,-1,112
 115 -56 115 -56 140 -56 c 0,113,114
 182 -56 182 -56 182 -103 c 1,115,116
 177 -128 177 -128 158.5 -141.5 c 128,-1,117
 140 -155 140 -155 140 -156 c 0,118,119
 148 -165 148 -165 154 -165 c 0,120,121
 212 -165 212 -165 265 28 c 0,122,123
 283 89 283 89 323 236 c 1,124,-1
 238 236 l 1,125,-1
 238 258 l 1,126,-1
 332 258 l 1,127,128
 349 299 349 299 384 352 c 0,129,130
 450 451 450 451 561 450 c 0,131,132
 585 450 585 450 603 431 c 128,-1,133
 621 412 621 412 621 385 c 0,134,135
 621 360 621 360 606 340 c 0,136,137
 588 317 588 317 561 317 c 0,138,139
 528 317 528 317 528 355 c 0,140,141
 528 370 528 370 547 385 c 0,142,143
 573 406 573 406 579 414 c 1,144,145
 579 427 579 427 560 427 c 0,146,147
 502 427 502 427 473 345 c 0,148,149
 463 318 463 318 446 258 c 1,150,151
 446 258 446 258 591 258 c 1,152,153
 608 299 608 299 643 352 c 0,154,155
 709 451 709 451 820 450 c 0,156,157
 843 450 843 450 861.5 431 c 128,-1,158
 880 412 880 412 880 385 c 0,49,50
961 104 m 0,159,160
 979 81 979 81 979 57 c 0,161,162
 979 25 979 25 950 0.5 c 128,-1,163
 921 -24 921 -24 887 -26 c 0,164,165
 867 -28 867 -28 839 -12.5 c 128,-1,166
 811 3 811 3 799 3 c 0,167,168
 765 3 765 3 742 -12 c 1,169,-1
 729 0 l 1,170,171
 819 87 819 87 938 195 c 1,172,173
 896 196 896 196 843 195 c 0,174,175
 822 191 822 191 807 166 c 1,176,-1
 800 174 l 1,177,-1
 846 258 l 1,178,-1
 1032 258 l 1,179,-1
 1024 239 l 1,180,-1
 813 51 l 1,181,182
 824 52 824 52 835 52 c 0,183,184
 861 52 861 52 884 41 c 0,185,186
 896 34 896 34 909 27 c 0,187,188
 923 24 923 24 934.5 29 c 128,-1,189
 946 34 946 34 942 49 c 1,190,191
 927 48 927 48 918 60.5 c 128,-1,192
 909 73 909 73 909 88 c 0,193,194
 909 116 909 116 938 116 c 0,195,196
 951 116 951 116 961 104 c 0,159,160
EndSplineSet
Validated: 33
EndChar

StartChar: eacute
Encoding: 61582 61582 109
Width: 298
GlyphClass: 1
Flags: W
LayerCount: 3
Fore
SplineSet
140 177 m 2,0,-1
 81 -1 l 1,1,-1
 14 -1 l 1,2,-1
 72 177 l 2,3,4
 78 198 78 198 78 209 c 0,5,6
 78 233 78 233 56 233 c 0,7,8
 28 233 28 233 3 163 c 1,9,-1
 -8 164 l 1,10,11
 30 290 30 290 103 278 c 0,12,13
 125 274 125 274 139 240 c 1,14,15
 192 279 192 279 233 277 c 0,16,17
 298 275 298 275 298 210 c 0,18,19
 298 157 298 157 251 157 c 0,20,21
 215 157 215 157 215 188 c 0,22,23
 215 206 215 206 224.5 215 c 128,-1,24
 234 224 234 224 234 229 c 0,25,26
 234 248 234 248 211 248 c 0,27,28
 190 248 190 248 166 222 c 0,29,30
 146 199 146 199 140 177 c 2,0,-1
EndSplineSet
Validated: 33
EndChar

StartChar: ecircumflex
Encoding: 61584 61584 110
Width: 303
GlyphClass: 1
Flags: W
LayerCount: 3
Fore
SplineSet
18 141 m 1,0,-1
 18 141 l 1,1,2
 19 119 19 119 19 94 c 0,3,4
 24 45 24 45 86 -24 c 0,5,6
 145 -90 145 -90 215 -187 c 0,7,8
 229 -205 229 -205 243 -234 c 1,9,10
 272 -181 272 -181 275 -144 c 0,11,12
 279 -89 279 -89 267 -49 c 0,13,14
 237 55 237 55 124 115 c 0,15,16
 83 138 83 138 18 141 c 1,0,-1
249 -247 m 1,18,-1
 250 -251 l 1,19,-1
 258 -269 l 2,20,21
 273 -304 273 -304 280 -332.5 c 128,-1,22
 287 -361 287 -361 297 -441 c 0,23,24
 300 -484 300 -484 288 -526 c 0,25,26
 277 -559 277 -559 266 -592 c 1,27,-1
 254 -588 l 1,28,29
 285 -512 285 -512 282 -454 c 0,30,31
 279 -402 279 -402 251 -320 c 0,32,33
 219 -224 219 -224 145 -174 c 0,34,35
 100 -142 100 -142 19 -113 c 1,36,37
 9 -114 9 -114 0 -114 c 1,38,-1
 0 389 l 1,39,-1
 15 389 l 1,40,41
 15 335 15 335 88 233 c 0,42,43
 105 209 105 209 151 170 c 128,-1,44
 197 131 197 131 223 94 c 0,45,46
 285 8 285 8 293 -49 c 0,47,48
 301 -105 301 -105 290.5 -151 c 128,-1,17
 280 -197 280 -197 249 -247 c 1,18,-1
EndSplineSet
Validated: 33
EndChar

StartChar: edieresis
Encoding: 61585 61585 111
Width: 330
GlyphClass: 1
Flags: W
LayerCount: 3
Fore
SplineSet
293 -60 m 0,1,2
 285 -3 285 -3 223 83 c 0,3,4
 197 119 197 119 151 158.5 c 128,-1,5
 105 198 105 198 88 221 c 0,6,7
 15 324 15 324 15 378 c 1,8,-1
 0 378 l 1,9,-1
 0 130 l 1,10,11
 76 130 76 130 124 104 c 0,12,13
 242 40 242 40 271 -73 c 0,14,15
 279 -105 279 -105 275 -156 c 0,16,17
 271 -203 271 -203 250 -236 c 1,18,-1
 260 -242 l 1,19,20
 280 -210 280 -210 290.5 -163 c 128,-1,0
 301 -116 301 -116 293 -60 c 0,1,2
EndSplineSet
Validated: 41
EndChar

StartChar: iacute
Encoding: 61586 61586 112
Width: 328
GlyphClass: 1
Flags: W
LayerCount: 3
Fore
SplineSet
311 417 m 0,0,1
 308 372 308 372 293 308 c 0,2,3
 289 288 289 288 272 245 c 1,4,5
 297 185 297 185 307 144 c 0,6,7
 317 99 317 99 307 24 c 0,8,9
 299 -33 299 -33 237 -119 c 0,10,11
 212 -153 212 -153 162 -190 c 0,12,13
 104 -233 104 -233 92 -247 c 0,14,15
 73 -267 73 -267 58 -289 c 0,16,17
 37 -320 37 -320 22 -359 c 0,18,19
 11 -386 11 -386 11 -421 c 1,20,-1
 -6 -421 l 1,21,-1
 -6 87 l 1,22,23
 2 87 2 87 13 87 c 0,24,25
 42 96 42 96 67 106 c 0,26,27
 128 128 128 128 159 149 c 0,28,29
 232 200 232 200 265 296 c 0,30,31
 293 377 293 377 295 430 c 0,32,33
 298 485 298 485 266 562 c 1,34,-1
 279 568 l 1,35,36
 290 534 290 534 302 501 c 0,37,38
 313 459 313 459 311 417 c 0,0,1
291 128 m 0,39,40
 287 176 287 176 262 222 c 1,41,42
 242 180 242 180 229 162 c 0,43,44
 199 121 199 121 151 71 c 0,45,46
 115 34 115 34 79 -3 c 0,47,48
 17 -71 17 -71 13 -121 c 0,49,50
 13 -136 13 -136 12 -167 c 1,51,52
 94 -163 94 -163 138 -140 c 0,53,54
 250 -79 250 -79 281 24 c 0,55,56
 296 74 296 74 291 128 c 0,39,40
EndSplineSet
Validated: 33
EndChar

StartChar: igrave
Encoding: 61587 61587 113
Width: 322
GlyphClass: 1
Flags: W
LayerCount: 3
Fore
SplineSet
313 149 m 0,0,1
 317 113 317 113 307 41 c 0,2,3
 299 -15 299 -15 237 -101 c 0,4,5
 211 -138 211 -138 154.5 -178 c 128,-1,6
 98 -218 98 -218 81 -242 c 0,7,8
 8 -344 8 -344 8 -398 c 1,9,-1
 -6 -398 l 1,10,-1
 -6 -147 l 1,11,-1
 12 -147 l 1,12,13
 101 -143 101 -143 138 -122 c 0,14,15
 250 -62 250 -62 281 41 c 0,16,17
 297 97 297 97 295 140 c 0,18,19
 292 194 292 194 276 229 c 1,20,-1
 284 238 l 1,21,22
 307 201 307 201 313 149 c 0,0,1
EndSplineSet
Validated: 33
EndChar

StartChar: ntilde
Encoding: 61590 61590 114
Width: 362
GlyphClass: 1
Flags: W
LayerCount: 3
Fore
SplineSet
247 168 m 2,0,-1
 209 46 l 2,1,2
 207 39 207 39 207 31 c 0,3,4
 207 14 207 14 217.5 1 c 128,-1,5
 228 -12 228 -12 242 -13 c 0,6,7
 270 -16 270 -16 302 11 c 0,8,9
 324 31 324 31 345 64 c 0,10,11
 363 91 363 91 361 94 c 2,12,-1
 353 101 l 1,13,14
 315 34 315 34 293 37 c 0,15,16
 278 39 278 39 292 83 c 2,17,-1
 326 194 l 2,18,19
 330 207 330 207 324 234 c 0,20,21
 315 271 315 271 284 273 c 0,22,23
 243 275 243 275 184 234 c 1,24,25
 182 239 182 239 166 254 c 0,26,27
 146 273 146 273 133 275 c 0,28,29
 60 287 60 287 4 128 c 1,30,-1
 14 127 l 1,31,32
 56 223 56 223 89 223 c 0,33,34
 108 223 108 223 108 200 c 0,35,36
 108 190 108 190 102 168 c 2,37,-1
 46 0 l 1,38,-1
 111 0 l 1,39,-1
 167 168 l 1,40,41
 205 227 205 227 238 224 c 0,42,43
 251 222 251 222 251 198 c 0,44,45
 251 187 251 187 247 168 c 2,0,-1
EndSplineSet
Validated: 41
EndChar

StartChar: udieresis
Encoding: 61599 61599 115
Width: 508
GlyphClass: 1
Flags: W
LayerCount: 3
Fore
SplineSet
373 213 m 1,0,1
 461 149 461 149 457 74 c 0,2,3
 455 32 455 32 440 6.5 c 128,-1,4
 425 -19 425 -19 390 -48 c 0,5,6
 336 -91 336 -91 241 -89 c 0,7,8
 168 -87 168 -87 106 -45 c 0,9,10
 40 0 40 0 33 61 c 0,11,12
 31 83 31 83 47 102.5 c 128,-1,13
 63 122 63 122 89 120 c 0,14,15
 149 113 149 113 149 69 c 0,16,17
 148 54 148 54 154 18 c 0,18,19
 162 -7 162 -7 184 -30 c 0,20,21
 212 -59 212 -59 244 -61 c 0,22,23
 268 -61 268 -61 299 -51 c 128,-1,24
 330 -41 330 -41 345 -27 c 0,25,26
 372 -1 372 -1 371 33 c 0,27,28
 369 65 369 65 357 83 c 0,29,30
 342 104 342 104 302 125 c 0,31,32
 252 150 252 150 203 175 c 0,33,34
 146 205 146 205 109 230 c 0,35,36
 18 293 18 293 20 360 c 0,37,38
 22 424 22 424 47 458 c 0,39,40
 64 481 64 481 109 505 c 1,41,42
 65 532 65 532 46 562.5 c 128,-1,43
 27 593 27 593 27 642 c 0,44,45
 29 741 29 741 114 775 c 1,46,47
 34 835 34 835 35 929 c 0,48,49
 37 997 37 997 108 1048 c 0,50,51
 164 1089 164 1089 256 1087 c 0,52,53
 329 1086 329 1086 394.5 1040 c 128,-1,54
 460 994 460 994 467 932 c 0,55,56
 469 910 469 910 453 890.5 c 128,-1,57
 437 871 437 871 411 874 c 0,58,59
 351 880 351 880 351 924 c 0,60,61
 351 939 351 939 346 975 c 1,62,63
 338 1000 338 1000 315 1024 c 0,64,65
 287 1054 287 1054 256 1054 c 0,66,67
 177 1056 177 1056 133 1014 c 0,68,69
 107 989 107 989 109 956 c 0,70,71
 111 927 111 927 137 899 c 0,72,73
 154 879 154 879 192 860 c 2,74,-1
 315 796 l 2,75,76
 395 755 395 755 423 732 c 0,77,78
 481 683 481 683 475 623 c 0,79,80
 470 573 470 573 447 541 c 0,81,82
 418 502 418 502 380 484 c 1,83,84
 431 452 431 452 447 425 c 0,85,86
 471 386 471 386 470 342 c 0,87,88
 469 299 469 299 441.5 262.5 c 128,-1,89
 414 226 414 226 373 213 c 1,0,1
332 655 m 2,90,-1
 160 748 l 1,91,92
 131 751 131 751 111 731 c 128,-1,93
 91 711 91 711 93 685 c 0,94,95
 95 635 95 635 154 605 c 2,96,-1
 342 508 l 1,97,98
 390 510 390 510 401 559 c 0,99,100
 407 581 407 581 379 615 c 0,101,102
 356 642 356 642 332 655 c 2,90,-1
335 381 m 2,103,-1
 155 478 l 1,104,105
 127 482 127 482 107.5 464.5 c 128,-1,106
 88 447 88 447 87 423 c 0,107,108
 86 371 86 371 149 338 c 2,109,-1
 338 240 l 1,110,111
 358 237 358 237 379 253 c 128,-1,112
 400 269 400 269 400 289 c 0,113,114
 401 345 401 345 335 381 c 2,103,-1
EndSplineSet
Validated: 33
EndChar

StartChar: dagger
Encoding: 61600 61600 116
Width: 683
GlyphClass: 1
Flags: W
LayerCount: 3
Fore
SplineSet
548 929 m 0,0,1
 542 1016 542 1016 488 1015 c 0,2,3
 425 1015 425 1015 383 918 c 0,4,5
 344 827 344 827 344 709 c 0,6,7
 344 670 344 670 349 634 c 1,8,9
 428 695 428 695 484 770 c 0,10,11
 552 862 552 862 548 929 c 0,0,1
601 -14 m 0,12,13
 589 145 589 145 429 138 c 1,14,-1
 485 -211 l 1,15,16
 612 -168 612 -168 601 -14 c 0,12,13
461 -219 m 1,17,18
 432 -41 432 -41 403 136 c 1,19,20
 330 134 330 134 294 85 c 0,21,22
 265 47 265 47 268 0 c 0,23,24
 270 -34 270 -34 294 -71 c 128,-1,25
 318 -108 318 -108 347 -123 c 1,26,27
 343 -125 343 -125 338 -134 c 1,28,29
 279 -106 279 -106 252 -69 c 0,30,31
 212 -15 212 -15 207 51 c 0,32,33
 204 95 204 95 227 143 c 0,34,35
 252 195 252 195 301 232 c 0,36,37
 336 260 336 260 382 271 c 1,38,-1
 352 452 l 1,39,40
 318 432 318 432 254 374 c 0,41,42
 175 303 175 303 139 247 c 0,43,44
 62 126 62 126 68 38 c 0,45,46
 76 -71 76 -71 167.5 -149.5 c 128,-1,47
 259 -228 259 -228 381 -228 c 0,48,49
 421 -228 421 -228 461 -219 c 1,17,18
443 1158 m 1,50,51
 370 1173 370 1173 369 1230 c 0,52,53
 369 1281 369 1281 426 1308 c 1,54,55
 379 1333 379 1333 380 1371 c 0,56,57
 380 1409 380 1409 407.5 1433 c 128,-1,58
 435 1457 435 1457 473 1456 c 0,59,60
 508 1456 508 1456 534 1433.5 c 128,-1,61
 560 1411 560 1411 560 1377 c 0,62,63
 559 1341 559 1341 520 1317 c 1,64,65
 572 1285 572 1285 571 1237 c 0,66,67
 571 1208 571 1208 549 1186 c 128,-1,68
 527 1164 527 1164 496 1157 c 1,69,70
 527 1126 527 1126 557 1042.5 c 128,-1,71
 587 959 587 959 588 902 c 0,72,73
 590 807 590 807 569 739 c 0,74,75
 555 694 555 694 517 627 c 0,76,77
 502 600 502 600 451 538 c 0,78,79
 437 520 437 520 414 501 c 0,80,81
 395 486 395 486 375 470 c 1,82,-1
 408 276 l 1,83,84
 422 278 422 278 437 278 c 0,85,86
 528 278 528 278 578 241 c 0,87,88
 672 172 672 172 682 44 c 0,89,90
 688 -45 688 -45 641 -121 c 0,91,92
 590 -204 590 -204 491 -245 c 1,93,94
 504 -335 504 -335 517 -419 c 0,95,96
 524 -469 524 -469 524 -504 c 0,97,98
 524 -552 524 -552 509 -580 c 0,99,100
 454 -683 454 -683 342 -690 c 0,101,102
 275 -694 275 -694 211 -662 c 0,103,104
 132 -622 132 -622 127 -549 c 0,105,106
 124 -495 124 -495 148 -456 c 0,107,108
 176 -412 176 -412 231 -409 c 0,109,110
 269 -406 269 -406 303.5 -433 c 128,-1,111
 338 -460 338 -460 341 -502 c 0,112,113
 347 -592 347 -592 230 -625 c 1,114,115
 256 -664 256 -664 338 -664 c 0,116,117
 380 -664 380 -664 421 -638 c 128,-1,118
 462 -612 462 -612 484 -572 c 0,119,120
 498 -547 498 -547 498 -494 c 0,121,122
 498 -462 498 -462 493 -422 c 0,123,124
 480 -337 480 -337 466 -252 c 1,125,126
 430 -258 430 -258 385 -258 c 0,127,128
 293 -258 293 -258 248 -237 c 0,129,130
 108 -170 108 -170 50 -72 c 0,131,132
 8 -1 8 -1 0 116 c 0,133,134
 -7 213 -7 213 46 319 c 0,135,136
 91 410 91 410 163 477.5 c 128,-1,137
 235 545 235 545 325 614 c 1,138,139
 319 638 319 638 310 712 c 0,140,141
 305 781 305 781 305 807 c 0,142,143
 305 879 305 879 318 944 c 0,144,145
 327 991 327 991 364 1058 c 0,146,147
 405 1132 405 1132 443 1158 c 1,50,51
473 1438 m 0,148,149
 450 1438 450 1438 436.5 1424.5 c 128,-1,150
 423 1411 423 1411 422 1391 c 0,151,152
 422 1363 422 1363 472 1342 c 2,153,-1
 498 1331 l 1,154,155
 526 1344 526 1344 527 1379 c 0,156,157
 527 1401 527 1401 511 1419 c 128,-1,158
 495 1437 495 1437 473 1438 c 0,148,149
476 1282 m 2,159,-1
 451 1293 l 1,160,161
 433 1290 433 1290 420.5 1272.5 c 128,-1,162
 408 1255 408 1255 408 1234 c 0,163,164
 407 1211 407 1211 426.5 1192 c 128,-1,165
 446 1173 446 1173 471 1173 c 0,166,167
 523 1172 523 1172 524 1225 c 0,168,169
 524 1259 524 1259 476 1282 c 2,159,-1
EndSplineSet
Validated: 33
EndChar

StartChar: degree
Encoding: 61601 61601 117
Width: 808
GlyphClass: 1
Flags: W
LayerCount: 3
Fore
SplineSet
783 3 m 256,0,1
 756 3 756 3 756 30 c 0,2,3
 756 55 756 55 783 55 c 256,4,5
 810 55 810 55 810 30 c 0,6,7
 810 3 810 3 783 3 c 256,0,1
419 338 m 1,8,9
 420 343 420 343 421 348 c 1,10,11
 572 335 572 335 642 292 c 0,12,13
 709 250 709 250 731 184 c 0,14,15
 743 148 743 148 743 113 c 0,16,17
 743 63 743 63 721 30 c 128,-1,18
 699 -3 699 -3 671 -2 c 0,19,20
 592 -2 592 -2 551 73 c 1,21,22
 542 56 542 56 534 43 c 0,23,24
 513 11 513 11 496 6 c 0,25,26
 473 -1 473 -1 458 -1 c 0,27,28
 435 -1 435 -1 406 23 c 0,29,30
 387 39 387 39 375 60 c 1,31,-1
 318 5 l 2,32,33
 316 3 316 3 314 3 c 0,34,35
 306 3 306 3 293 23 c 0,36,37
 284 35 284 35 257 64 c 1,38,39
 242 73 242 73 207 96 c 1,40,41
 200 82 200 82 149 43 c 0,42,43
 88 -4 88 -4 67 -4 c 0,44,45
 55 -4 55 -4 55 11 c 0,46,47
 55 32 55 32 86 60.5 c 128,-1,48
 117 89 117 89 153 100 c 0,49,50
 167 106 167 106 194 115 c 1,51,52
 203 126 203 126 211 137 c 0,53,54
 223 156 223 156 224 180 c 0,55,56
 225 200 225 200 191.5 262 c 128,-1,57
 158 324 158 324 158 360 c 0,58,59
 158 372 158 372 160 383 c 2,60,-1
 188 492 l 1,61,62
 140 492 140 492 89 458 c 0,63,64
 33 420 33 420 33 374 c 0,65,66
 33 335 33 335 71 337 c 0,67,68
 113 339 113 339 125 369 c 0,69,70
 128 375 128 375 137 395 c 1,71,-1
 142 395 l 1,72,73
 140 386 140 386 138 371 c 0,74,75
 134 336 134 336 107.5 310 c 128,-1,76
 81 284 81 284 56 284 c 0,77,78
 33 284 33 284 20.5 305 c 128,-1,79
 8 326 8 326 8 350 c 0,80,81
 8 369 8 369 14 392 c 0,82,83
 28 441 28 441 85.5 474.5 c 128,-1,84
 143 508 143 508 217 507 c 0,85,86
 323 506 323 506 375 429 c 0,87,88
 391 406 391 406 391 379 c 0,89,90
 391 335 391 335 353 321 c 0,91,92
 338 316 338 316 322 316 c 0,93,94
 280 316 280 316 252 341 c 0,95,96
 236 355 236 355 219 389 c 0,97,98
 219 390 219 390 224 395 c 1,99,100
 235 378 235 378 248 370 c 0,101,102
 266 358 266 358 294 358 c 0,103,104
 328 358 328 358 342.5 372 c 128,-1,105
 357 386 357 386 357 405 c 0,106,107
 357 439 357 439 317 466 c 0,108,109
 293 482 293 482 255 490 c 0,110,111
 239 493 239 493 208 492 c 1,112,-1
 192 432 l 2,113,114
 189 423 189 423 189 413 c 0,115,116
 189 382 189 382 225 325 c 0,117,118
 262 265 262 265 265 242 c 0,119,120
 271 192 271 192 231 125 c 1,121,122
 258 122 258 122 284 105 c 0,123,124
 335 71 335 71 339 50 c 1,125,-1
 368 75 l 1,126,127
 357 99 357 99 355 141 c 0,128,129
 353 179 353 179 359 198 c 0,130,131
 367 225 367 225 390 242 c 128,-1,132
 413 259 413 259 438 259 c 0,133,134
 459 259 459 259 480 243.5 c 128,-1,135
 501 228 501 228 509 208 c 0,136,137
 513 199 513 199 470 147 c 128,-1,138
 427 95 427 95 415 89 c 1,139,140
 446 27 446 27 480 28 c 0,141,142
 495 29 495 29 511.5 49 c 128,-1,143
 528 69 528 69 544 90 c 1,144,145
 538 143 538 143 542 167 c 0,146,147
 557 243 557 243 612 259 c 1,148,149
 614 255 614 255 617 251 c 1,150,151
 577 229 577 229 577 171 c 0,152,153
 577 147 577 147 584 118 c 0,154,155
 595 80 595 80 620 49 c 0,156,157
 648 14 648 14 674 18 c 0,158,159
 708 23 708 23 708 78 c 0,160,161
 708 115 708 115 690 163 c 0,162,163
 679 194 679 194 648 250 c 1,164,165
 627 277 627 277 597 295 c 0,166,167
 549 322 549 322 419 338 c 1,8,9
423 229 m 0,168,169
 411 230 411 230 408 229 c 0,170,171
 406 228 406 228 398 219 c 0,172,173
 388 206 388 206 388 180 c 0,174,175
 388 132 388 132 407 103 c 1,176,177
 414 107 414 107 441 141 c 0,178,179
 472 178 472 178 467 187 c 0,180,181
 449 227 449 227 423 229 c 0,168,169
EndSplineSet
Validated: 33
EndChar

StartChar: cent
Encoding: 61602 61602 118
Width: 255
GlyphClass: 1
Flags: W
LayerCount: 3
Fore
SplineSet
240 83 m 1,0,-1
 193 83 l 1,1,-1
 184 56 l 2,2,3
 183 52 183 52 183 47 c 0,4,5
 183 29 183 29 205 16 c 1,6,-1
 200 0 l 1,7,-1
 72 0 l 1,8,-1
 77 16 l 1,9,10
 88 21 88 21 96 26 c 0,11,12
 117 40 117 40 122 56 c 2,13,-1
 131 83 l 1,14,-1
 6 83 l 1,15,16
 3 98 3 98 1 112 c 1,17,18
 85 196 85 196 108 227 c 0,19,20
 122 246 122 246 157 313 c 1,21,22
 174 311 174 311 195 313 c 0,23,24
 205 313 205 313 220.5 318.5 c 128,-1,25
 236 324 236 324 242 324 c 0,26,27
 249 324 249 324 254 319 c 1,28,29
 240 267 240 267 160 210 c 0,30,31
 49 131 49 131 25 104 c 1,32,-1
 136 104 l 1,33,34
 143 122 143 122 159 160 c 0,35,36
 170 186 170 186 198.5 212 c 128,-1,37
 227 238 227 238 245 241 c 1,38,-1
 200 104 l 1,39,-1
 247 104 l 1,40,-1
 240 83 l 1,0,-1
EndSplineSet
Validated: 33
EndChar

StartChar: sterling
Encoding: 61603 61603 119
Width: 240
GlyphClass: 1
Flags: W
LayerCount: 3
Fore
SplineSet
251 227 m 0,0,1
 237 170 237 170 167 155 c 1,2,3
 211 124 211 124 211 87 c 0,4,5
 211 74 211 74 206 62 c 0,6,7
 176 -8 176 -8 82 -7 c 0,8,9
 55 -6 55 -6 28.5 14.5 c 128,-1,10
 2 35 2 35 -1 59 c 0,11,12
 -3 78 -3 78 7.5 90 c 128,-1,13
 18 102 18 102 35 102 c 0,14,15
 50 102 50 102 60 87 c 0,16,17
 66 77 66 77 67 70 c 0,18,19
 68 61 68 61 52 32 c 1,20,21
 67 12 67 12 80 12 c 0,22,23
 117 12 117 12 139 54 c 0,24,25
 153 81 153 81 150 110 c 0,26,27
 145 157 145 157 76 157 c 1,28,-1
 80 180 l 2,29,30
 84 180 84 180 97.5 179 c 128,-1,31
 111 178 111 178 120 178 c 0,32,33
 177 178 177 178 190 220 c 0,34,35
 194 233 194 233 194 247 c 0,36,37
 194 294 194 294 158 296 c 0,38,39
 132 297 132 297 120 278 c 1,40,41
 131 268 131 268 131 251 c 0,42,43
 131 236 131 236 122.5 224 c 128,-1,44
 114 212 114 212 100 212 c 0,45,46
 91 212 91 212 81.5 225 c 128,-1,47
 72 238 72 238 71 250 c 0,48,49
 69 280 69 280 90.5 298 c 128,-1,50
 112 316 112 316 147 316 c 0,51,52
 191 316 191 316 221.5 294 c 128,-1,53
 252 272 252 272 252 241 c 0,54,55
 252 234 252 234 251 227 c 0,0,1
EndSplineSet
Validated: 33
EndChar

StartChar: section
Encoding: 61604 61604 120
Width: 258
GlyphClass: 1
Flags: W
LayerCount: 3
Fore
SplineSet
93 -4 m 0,0,1
 79 -3 79 -3 58 12 c 0,2,3
 34 28 34 28 26 49 c 0,4,5
 12 81 12 81 12 114 c 0,6,7
 12 132 12 132 16 152 c 0,8,9
 32 231 32 231 82 281 c 0,10,11
 127 326 127 326 192 319 c 0,12,13
 217 316 217 316 238 301 c 0,14,15
 263 283 263 283 263 259 c 0,16,17
 263 222 263 222 226 218 c 0,18,19
 198 216 198 216 198 244 c 0,20,21
 198 251 198 251 206 269 c 0,22,23
 212 284 212 284 208 291 c 0,24,25
 203 300 203 300 190 301 c 0,26,27
 175 303 175 303 153 287 c 128,-1,28
 131 271 131 271 118 247 c 0,29,30
 105 228 105 228 85 182 c 1,31,32
 115 199 115 199 136 199 c 1,33,34
 134 199 134 199 174 194 c 0,35,36
 199 192 199 192 215 162 c 0,37,38
 231 136 231 136 231 105 c 0,39,40
 231 54 231 54 188 22 c 128,-1,41
 145 -10 145 -10 93 -4 c 0,0,1
63 78 m 0,42,43
 63 53 63 53 74 35.5 c 128,-1,44
 85 18 85 18 103 18 c 0,45,46
 127 17 127 17 150.5 42 c 128,-1,47
 174 67 174 67 178 97 c 0,48,49
 182 123 182 123 169.5 145.5 c 128,-1,50
 157 168 157 168 134 167 c 0,51,52
 101 167 101 167 82 139.5 c 128,-1,53
 63 112 63 112 63 78 c 0,42,43
EndSplineSet
Validated: 33
EndChar

StartChar: bullet
Encoding: 61605 61605 121
Width: 264
GlyphClass: 1
Flags: W
LayerCount: 3
Fore
SplineSet
277 241 m 0,0,1
 279 214 279 214 249 191 c 0,2,3
 225 174 225 174 193 166 c 1,4,5
 205 158 205 158 216 136 c 0,6,7
 230 110 230 110 230 83 c 0,8,9
 230 59 230 59 218 39 c 0,10,11
 191 -6 191 -6 99 -6 c 0,12,13
 61 -6 61 -6 31.5 20 c 128,-1,14
 2 46 2 46 -1 80 c 0,15,16
 -5 122 -5 122 33 152 c 0,17,18
 64 177 64 177 92 177 c 1,19,20
 61 204 61 204 61 246 c 0,21,22
 61 280 61 280 94 300 c 0,23,24
 121 316 121 316 159 316 c 0,25,26
 204 317 204 317 236 300 c 0,27,28
 273 280 273 280 277 241 c 0,0,1
232 241 m 0,29,30
 228 293 228 293 164 294 c 0,31,32
 150 294 150 294 137 282 c 0,33,34
 121 269 121 269 122 253 c 0,35,36
 123 227 123 227 136 213 c 0,37,38
 141 206 141 206 167 189 c 1,39,40
 187 189 187 189 210.5 205 c 128,-1,41
 234 221 234 221 232 241 c 0,29,30
162 74 m 0,42,43
 158 119 158 119 122 146 c 1,44,45
 82 151 82 151 57 126 c 0,46,47
 38 107 38 107 40 86 c 0,48,49
 46 15 46 15 103 13 c 0,50,51
 129 12 129 12 148 34 c 0,52,53
 164 54 164 54 162 74 c 0,42,43
EndSplineSet
Validated: 33
EndChar

StartChar: paragraph
Encoding: 61606 61606 122
Width: 257
GlyphClass: 1
Flags: W
LayerCount: 3
Fore
SplineSet
284 297 m 1,0,1
 279 275 279 275 258 231 c 1,2,3
 219 174 219 174 168 91 c 1,4,5
 155 62 155 62 132 0 c 1,6,7
 89 0 89 0 47 0 c 1,8,9
 48 36 48 36 98 88 c 0,10,11
 137 128 137 128 179 180 c 1,12,13
 205 203 205 203 238 244 c 1,14,15
 226 235 226 235 197 237 c 0,16,17
 183 237 183 237 146 244 c 0,18,19
 113 250 113 250 88 250 c 0,20,21
 79 250 79 250 61 230.5 c 128,-1,22
 43 211 43 211 37 194 c 1,23,-1
 20 194 l 1,24,-1
 72 316 l 1,25,-1
 82 316 l 1,26,27
 84 310 84 310 91 301 c 1,28,29
 97 301 97 301 113 309 c 128,-1,30
 129 317 129 317 147 318 c 0,31,32
 167 318 167 318 188 301.5 c 128,-1,33
 209 285 209 285 217 285 c 0,34,35
 238 284 238 284 255 291.5 c 128,-1,36
 272 299 272 299 275 299 c 0,37,38
 279 299 279 299 284 297 c 1,0,1
EndSplineSet
Validated: 33
EndChar

StartChar: germandbls
Encoding: 61607 61607 123
Width: 770
GlyphClass: 1
Flags: W
LayerCount: 3
Fore
SplineSet
627 386 m 0,0,1
 627 361 627 361 611 341 c 0,2,3
 593 317 593 317 566 317 c 0,4,5
 533 317 533 317 533 355 c 0,6,7
 533 371 533 371 552 386 c 0,8,9
 579 407 579 407 585 415 c 1,10,11
 585 428 585 428 565 428 c 0,12,13
 508 428 508 428 478 346 c 0,14,15
 468 319 468 319 452 259 c 1,16,17
 452 259 452 259 547 259 c 1,18,-1
 547 237 l 1,19,20
 446 238 446 238 446 237 c 0,21,22
 434 194 434 194 416 137 c 0,23,24
 403 96 403 96 368 4 c 0,25,26
 334 -80 334 -80 268 -146 c 0,27,28
 221 -193 221 -193 155 -192 c 0,29,30
 135 -192 135 -192 113 -169.5 c 128,-1,31
 91 -147 91 -147 91 -122 c 0,32,33
 91 -96 91 -96 105.5 -75.5 c 128,-1,34
 120 -55 120 -55 146 -55 c 0,35,36
 187 -55 187 -55 188 -102 c 1,37,38
 183 -127 183 -127 164 -140.5 c 128,-1,39
 145 -154 145 -154 145 -156 c 0,40,41
 153 -165 153 -165 159 -165 c 0,42,43
 218 -165 218 -165 270 29 c 0,44,45
 288 90 288 90 329 237 c 1,46,-1
 243 237 l 1,47,-1
 243 259 l 1,48,-1
 338 259 l 1,49,50
 355 300 355 300 390 352 c 0,51,52
 456 451 456 451 566 451 c 0,53,54
 590 450 590 450 608.5 431 c 128,-1,55
 627 412 627 412 627 386 c 0,0,1
219 212 m 0,56,57
 219 180 219 180 186 180 c 0,58,59
 163 181 163 181 160.5 196.5 c 128,-1,60
 158 212 158 212 157 228 c 0,61,62
 155 250 155 250 131 250 c 0,63,64
 114 250 114 250 100 237.5 c 128,-1,65
 86 225 86 225 86 203 c 0,66,67
 86 174 86 174 118 161 c 0,68,69
 147 148 147 148 177 136 c 1,70,71
 208 115 208 115 208 68 c 0,72,73
 208 27 208 27 171 -1.5 c 128,-1,74
 134 -30 134 -30 97 -30 c 0,75,76
 68 -30 68 -30 40 -14 c 0,77,78
 4 7 4 7 4 40 c 0,79,80
 4 90 4 90 41 90 c 0,81,82
 56 90 56 90 65 76 c 0,83,84
 71 65 71 65 71 55 c 0,85,86
 71 46 71 46 59 22 c 1,87,88
 80 1 80 1 93 1 c 0,89,90
 115 1 115 1 136.5 17.5 c 128,-1,91
 158 34 158 34 158 57 c 0,92,93
 158 78 158 78 127.5 94.5 c 128,-1,94
 97 111 97 111 68 127 c 0,95,96
 36 150 36 150 36 186 c 0,97,98
 36 225 36 225 72 255 c 0,99,100
 104 283 104 283 140 283 c 0,101,102
 169 283 169 283 194 260.5 c 128,-1,103
 219 238 219 238 219 212 c 0,56,57
702 104 m 0,104,105
 720 82 720 82 720 57 c 0,106,107
 720 25 720 25 691 0.5 c 128,-1,108
 662 -24 662 -24 628 -26 c 0,109,110
 605 -28 605 -28 577 -12.5 c 128,-1,111
 549 3 549 3 540 3 c 0,112,113
 507 3 507 3 483 -12 c 1,114,-1
 470 0 l 1,115,116
 560 87 560 87 680 195 c 1,117,118
 637 196 637 196 585 195 c 0,119,120
 564 191 564 191 549 166 c 1,121,-1
 541 174 l 1,122,-1
 587 259 l 1,123,-1
 773 259 l 1,124,-1
 766 240 l 1,125,-1
 554 51 l 1,126,127
 566 53 566 53 576 53 c 0,128,129
 603 53 603 53 625 41 c 0,130,131
 638 34 638 34 650 28 c 0,132,133
 665 25 665 25 676 29.5 c 128,-1,134
 687 34 687 34 683 49 c 1,135,136
 668 48 668 48 659.5 60.5 c 128,-1,137
 651 73 651 73 651 88 c 0,138,139
 651 116 651 116 680 116 c 0,140,141
 693 116 693 116 702 104 c 0,104,105
EndSplineSet
Validated: 33
EndChar

StartChar: registered
Encoding: 61608 61608 124
Width: 472
GlyphClass: 1
Flags: W
LayerCount: 3
Fore
SplineSet
204 464 m 0,0,1
 215 467 215 467 224 467 c 0,2,3
 256 467 256 467 274 439 c 0,4,5
 289 415 289 415 289 383 c 0,6,7
 289 369 289 369 286 358 c 1,8,9
 325 361 325 361 346 383 c 0,10,11
 358 394 358 394 383 430 c 1,12,-1
 398 422 l 1,13,-1
 153 -506 l 1,14,-1
 113 -506 l 1,15,16
 135 -447 135 -447 171 -342 c 0,17,18
 207 -233 207 -233 225 -150 c 1,19,20
 138 -216 138 -216 90 -218 c 0,21,22
 49 -221 49 -221 24.5 -195 c 128,-1,23
 0 -169 0 -169 0 -132 c 0,24,25
 0 -63 0 -63 71 -45 c 0,26,27
 81 -43 81 -43 90 -43 c 0,28,29
 122 -43 122 -43 140 -71 c 0,30,31
 156 -94 156 -94 156 -127 c 0,32,33
 156 -141 156 -141 152 -152 c 1,34,35
 187 -148 187 -148 210.5 -131.5 c 128,-1,36
 234 -115 234 -115 247 -72 c 0,37,38
 277 28 277 28 295 111 c 1,39,40
 259 84 259 84 235 70 c 0,41,42
 188 42 188 42 157 40 c 0,43,44
 116 37 116 37 91 65 c 0,45,46
 67 90 67 90 67 126 c 0,47,48
 67 195 67 195 138 213 c 0,49,50
 149 216 149 216 158 216 c 0,51,52
 189 216 189 216 208 188 c 0,53,54
 223 164 223 164 223 132 c 0,55,56
 223 118 223 118 220 107 c 1,57,58
 255 110 255 110 276 130 c 0,59,60
 294 148 294 148 300 157 c 0,61,62
 312 175 312 175 319 203 c 2,63,-1
 360 360 l 1,64,65
 271 294 271 294 223 291 c 0,66,67
 182 288 182 288 157 316 c 0,68,69
 133 341 133 341 133 377 c 0,70,71
 133 446 133 446 204 464 c 0,0,1
EndSplineSet
Validated: 33
EndChar

StartChar: copyright
Encoding: 61609 61609 125
Width: 287
GlyphClass: 1
Flags: W
LayerCount: 3
Fore
SplineSet
179 550 m 1,0,-1
 179 71 l 1,1,2
 171 82 171 82 121 82 c 0,3,4
 43 82 43 82 6 -5 c 0,5,6
 2 -15 2 -15 5 -38 c 0,7,8
 8 -62 8 -62 16 -70 c 0,9,10
 35 -97 35 -97 78 -92 c 0,11,12
 123 -87 123 -87 155.5 -62 c 128,-1,13
 188 -37 188 -37 197 0 c 0,14,15
 201 18 201 18 199 18 c 1,16,-1
 199 549 l 1,17,-1
 179 550 l 1,0,-1
EndSplineSet
Validated: 41
EndChar

StartChar: trademark
Encoding: 61610 61610 126
Width: 259
GlyphClass: 1
Flags: W
LayerCount: 3
Fore
SplineSet
175 -5 m 1024,0,-1
236 68 m 0,1,2
 203 -6 203 -6 128 -6 c 0,3,4
 105 -6 105 -6 83.5 12.5 c 128,-1,5
 62 31 62 31 48 31 c 0,6,7
 6 31 6 31 -12 0 c 1,8,-1
 -22 0 l 1,9,10
 -18 25 -18 25 -2 50 c 0,11,12
 29 99 29 99 81 128 c 0,13,14
 170 178 170 178 179 184 c 0,15,16
 204 202 204 202 212 230 c 0,17,18
 214 237 214 237 214 246 c 0,19,20
 214 265 214 265 203.5 281 c 128,-1,21
 193 297 193 297 175 297 c 0,22,23
 165 298 165 298 148 292 c 0,24,25
 127 285 127 285 123 274 c 128,-1,26
 119 263 119 263 111 232 c 1,27,28
 107 199 107 199 80 197 c 0,29,30
 65 197 65 197 58 209.5 c 128,-1,31
 51 222 51 222 54 234 c 0,32,33
 75 320 75 320 177 319 c 0,34,35
 213 319 213 319 238 294 c 0,36,37
 268 264 268 264 265 216 c 0,38,39
 263 172 263 172 188 143 c 0,40,41
 131 121 131 121 110 112 c 0,42,43
 51 86 51 86 43 72 c 1,44,45
 61 80 61 80 79 80 c 0,46,47
 102 80 102 80 131.5 64.5 c 128,-1,48
 161 49 161 49 163 49 c 0,49,50
 173 47 173 47 180 47 c 0,51,52
 206 47 206 47 228 75 c 1,53,54
 234 71 234 71 236 68 c 0,1,2
EndSplineSet
Validated: 33
EndChar

StartChar: acute
Encoding: 61611 61611 127
Width: 127
GlyphClass: 1
Flags: W
LayerCount: 3
Fore
SplineSet
63 103 m 1,0,-1
 124 109 l 1,1,-1
 63 -121 l 1,2,-1
 0 110 l 1,3,-1
 63 103 l 1,0,-1
EndSplineSet
Validated: 1
EndChar

StartChar: dieresis
Encoding: 61612 61612 128
Width: 280
GlyphClass: 1
Flags: W
LayerCount: 3
Fore
SplineSet
108 60 m 0,0,1
 141 60 141 60 141 26 c 256,2,3
 141 -8 141 -8 108 -8 c 0,4,5
 94 -8 94 -8 84 2 c 128,-1,6
 74 12 74 12 74 26 c 256,7,8
 74 40 74 40 84 50 c 128,-1,9
 94 60 94 60 108 60 c 0,0,1
137 313 m 1,10,-1
 278 -1 l 1,11,-1
 181 -1 l 1,12,-1
 107 180 l 1,13,-1
 26 -1 l 1,14,-1
 0 -1 l 1,15,-1
 137 313 l 1,10,-1
EndSplineSet
Validated: 1
EndChar

StartChar: notequal
Encoding: 61613 61613 129
Width: 259
GlyphClass: 1
Flags: W
LayerCount: 3
Fore
SplineSet
30 100 m 1,0,-1
 30 -100 l 1,1,-1
 230 -100 l 1,2,-1
 230 100 l 1,3,-1
 30 100 l 1,0,-1
260 130 m 1,4,-1
 260 -130 l 1,5,-1
 0 -130 l 1,6,-1
 0 130 l 1,7,-1
 260 130 l 1,4,-1
EndSplineSet
Validated: 1
EndChar

StartChar: AE
Encoding: 61614 61614 130
Width: 84
GlyphClass: 1
Flags: W
LayerCount: 3
Fore
SplineSet
42 213 m 0,0,1
 85 213 85 213 84 173 c 0,2,3
 84 108 84 108 47 -8 c 1,4,-1
 33 -8 l 1,5,6
 0 110 0 110 0 173 c 0,7,8
 0 213 0 213 42 213 c 0,0,1
EndSplineSet
Validated: 33
EndChar

StartChar: Oslash
Encoding: 61615 61615 131
Width: 1502
GlyphClass: 1
Flags: W
LayerCount: 3
Fore
SplineSet
1127 177 m 1,0,1
 1181 270 1181 270 1242 269 c 0,2,3
 1265 269 1265 269 1277 262 c 0,4,5
 1307 241 1307 241 1319 210 c 1,6,7
 1331 226 1331 226 1352 242 c 0,8,9
 1388 268 1388 268 1430 268 c 0,10,11
 1491 268 1491 268 1504 179 c 0,12,13
 1506 163 1506 163 1498 131 c 128,-1,14
 1490 99 1490 99 1482 84 c 0,15,16
 1417 -31 1417 -31 1332 -28 c 0,17,18
 1311 -28 1311 -28 1284 -12 c 0,19,20
 1278 -9 1278 -9 1255 14 c 1,21,-1
 1189 -147 l 1,22,-1
 1259 -153 l 1,23,-1
 1259 -172 l 1,24,-1
 998 -172 l 1,25,-1
 998 -153 l 1,26,-1
 1084 -147 l 1,27,-1
 1232 202 l 2,28,29
 1233 206 1233 206 1233 210 c 0,30,31
 1233 235 1233 235 1213 235 c 0,32,33
 1189 235 1189 235 1151 186 c 0,34,35
 1141 171 1141 171 1124 142 c 1,36,37
 1118 106 1118 106 1105 84 c 0,38,39
 1041 -31 1041 -31 955 -28 c 0,40,41
 934 -28 934 -28 908 -12 c 0,42,43
 901 -9 901 -9 879 14 c 1,44,-1
 813 -147 l 1,45,-1
 882 -153 l 1,46,-1
 882 -172 l 1,47,-1
 622 -172 l 1,48,-1
 622 -153 l 1,49,-1
 707 -147 l 1,50,-1
 856 202 l 2,51,52
 857 206 857 206 857 210 c 0,53,54
 857 235 857 235 837 235 c 0,55,56
 812 235 812 235 775 186 c 0,57,58
 764 172 764 172 747 141 c 1,59,60
 741 106 741 106 728 84 c 0,61,62
 664 -31 664 -31 579 -28 c 0,63,64
 558 -28 558 -28 531 -12 c 0,65,66
 525 -9 525 -9 502 14 c 1,67,-1
 436 -147 l 1,68,-1
 506 -153 l 1,69,-1
 506 -172 l 1,70,-1
 245 -172 l 1,71,-1
 245 -153 l 1,72,-1
 331 -147 l 1,73,-1
 479 202 l 2,74,75
 480 206 480 206 480 210 c 0,76,77
 480 235 480 235 460 235 c 0,78,79
 435 235 435 235 398 186 c 0,80,81
 387 171 387 171 373 146 c 1,82,83
 367 110 367 110 354 87 c 0,84,85
 290 -28 290 -28 205 -25 c 0,86,87
 184 -24 184 -24 157 -8 c 0,88,89
 151 -5 151 -5 128 17 c 1,90,-1
 62 -143 l 1,91,-1
 132 -149 l 1,92,-1
 132 -168 l 1,93,-1
 -129 -168 l 1,94,-1
 -129 -149 l 1,95,-1
 -43 -143 l 1,96,-1
 105 206 l 2,97,98
 106 209 106 209 106 214 c 0,99,100
 106 239 106 239 86 239 c 0,101,102
 61 239 61 239 24 189 c 0,103,104
 10 165 10 165 -14 128 c 0,105,106
 -15 128 -15 128 -26 130 c 1,107,108
 41 274 41 274 115 273 c 0,109,110
 138 273 138 273 149 265 c 0,111,112
 180 245 180 245 192 214 c 1,113,114
 204 230 204 230 225 245 c 0,115,116
 261 272 261 272 303 272 c 0,117,118
 364 272 364 272 377 183 c 0,119,120
 377 182 377 182 377 181 c 1,121,122
 429 270 429 270 489 269 c 0,123,124
 512 269 512 269 523 262 c 0,125,126
 554 241 554 241 566 210 c 1,127,128
 578 226 578 226 599 242 c 0,129,130
 635 268 635 268 677 268 c 0,131,132
 738 268 738 268 751 179 c 0,133,134
 751 178 751 178 751 176 c 1,135,136
 805 270 805 270 865 269 c 0,137,138
 889 269 889 269 900 262 c 0,139,140
 931 241 931 241 942 210 c 1,141,142
 955 226 955 226 976 242 c 0,143,144
 1012 268 1012 268 1054 268 c 0,145,146
 1115 268 1115 268 1127 179 c 0,147,148
 1127 178 1127 178 1127 177 c 1,0,1
295 203 m 0,149,150
 295 230 295 230 273 230 c 0,151,152
 248 230 248 230 221 205 c 128,-1,153
 194 180 194 180 183 151 c 0,154,155
 154 81 154 81 154 55 c 0,156,157
 154 45 154 45 162 29 c 0,158,159
 173 8 173 8 189 8 c 0,160,161
 219 8 219 8 259 97 c 0,162,163
 294 175 294 175 295 203 c 0,149,150
669 203 m 0,164,165
 669 230 669 230 647 230 c 0,166,167
 622 230 622 230 595 205 c 128,-1,168
 568 180 568 180 557 151 c 0,169,170
 528 81 528 81 528 55 c 0,171,172
 528 45 528 45 536 29 c 0,173,174
 547 8 547 8 563 8 c 0,175,176
 593 8 593 8 633 97 c 0,177,178
 668 175 668 175 669 203 c 0,164,165
1045 203 m 0,179,180
 1046 230 1046 230 1024 230 c 0,181,182
 998 230 998 230 971.5 205 c 128,-1,183
 945 180 945 180 933 151 c 0,184,185
 905 81 905 81 905 55 c 0,186,187
 905 45 905 45 913 29 c 0,188,189
 924 8 924 8 940 8 c 0,190,191
 970 8 970 8 1010 97 c 0,192,193
 1045 175 1045 175 1045 203 c 0,179,180
1422 203 m 0,194,195
 1422 230 1422 230 1401 230 c 0,196,197
 1375 230 1375 230 1348 205 c 128,-1,198
 1321 180 1321 180 1310 151 c 0,199,200
 1281 81 1281 81 1281 55 c 0,201,202
 1281 45 1281 45 1290 29 c 0,203,204
 1300 8 1300 8 1316 8 c 0,205,206
 1346 8 1346 8 1386 97 c 0,207,208
 1421 175 1421 175 1422 203 c 0,194,195
EndSplineSet
Validated: 33
EndChar

StartChar: infinity
Encoding: 61616 61616 132
Width: 238
GlyphClass: 1
Flags: W
LayerCount: 3
Fore
SplineSet
259 313 m 0,0,1
 263 310 263 310 262 299 c 0,2,3
 260 288 260 288 256 285 c 0,4,5
 236 272 236 272 173 259 c 0,6,7
 118 248 118 248 99 248 c 1,8,9
 93 236 93 236 80 203 c 1,10,11
 100 214 100 214 129 214 c 0,12,13
 167 214 167 214 193 194 c 0,14,15
 223 171 223 171 223 126 c 0,16,17
 223 110 223 110 219 91 c 0,18,19
 208 41 208 41 166 15 c 0,20,21
 130 -9 130 -9 81 -9 c 0,22,23
 54 -9 54 -9 27 13 c 128,-1,24
 0 35 0 35 0 59 c 0,25,26
 0 78 0 78 11.5 91.5 c 128,-1,27
 23 105 23 105 39 104 c 0,28,29
 60 103 60 103 62 78 c 0,30,31
 63 65 63 65 59 53 c 0,32,33
 55 37 55 37 54 34 c 0,34,35
 59 26 59 26 64.5 18.5 c 128,-1,36
 70 11 70 11 78 11 c 0,37,38
 111 11 111 11 138 41 c 0,39,40
 161 66 161 66 169 98 c 0,41,42
 173 115 173 115 173 129 c 0,43,44
 173 173 173 173 129 186 c 0,45,46
 120 189 120 189 96 180 c 0,47,48
 67 170 67 170 52 148 c 1,49,50
 51 149 51 149 40 164 c 1,51,-1
 96 315 l 1,52,53
 95 315 95 315 120 313 c 0,54,55
 142 311 142 311 161 312 c 0,56,57
 253 316 253 316 259 313 c 0,0,1
EndSplineSet
Validated: 37
EndChar

StartChar: plusminus
Encoding: 61617 61617 133
Width: 353
GlyphClass: 1
Flags: W
LayerCount: 3
Fore
SplineSet
175 133 m 1,0,-1
 350 -130 l 1,1,-1
 0 -130 l 1,2,-1
 175 133 l 1,0,-1
45 -105 m 1,3,-1
 304 -105 l 1,4,5
 270 -53 270 -53 175 87 c 1,6,-1
 45 -105 l 1,3,-1
EndSplineSet
Validated: 1
EndChar

StartChar: lessequal
Encoding: 61618 61618 134
Width: 242
GlyphClass: 1
Flags: W
LayerCount: 3
Fore
SplineSet
124 -14 m 1,0,-1
 119 -14 l 1,1,-1
 0 455 l 1,2,-1
 26 455 l 1,3,-1
 122 72 l 1,4,-1
 217 455 l 1,5,-1
 240 455 l 1,6,-1
 124 -14 l 1,0,-1
EndSplineSet
Validated: 1
EndChar

StartChar: greaterequal
Encoding: 61619 61619 135
Width: 340
GlyphClass: 1
Flags: W
LayerCount: 3
Fore
SplineSet
1 0 m 1,0,-1
 1 380 l 1,1,-1
 339 380 l 1,2,-1
 339 0 l 1,3,-1
 312 0 l 1,4,-1
 312 204 l 1,5,-1
 28 204 l 1,6,-1
 28 0 l 1,7,-1
 1 0 l 1,0,-1
EndSplineSet
Validated: 1
EndChar

StartChar: yen
Encoding: 61620 61620 136
Width: 251
GlyphClass: 1
Flags: W
LayerCount: 3
Fore
SplineSet
216 -5 m 1,0,1
 155 29 155 29 113 90 c 1,2,-1
 28 5 l 1,3,4
 91 -27 91 -27 130 -90 c 1,5,-1
 216 -5 l 1,0,1
130 -124 m 1,6,7
 82 -38 82 -38 -6 5 c 1,8,-1
 113 123 l 1,9,10
 135 91 135 91 178.5 51 c 128,-1,11
 222 11 222 11 251 -3 c 1,12,-1
 130 -124 l 1,6,7
EndSplineSet
Validated: 1
EndChar

StartChar: mu
Encoding: 61621 61621 137
Width: 790
GlyphClass: 1
Flags: W
LayerCount: 3
Fore
SplineSet
479 28 m 2,0,1
 453 7 453 7 451 7 c 0,2,3
 447 7 447 7 425 31 c 2,4,-1
 359 103 l 2,5,6
 358 105 358 105 349 115 c 128,-1,7
 340 125 340 125 337 125 c 0,8,9
 332 125 332 125 310 103 c 2,10,-1
 237 31 l 2,11,12
 214 8 214 8 210 8 c 0,13,14
 209 8 209 8 189 30 c 2,15,-1
 108 118 l 2,16,17
 106 121 106 121 97 133 c 0,18,19
 85 146 85 146 82 146 c 0,20,21
 75 146 75 146 51 123 c 2,22,-1
 0 75 l 1,23,-1
 0 111 l 1,24,-1
 132 237 l 2,25,26
 155 258 155 258 161 258 c 0,27,28
 166 258 166 258 187 232 c 2,29,-1
 262 154 l 1,30,31
 272 135 272 135 282 135 c 0,32,33
 284 135 284 135 307 156 c 2,34,-1
 389 232 l 2,35,36
 413 254 413 254 414 254 c 0,37,38
 416 254 416 254 438 228 c 2,39,-1
 497 158 l 2,40,41
 519 132 519 132 524 132 c 0,42,43
 530 132 530 132 554 154 c 2,44,-1
 637 230 l 2,45,46
 661 252 661 252 665 252 c 0,47,48
 667 252 667 252 686 230 c 2,49,-1
 762 144 l 2,50,51
 786 117 786 117 792 117 c 1,52,53
 791 117 791 117 820 139 c 1,54,-1
 870 187 l 1,55,-1
 870 151 l 1,56,-1
 735 25 l 2,57,58
 712 6 712 6 710 6 c 0,59,60
 705 6 705 6 683 30 c 2,61,-1
 621 97 l 2,62,63
 619 101 619 101 609 111 c 0,64,65
 596 124 596 124 590 124 c 0,66,67
 587 124 587 124 561 101 c 2,68,-1
 479 28 l 2,0,1
EndSplineSet
Validated: 33
EndChar

StartChar: partialdiff
Encoding: 61622 61622 138
Width: 1284
GlyphClass: 1
Flags: W
LayerCount: 3
Fore
SplineSet
213 216 m 0,0,1
 213 183 213 183 180 184 c 0,2,3
 157 184 157 184 154.5 199.5 c 128,-1,4
 152 215 152 215 151 231 c 0,5,6
 150 253 150 253 125 253 c 0,7,8
 108 253 108 253 94 240.5 c 128,-1,9
 80 228 80 228 80 206 c 0,10,11
 80 177 80 177 111 164.5 c 128,-1,12
 142 152 142 152 171 139 c 1,13,14
 203 118 203 118 203 71 c 0,15,16
 203 31 203 31 164 1 c 0,17,18
 129 -26 129 -26 91 -26 c 0,19,20
 62 -26 62 -26 34 -10 c 0,21,22
 -2 10 -2 10 -2 44 c 0,23,24
 -2 93 -2 93 35 93 c 0,25,26
 50 93 50 93 59 79 c 0,27,28
 65 69 65 69 65 58 c 0,29,30
 65 49 65 49 53 25 c 1,31,32
 74 5 74 5 87 5 c 0,33,34
 109 5 109 5 130.5 21 c 128,-1,35
 152 37 152 37 152 60 c 0,36,37
 152 81 152 81 121.5 97.5 c 128,-1,38
 91 114 91 114 62 130 c 0,39,40
 30 153 30 153 30 189 c 0,41,42
 30 224 30 224 73 254 c 0,43,44
 110 281 110 281 140 281 c 0,45,46
 169 281 169 281 191 261 c 128,-1,47
 213 241 213 241 213 216 c 0,0,1
634 381 m 0,48,49
 634 357 634 357 617 335 c 128,-1,50
 600 313 600 313 574 313 c 0,51,52
 540 313 540 313 540 351 c 0,53,54
 540 367 540 367 559 381 c 0,55,56
 586 402 586 402 592 410 c 1,57,58
 592 424 592 424 572 424 c 0,59,60
 515 424 515 424 485 341 c 0,61,62
 475 314 475 314 459 254 c 1,63,64
 459 254 459 254 554 254 c 1,65,-1
 554 233 l 1,66,67
 454 234 454 234 453 233 c 0,68,69
 441 190 441 190 423 132 c 0,70,71
 410 92 410 92 376 -1 c 1,72,73
 341 -84 341 -84 275 -150 c 0,74,75
 228 -197 228 -197 162 -197 c 0,76,77
 142 -197 142 -197 120.5 -174 c 128,-1,78
 99 -151 99 -151 99 -126 c 256,79,80
 99 -101 99 -101 113 -80 c 128,-1,81
 127 -59 127 -59 153 -59 c 0,82,83
 195 -59 195 -59 195 -106 c 1,84,85
 190 -131 190 -131 171.5 -144.5 c 128,-1,86
 153 -158 153 -158 153 -160 c 0,87,88
 161 -169 161 -169 166 -169 c 0,89,90
 225 -169 225 -169 278 24 c 0,91,92
 295 86 295 86 336 233 c 1,93,-1
 251 233 l 1,94,-1
 251 254 l 1,95,-1
 345 254 l 1,96,97
 362 296 362 296 397 348 c 0,98,99
 463 447 463 447 574 446 c 0,100,101
 597 446 597 446 615.5 427 c 128,-1,102
 634 408 634 408 634 381 c 0,48,49
911 184 m 1,103,104
 964 274 964 274 1024 273 c 0,105,106
 1047 273 1047 273 1058 266 c 0,107,108
 1089 245 1089 245 1100 214 c 1,109,110
 1113 230 1113 230 1134 246 c 0,111,112
 1170 272 1170 272 1212 272 c 0,113,114
 1273 272 1273 272 1285 183 c 0,115,116
 1288 167 1288 167 1280 135 c 128,-1,117
 1272 103 1272 103 1263 88 c 0,118,119
 1199 -27 1199 -27 1113 -24 c 0,120,121
 1093 -24 1093 -24 1066 -8 c 0,122,123
 1059 -5 1059 -5 1037 18 c 1,124,-1
 971 -143 l 1,125,-1
 1040 -149 l 1,126,-1
 1040 -168 l 1,127,-1
 780 -168 l 1,128,-1
 780 -149 l 1,129,-1
 866 -143 l 1,130,-1
 1014 206 l 2,131,132
 1015 210 1015 210 1015 214 c 0,133,134
 1015 239 1015 239 995 239 c 0,135,136
 970 239 970 239 933 190 c 0,137,138
 922 175 922 175 909 152 c 1,139,140
 903 112 903 112 889 88 c 0,141,142
 825 -27 825 -27 739 -24 c 0,143,144
 719 -24 719 -24 692 -8 c 0,145,146
 685 -5 685 -5 663 18 c 1,147,-1
 597 -143 l 1,148,-1
 666 -149 l 1,149,-1
 666 -168 l 1,150,-1
 406 -166 l 1,151,-1
 406 -149 l 1,152,-1
 492 -143 l 1,153,-1
 640 206 l 2,154,155
 641 210 641 210 641 214 c 0,156,157
 641 239 641 239 621 239 c 0,158,159
 596 239 596 239 559 190 c 0,160,161
 545 166 545 166 520 128 c 1,162,163
 520 128 520 128 509 130 c 1,164,165
 576 274 576 274 650 273 c 0,166,167
 673 273 673 273 684 266 c 0,168,169
 715 245 715 245 726 214 c 1,170,171
 739 230 739 230 760 246 c 0,172,173
 796 272 796 272 838 272 c 0,174,175
 898 272 898 272 911 184 c 1,103,104
829 207 m 0,176,177
 830 234 830 234 808 234 c 0,178,179
 782 234 782 234 755.5 209 c 128,-1,180
 729 184 729 184 717 155 c 0,181,182
 689 85 689 85 689 59 c 0,183,184
 689 49 689 49 697 33 c 0,185,186
 708 12 708 12 724 12 c 0,187,188
 754 12 754 12 794 101 c 0,189,190
 829 179 829 179 829 207 c 0,176,177
1203 207 m 0,191,192
 1204 234 1204 234 1182 234 c 0,193,194
 1157 234 1157 234 1128 208 c 0,195,196
 1103 184 1103 184 1091 155 c 0,197,198
 1063 85 1063 85 1063 59 c 0,199,200
 1063 49 1063 49 1071 33 c 0,201,202
 1082 12 1082 12 1098 12 c 0,203,204
 1128 12 1128 12 1168 101 c 0,205,206
 1203 179 1203 179 1203 207 c 0,191,192
EndSplineSet
Validated: 33
EndChar

StartChar: summation
Encoding: 61623 61623 139
Width: 319
GlyphClass: 1
Flags: W
LayerCount: 3
Fore
SplineSet
1 251 m 1,0,-1
 319 251 l 1,1,-1
 319 107 l 1,2,-1
 1 107 l 1,3,-1
 1 251 l 1,0,-1
EndSplineSet
Validated: 1
EndChar

StartChar: product
Encoding: 61624 61624 140
Width: 1121
GlyphClass: 1
Flags: W
LayerCount: 3
Fore
SplineSet
749 180 m 1,0,1
 803 274 803 274 864 273 c 0,2,3
 887 273 887 273 898 266 c 0,4,5
 929 245 929 245 941 214 c 1,6,7
 953 230 953 230 974 246 c 0,8,9
 1010 272 1010 272 1052 272 c 0,10,11
 1113 272 1113 272 1125 183 c 0,12,13
 1128 167 1128 167 1120 135 c 128,-1,14
 1112 103 1112 103 1103 88 c 0,15,16
 1039 -27 1039 -27 953 -24 c 0,17,18
 933 -24 933 -24 906 -8 c 0,19,20
 899 -5 899 -5 877 18 c 1,21,-1
 811 -143 l 1,22,-1
 880 -149 l 1,23,-1
 880 -168 l 1,24,-1
 620 -168 l 1,25,-1
 620 -149 l 1,26,-1
 706 -143 l 1,27,-1
 854 206 l 2,28,29
 855 210 855 210 855 214 c 0,30,31
 855 240 855 240 835 240 c 0,32,33
 810 240 810 240 773 190 c 0,34,35
 763 176 763 176 745 146 c 1,36,37
 739 110 739 110 727 88 c 0,38,39
 662 -27 662 -27 577 -24 c 0,40,41
 556 -24 556 -24 529 -8 c 0,42,43
 523 -5 523 -5 501 18 c 1,44,-1
 434 -143 l 1,45,-1
 504 -149 l 1,46,-1
 504 -168 l 1,47,-1
 243 -168 l 1,48,-1
 243 -149 l 1,49,-1
 329 -143 l 1,50,-1
 477 206 l 2,51,52
 479 210 479 210 479 214 c 0,53,54
 479 240 479 240 458 240 c 0,55,56
 434 240 434 240 396 190 c 0,57,58
 386 175 386 175 372 152 c 1,59,60
 366 112 366 112 353 88 c 0,61,62
 288 -27 288 -27 203 -24 c 0,63,64
 182 -24 182 -24 155 -8 c 0,65,66
 149 -5 149 -5 127 18 c 1,67,-1
 60 -143 l 1,68,-1
 130 -149 l 1,69,-1
 130 -168 l 1,70,71
 79 -166 79 -166 -131 -168 c 1,72,-1
 -131 -149 l 1,73,-1
 -45 -143 l 1,74,-1
 103 206 l 2,75,76
 105 210 105 210 105 214 c 0,77,78
 105 240 105 240 84 240 c 0,79,80
 60 240 60 240 22 190 c 0,81,82
 8 166 8 166 -16 128 c 1,83,84
 -16 128 -16 128 -28 130 c 1,85,86
 40 274 40 274 113 273 c 0,87,88
 136 273 136 273 148 266 c 0,89,90
 178 245 178 245 190 214 c 1,91,92
 202 230 202 230 224 246 c 0,93,94
 259 272 259 272 301 272 c 0,95,96
 362 272 362 272 375 184 c 1,97,98
 427 274 427 274 487 273 c 0,99,100
 510 273 510 273 522 266 c 0,101,102
 553 245 553 245 564 214 c 1,103,104
 576 230 576 230 598 246 c 0,105,106
 633 272 633 272 675 272 c 0,107,108
 736 272 736 272 749 183 c 0,109,110
 749 182 749 182 749 180 c 1,0,1
293 204 m 0,111,112
 293 231 293 231 272 231 c 0,113,114
 246 231 246 231 219.5 206 c 128,-1,115
 193 181 193 181 181 152 c 0,116,117
 152 82 152 82 152 56 c 0,118,119
 152 46 152 46 161 30 c 0,120,121
 172 9 172 9 188 9 c 0,122,123
 218 9 218 9 257 98 c 0,124,125
 293 176 293 176 293 204 c 0,111,112
667 204 m 0,126,127
 667 231 667 231 646 231 c 0,128,129
 620 231 620 231 593.5 206 c 128,-1,130
 567 181 567 181 555 152 c 0,131,132
 526 82 526 82 526 56 c 0,133,134
 526 46 526 46 535 30 c 0,135,136
 546 9 546 9 562 9 c 0,137,138
 592 9 592 9 631 98 c 0,139,140
 667 176 667 176 667 204 c 0,126,127
1043 204 m 0,141,142
 1044 231 1044 231 1022 231 c 0,143,144
 997 231 997 231 970 206 c 128,-1,145
 943 181 943 181 932 152 c 0,146,147
 903 82 903 82 903 56 c 0,148,149
 903 46 903 46 911 30 c 0,150,151
 922 9 922 9 938 9 c 0,152,153
 968 9 968 9 1008 98 c 0,154,155
 1043 176 1043 176 1043 204 c 0,141,142
EndSplineSet
Validated: 33
EndChar

StartChar: pi
Encoding: 61625 61625 141
Width: 750
GlyphClass: 1
Flags: W
LayerCount: 3
Fore
SplineSet
379 184 m 1,0,1
 432 274 432 274 492 273 c 0,2,3
 515 273 515 273 526 266 c 0,4,5
 557 245 557 245 569 214 c 1,6,7
 581 230 581 230 602 246 c 0,8,9
 638 272 638 272 680 272 c 0,10,11
 741 272 741 272 754 183 c 0,12,13
 756 167 756 167 748 135 c 128,-1,14
 740 103 740 103 731 88 c 0,15,16
 667 -27 667 -27 582 -24 c 0,17,18
 561 -24 561 -24 534 -8 c 0,19,20
 528 -5 528 -5 505 18 c 1,21,-1
 439 -143 l 1,22,-1
 509 -149 l 1,23,-1
 509 -168 l 1,24,-1
 248 -168 l 1,25,-1
 248 -149 l 1,26,-1
 334 -143 l 1,27,-1
 482 206 l 2,28,29
 483 210 483 210 483 214 c 0,30,31
 483 239 483 239 463 239 c 0,32,33
 438 239 438 239 401 190 c 0,34,35
 391 175 391 175 377 152 c 1,36,37
 371 112 371 112 357 88 c 0,38,39
 293 -27 293 -27 208 -24 c 0,40,41
 187 -24 187 -24 160 -8 c 0,42,43
 154 -5 154 -5 131 18 c 1,44,-1
 65 -143 l 1,45,-1
 135 -149 l 1,46,-1
 135 -168 l 1,47,-1
 -126 -168 l 1,48,-1
 -126 -149 l 1,49,-1
 -40 -143 l 1,50,-1
 108 206 l 2,51,52
 109 210 109 210 109 214 c 0,53,54
 109 239 109 239 89 239 c 0,55,56
 64 239 64 239 27 190 c 0,57,58
 13 166 13 166 -11 128 c 0,59,60
 -12 128 -12 128 -23 130 c 1,61,62
 44 274 44 274 118 273 c 0,63,64
 141 273 141 273 152 266 c 0,65,66
 183 245 183 245 195 214 c 1,67,68
 207 230 207 230 228 246 c 0,69,70
 264 272 264 272 306 272 c 0,71,72
 367 272 367 272 379 184 c 1,0,1
298 207 m 0,73,74
 298 234 298 234 276 234 c 0,75,76
 251 234 251 234 224 209 c 128,-1,77
 197 184 197 184 186 155 c 0,78,79
 157 85 157 85 157 59 c 0,80,81
 157 49 157 49 165 33 c 0,82,83
 176 12 176 12 192 12 c 0,84,85
 222 12 222 12 262 101 c 0,86,87
 297 179 297 179 298 207 c 0,73,74
672 207 m 0,88,89
 672 234 672 234 650 234 c 0,90,91
 625 234 625 234 598 209 c 128,-1,92
 571 184 571 184 560 155 c 0,93,94
 531 85 531 85 531 59 c 0,95,96
 531 49 531 49 539 33 c 0,97,98
 550 12 550 12 566 12 c 0,99,100
 596 12 596 12 636 101 c 0,101,102
 671 179 671 179 672 207 c 0,88,89
EndSplineSet
Validated: 33
EndChar

StartChar: integral
Encoding: 61626 61626 142
Width: 438
GlyphClass: 1
Flags: W
LayerCount: 3
Fore
SplineSet
26 433 m 1,0,-1
 26 113 l 1,1,2
 71 154 71 154 127 155 c 0,3,4
 162 155 162 155 187 126 c 0,5,6
 209 99 209 99 210 66 c 0,7,8
 211 40 211 40 197 6 c 0,9,10
 192 -8 192 -8 175 -24 c 0,11,12
 162 -36 162 -36 148 -49 c 0,13,14
 74 -103 74 -103 0 -158 c 1,15,-1
 0 433 l 1,16,-1
 26 433 l 1,0,-1
107 91 m 0,17,18
 95 105 95 105 76 105 c 0,19,20
 52 105 52 105 37 78 c 0,21,22
 26 57 26 57 26 -21 c 2,23,-1
 26 -107 l 2,24,25
 27 -111 27 -111 82 -58 c 0,26,27
 112 -30 112 -30 121 8 c 0,28,29
 125 23 125 23 125 38 c 0,30,31
 125 71 125 71 107 91 c 0,17,18
252 433 m 1,32,-1
 252 113 l 1,33,34
 297 154 297 154 353 155 c 0,35,36
 388 155 388 155 413 126 c 0,37,38
 435 99 435 99 436 66 c 0,39,40
 437 40 437 40 423 6 c 0,41,42
 417 -8 417 -8 401 -24 c 0,43,44
 387 -36 387 -36 374 -49 c 0,45,46
 300 -103 300 -103 226 -158 c 1,47,-1
 226 433 l 1,48,-1
 252 433 l 1,32,-1
333 91 m 0,49,50
 320 105 320 105 301 105 c 0,51,52
 277 105 277 105 263 78 c 0,53,54
 252 57 252 57 252 -21 c 2,55,-1
 252 -107 l 2,56,57
 252 -111 252 -111 308 -58 c 0,58,59
 337 -30 337 -30 347 8 c 0,60,61
 351 23 351 23 351 38 c 0,62,63
 351 71 351 71 333 91 c 0,49,50
EndSplineSet
Validated: 33
EndChar

StartChar: ordfeminine
Encoding: 61627 61627 143
Width: 248
GlyphClass: 1
Flags: W
LayerCount: 3
Fore
SplineSet
171 316 m 0,0,1
 186 315 186 315 206 300 c 0,2,3
 230 283 230 283 238 263 c 0,4,5
 251 231 251 231 251 200 c 0,6,7
 251 180 251 180 247 159 c 0,8,9
 230 81 230 81 179 31 c 0,10,11
 134 -14 134 -14 69 -6 c 0,12,13
 44 -3 44 -3 23 12 c 0,14,15
 -1 30 -1 30 -1 54 c 0,16,17
 -1 70 -1 70 9.5 81.5 c 128,-1,18
 20 93 20 93 36 94 c 0,19,20
 64 97 64 97 64 69 c 0,21,22
 64 61 64 61 56.5 45 c 128,-1,23
 49 29 49 29 53 21 c 0,24,25
 58 13 58 13 71 12 c 0,26,27
 86 10 86 10 108 24 c 128,-1,28
 130 38 130 38 143.5 60 c 128,-1,29
 157 82 157 82 177 130 c 1,30,31
 147 113 147 113 126 113 c 1,32,33
 128 113 128 113 88 118 c 0,34,35
 64 121 64 121 48 150 c 0,36,37
 33 176 33 176 33 207 c 0,38,39
 33 258 33 258 76 290 c 128,-1,40
 119 322 119 322 171 316 c 0,0,1
199 226 m 0,41,42
 199 251 199 251 188.5 270 c 128,-1,43
 178 289 178 289 162 291 c 0,44,45
 132 294 132 294 107.5 260.5 c 128,-1,46
 83 227 83 227 83 196 c 0,47,48
 83 174 83 174 95.5 157 c 128,-1,49
 108 140 108 140 128 140 c 0,50,51
 159 141 159 141 179 167.5 c 128,-1,52
 199 194 199 194 199 226 c 0,41,42
EndSplineSet
Validated: 33
EndChar

StartChar: ordmasculine
Encoding: 61628 61628 144
Width: 265
GlyphClass: 1
Flags: W
LayerCount: 3
Fore
SplineSet
172 312 m 0,0,1
 212 312 212 312 234 278.5 c 128,-1,2
 256 245 256 245 256 197 c 0,3,4
 256 175 256 175 251 153 c 0,5,6
 234 83 234 83 195 41 c 0,7,8
 151 -5 151 -5 86 -5 c 0,9,10
 45 -5 45 -5 23 32 c 0,11,12
 3 64 3 64 3 112 c 0,13,14
 3 133 3 133 8 153 c 0,15,16
 23 224 23 224 63 266 c 0,17,18
 107 312 107 312 172 312 c 0,0,1
73 152 m 0,19,20
 59 98 59 98 59 67 c 0,21,22
 59 19 59 19 90 19 c 0,23,24
 150 19 150 19 185 152 c 0,25,26
 198 200 198 200 198 234 c 0,27,28
 198 288 198 288 164 288 c 0,29,30
 109 288 109 288 73 152 c 0,19,20
EndSplineSet
Validated: 1
EndChar

StartChar: Omega
Encoding: 61629 61629 145
Width: 472
GlyphClass: 1
Flags: W
LayerCount: 3
Fore
SplineSet
176 0 m 1,0,-1
 228 168 l 2,1,2
 233 191 233 191 233 203 c 0,3,4
 233 221 233 221 224 222 c 0,5,6
 192 225 192 225 167 168 c 1,7,-1
 111 0 l 1,8,-1
 46 0 l 1,9,-1
 102 168 l 2,10,11
 108 189 108 189 108 200 c 0,12,13
 108 223 108 223 89 223 c 0,14,15
 56 223 56 223 14 127 c 1,16,-1
 4 128 l 1,17,18
 60 287 60 287 133 275 c 0,19,20
 146 273 146 273 166 254 c 0,21,22
 182 239 182 239 184 234 c 1,23,24
 229 274 229 274 270 274 c 0,25,26
 286 273 286 273 317 235 c 1,27,28
 366 275 366 275 401 272 c 0,29,30
 438 269 438 269 438 219 c 0,31,32
 438 202 438 202 435 194 c 2,33,-1
 401 83 l 2,34,35
 388 39 388 39 403 37 c 0,36,37
 425 34 425 34 454 86 c 1,38,-1
 462 78 l 2,39,40
 467 71 467 71 431 30 c 0,41,42
 392 -17 392 -17 352 -13 c 0,43,44
 338 -12 338 -12 327.5 1 c 128,-1,45
 317 14 317 14 317 31 c 0,46,47
 317 39 317 39 319 46 c 2,48,-1
 357 168 l 2,49,50
 363 190 363 190 363 202 c 0,51,52
 363 221 363 221 351 222 c 0,53,54
 326 224 326 224 296 168 c 1,55,-1
 241 0 l 1,56,-1
 176 0 l 1,0,-1
EndSplineSet
Validated: 33
EndChar

StartChar: ae
Encoding: 61630 61630 146
Width: 277
GlyphClass: 1
Flags: W
LayerCount: 3
Fore
SplineSet
-1 476 m 1,0,1
 50 499 50 499 144 554 c 0,2,3
 211 593 211 593 278 633 c 1,4,-1
 278 512 l 1,5,-1
 -1 355 l 1,6,-1
 -1 476 l 1,0,1
-1 297 m 1,7,-1
 278 454 l 1,8,-1
 278 334 l 1,9,-1
 -1 177 l 1,10,-1
 -1 297 l 1,7,-1
-1 297 m 1,11,-1
 278 454 l 1,12,-1
 278 334 l 1,13,-1
 -1 177 l 1,14,-1
 -1 297 l 1,11,-1
-1 297 m 1,15,-1
 278 454 l 1,16,-1
 278 334 l 1,17,-1
 -1 177 l 1,18,-1
 -1 297 l 1,15,-1
-1 119 m 1,19,-1
 278 276 l 1,20,-1
 278 155 l 1,21,-1
 -1 -1 l 1,22,-1
 -1 119 l 1,19,-1
EndSplineSet
Validated: 5
EndChar

StartChar: oslash
Encoding: 61631 61631 147
Width: 277
GlyphClass: 1
Flags: W
LayerCount: 3
Fore
SplineSet
225 67 m 1,0,1
 249 39 249 39 249 0 c 0,2,3
 249 -45 249 -45 217 -76.5 c 128,-1,4
 185 -108 185 -108 141 -108 c 0,5,6
 104 -108 104 -108 74 -84 c 1,7,-1
 -17 -174 l 1,8,-1
 -17 -143 l 1,9,-1
 57 -68 l 1,10,11
 33 -40 33 -40 33 0 c 0,12,13
 33 45 33 45 64.5 76.5 c 128,-1,14
 96 108 96 108 141 108 c 0,15,16
 180 108 180 108 208 84 c 1,17,-1
 298 174 l 1,18,-1
 298 142 l 1,19,-1
 225 67 l 1,0,1
208 53 m 1,20,-1
 88 -68 l 1,21,22
 113 -85 113 -85 141 -85 c 0,23,24
 176 -85 176 -85 201 -60.5 c 128,-1,25
 226 -36 226 -36 226 0 c 0,26,27
 226 33 226 33 208 53 c 1,20,-1
141 85 m 0,28,29
 105 85 105 85 80 60.5 c 128,-1,30
 55 36 55 36 55 0 c 0,31,32
 55 -29 55 -29 73 -53 c 1,33,-1
 193 68 l 1,34,35
 173 85 173 85 141 85 c 0,28,29
EndSplineSet
Validated: 1
EndChar

StartChar: questiondown
Encoding: 61632 61632 148
Width: 268
GlyphClass: 1
Flags: W
LayerCount: 3
Fore
SplineSet
135 -21 m 1,0,-1
 0 -155 l 1,1,-1
 0 -114 l 1,2,-1
 114 0 l 1,3,-1
 0 114 l 1,4,-1
 0 155 l 1,5,-1
 135 21 l 1,6,-1
 269 155 l 1,7,-1
 269 114 l 1,8,-1
 155 0 l 1,9,-1
 269 -114 l 1,10,-1
 269 -155 l 1,11,-1
 135 -21 l 1,0,-1
EndSplineSet
Validated: 1
EndChar

StartChar: exclamdown
Encoding: 61633 61633 149
Width: 163
GlyphClass: 1
Flags: W
LayerCount: 3
Fore
SplineSet
110 0 m 1,0,-1
 -21 0 l 1,1,-1
 -15 15 l 1,2,3
 6 30 6 30 29 48 c 1,4,-1
 95 234 l 1,5,-1
 24 172 l 1,6,-1
 14 175 l 1,7,-1
 132 314 l 1,8,-1
 174 291 l 1,9,-1
 89 45 l 2,10,11
 87 41 87 41 87 37 c 0,12,13
 87 19 87 19 116 16 c 1,14,-1
 110 0 l 1,0,-1
EndSplineSet
Validated: 1
EndChar

StartChar: logicalnot
Encoding: 61634 61634 150
Width: 321
GlyphClass: 1
Flags: W
LayerCount: 3
Fore
SplineSet
321 120 m 1,0,-1
 321 -120 l 1,1,-1
 -3 -120 l 1,2,-1
 -3 120 l 1,3,-1
 321 120 l 1,0,-1
21 94 m 1,4,-1
 21 -94 l 1,5,-1
 296 -94 l 1,6,-1
 296 94 l 1,7,-1
 21 94 l 1,4,-1
EndSplineSet
Validated: 1
EndChar

StartChar: radical
Encoding: 61635 61635 151
Width: 727
GlyphClass: 1
Flags: W
LayerCount: 3
Fore
SplineSet
210 282 m 0,0,1
 166 274 166 274 166 225 c 0,2,3
 166 205 166 205 176 187 c 0,4,5
 193 154 193 154 230 123 c 0,6,7
 236 118 236 118 253 105 c 1,8,9
 284 110 284 110 303.5 137.5 c 128,-1,10
 323 165 323 165 323 198 c 0,11,12
 323 236 323 236 298.5 260 c 128,-1,13
 274 284 274 284 235 284 c 0,14,15
 223 284 223 284 210 282 c 0,0,1
222 303 m 0,16,17
 251 304 251 304 286 294.5 c 128,-1,18
 321 285 321 285 336 269 c 0,19,20
 366 237 366 237 366 193 c 0,21,22
 366 152 366 152 341.5 119.5 c 128,-1,23
 317 87 317 87 278 74 c 1,24,25
 316 21 316 21 316 -29 c 0,26,27
 316 -84 316 -84 271 -118.5 c 128,-1,28
 226 -153 226 -153 184 -153 c 0,29,30
 96 -153 96 -153 50 -119 c 0,31,32
 0 -82 0 -82 0 -28 c 0,33,34
 0 -11 0 -11 6 6 c 0,35,36
 24 64 24 64 122 107 c 1,37,38
 93 135 93 135 85 176 c 0,39,40
 77 218 77 218 108 259 c 0,41,42
 127 283 127 283 150.5 292 c 128,-1,43
 174 301 174 301 222 303 c 0,16,17
148 74 m 1,44,45
 117 70 117 70 93.5 48.5 c 128,-1,46
 70 27 70 27 62 0 c 0,47,48
 55 -23 55 -23 55 -46 c 0,49,50
 55 -85 55 -85 75 -104 c 0,51,52
 109 -134 109 -134 150 -134 c 0,53,54
 180 -134 180 -134 207.5 -114.5 c 128,-1,55
 235 -95 235 -95 235 -65 c 0,56,57
 235 -31 235 -31 199 16 c 0,58,59
 182 40 182 40 148 74 c 1,44,45
424 79 m 0,60,61
 386 79 386 79 386 113 c 0,62,63
 386 122 386 122 389 132 c 0,64,65
 423 224 423 224 417 253 c 0,66,67
 416 262 416 262 405 255 c 2,68,-1
 378 236 l 1,69,-1
 368 246 l 1,70,71
 383 258 383 258 397 269 c 0,72,73
 418 284 418 284 432 282 c 0,74,75
 453 280 453 280 453 248 c 0,76,77
 453 223 453 223 439 183 c 128,-1,78
 425 143 425 143 422 123 c 0,79,80
 420 111 420 111 422.5 107 c 128,-1,81
 425 103 425 103 433 104 c 0,82,83
 458 106 458 106 490 153 c 128,-1,84
 522 200 522 200 518 233 c 0,85,86
 518 238 518 238 510 240 c 2,87,-1
 507 242 l 2,88,89
 498 245 498 245 495 257 c 0,90,91
 488 280 488 280 515 280 c 0,92,93
 541 280 541 280 541 235 c 256,94,95
 541 190 541 190 497 134.5 c 128,-1,96
 453 79 453 79 424 79 c 0,60,61
725 129 m 1,97,98
 710 116 710 116 693 100 c 0,99,100
 681 88 681 88 660 88 c 0,101,102
 645 88 645 88 650 108 c 2,103,-1
 659 148 l 1,104,105
 613 86 613 86 578 86 c 0,106,107
 536 86 536 86 536 134 c 0,108,109
 536 181 536 181 570 228 c 0,110,111
 606 280 606 280 650 280 c 0,112,113
 670 280 670 280 688 266 c 1,114,-1
 690 278 l 1,115,-1
 720 280 l 1,116,-1
 682 120 l 2,117,118
 684 119 684 119 687 118 c 0,119,120
 691 119 691 119 699 125 c 128,-1,121
 707 131 707 131 718 142 c 1,122,-1
 725 129 l 1,97,98
682 246 m 1,123,124
 678 250 678 250 669 258 c 0,125,126
 664 261 664 261 653 261 c 0,127,128
 634 261 634 261 613.5 239 c 128,-1,129
 593 217 593 217 581 186.5 c 128,-1,130
 569 156 569 156 569 136 c 0,131,132
 569 114 569 114 584 114 c 0,133,134
 612 114 612 114 644 154 c 0,135,136
 667 182 667 182 671 196 c 2,137,-1
 682 246 l 1,123,124
EndSplineSet
Validated: 33
EndChar

StartChar: florin
Encoding: 61636 61636 152
Width: 516
GlyphClass: 1
Flags: W
LayerCount: 3
Fore
SplineSet
645 385 m 0,0,1
 645 361 645 361 628 339 c 128,-1,2
 611 317 611 317 584 317 c 0,3,4
 551 317 551 317 551 355 c 0,5,6
 551 371 551 371 570 386 c 0,7,8
 596 406 596 406 602 415 c 1,9,10
 603 428 603 428 583 428 c 0,11,12
 525 428 525 428 496 345 c 0,13,14
 486 318 486 318 469 259 c 1,15,16
 469 259 469 259 565 259 c 1,17,-1
 565 237 l 1,18,19
 464 238 464 238 464 237 c 0,20,21
 451 193 451 193 434 137 c 0,22,23
 421 96 421 96 386 3 c 0,24,25
 351 -80 351 -80 286 -146 c 0,26,27
 238 -193 238 -193 172 -193 c 0,28,29
 152 -192 152 -192 130.5 -169.5 c 128,-1,30
 109 -147 109 -147 109 -122 c 0,31,32
 109 -96 109 -96 123.5 -75.5 c 128,-1,33
 138 -55 138 -55 163 -55 c 0,34,35
 205 -55 205 -55 205 -102 c 1,36,37
 201 -127 201 -127 182 -140.5 c 128,-1,38
 163 -154 163 -154 163 -156 c 0,39,40
 171 -165 171 -165 177 -165 c 0,41,42
 235 -165 235 -165 288 29 c 0,43,44
 306 90 306 90 347 237 c 1,45,46
 343 237 343 237 257 237 c 0,47,48
 224 237 224 237 205 237 c 1,49,50
 193 194 193 194 175 137 c 0,51,52
 162 96 162 96 127 3 c 0,53,54
 93 -80 93 -80 27 -146 c 0,55,56
 -20 -193 -20 -193 -86 -193 c 0,57,58
 -106 -192 -106 -192 -128 -169.5 c 128,-1,59
 -150 -147 -150 -147 -150 -122 c 0,60,61
 -150 -96 -150 -96 -135.5 -75.5 c 128,-1,62
 -121 -55 -121 -55 -95 -55 c 0,63,64
 -54 -55 -54 -55 -53 -102 c 1,65,66
 -58 -127 -58 -127 -77 -140.5 c 128,-1,67
 -96 -154 -96 -154 -96 -156 c 0,68,69
 -88 -165 -88 -165 -82 -165 c 0,70,71
 -23 -165 -23 -165 29 29 c 0,72,73
 47 90 47 90 88 237 c 1,74,-1
 2 237 l 1,75,-1
 2 259 l 1,76,-1
 97 259 l 1,77,78
 114 300 114 300 149 352 c 0,79,80
 215 451 215 451 325 450 c 0,81,82
 349 450 349 450 367.5 431 c 128,-1,83
 386 412 386 412 386 385 c 0,84,85
 386 361 386 361 369 339 c 128,-1,86
 352 317 352 317 325 317 c 0,87,88
 292 317 292 317 292 355 c 0,89,90
 292 371 292 371 311 386 c 0,91,92
 338 406 338 406 344 415 c 1,93,94
 344 428 344 428 324 428 c 0,95,96
 267 428 267 428 237 345 c 0,97,98
 227 318 227 318 211 259 c 1,99,100
 211 259 211 259 356 259 c 1,101,102
 373 300 373 300 407 352 c 0,103,104
 473 451 473 451 584 450 c 0,105,106
 608 450 608 450 626.5 431 c 128,-1,107
 645 412 645 412 645 385 c 0,0,1
EndSplineSet
Validated: 33
EndChar

StartChar: approxequal
Encoding: 61637 61637 153
Width: 343
GlyphClass: 1
Flags: W
LayerCount: 3
Fore
SplineSet
135 211 m 0,0,1
 146 213 146 213 155 213 c 0,2,3
 187 213 187 213 205 185 c 0,4,5
 220 162 220 162 220 129 c 0,6,7
 220 115 220 115 217 104 c 1,8,9
 244 107 244 107 273 128 c 0,10,11
 284 137 284 137 295 151 c 0,12,13
 312 174 312 174 314 177 c 2,14,-1
 329 169 l 1,15,16
 290 19 290 19 151 -510 c 1,17,-1
 112 -510 l 1,18,19
 134 -447 134 -447 169 -343 c 1,20,21
 201 -233 201 -233 220 -159 c 1,22,23
 140 -219 140 -219 88 -222 c 0,24,25
 47 -225 47 -225 21 -197 c 0,26,27
 -2 -172 -2 -172 -2 -136 c 0,28,29
 -2 -67 -2 -67 69 -49 c 0,30,31
 79 -46 79 -46 89 -46 c 0,32,33
 120 -46 120 -46 138 -74 c 0,34,35
 154 -98 154 -98 154 -131 c 0,36,37
 154 -144 154 -144 151 -155 c 1,38,39
 184 -152 184 -152 206 -132 c 0,40,41
 223 -117 223 -117 244 -69 c 0,42,43
 245 -68 245 -68 265.5 16.5 c 128,-1,44
 286 101 286 101 286 100 c 0,45,46
 207 41 207 41 154 38 c 0,47,48
 113 35 113 35 88.5 61 c 128,-1,49
 64 87 64 87 64 124 c 0,50,51
 64 193 64 193 135 211 c 0,0,1
EndSplineSet
Validated: 33
EndChar

StartChar: Delta
Encoding: 61638 61638 154
Width: 299
GlyphClass: 1
Flags: W
LayerCount: 3
Fore
SplineSet
-6 119 m 1,0,-1
 299 119 l 1,1,-1
 146 -145 l 1,2,-1
 -6 119 l 1,0,-1
147 -98 m 1,3,-1
 258 96 l 1,4,-1
 37 96 l 1,5,-1
 147 -98 l 1,3,-1
EndSplineSet
Validated: 1
EndChar

StartChar: guillemotleft
Encoding: 61639 61639 155
Width: 845
GlyphClass: 1
Flags: W
LayerCount: 3
Fore
SplineSet
0 0 m 1,0,-1
 507 507 l 1,1,-1
 634 507 l 1,2,-1
 127 0 l 1,3,-1
 0 0 l 1,0,-1
163 444 m 256,4,5
 186 444 186 444 203 427 c 128,-1,6
 220 410 220 410 220 387 c 256,7,8
 220 364 220 364 203.5 347 c 128,-1,9
 187 330 187 330 163 330 c 0,10,11
 140 330 140 330 123 347 c 128,-1,12
 106 364 106 364 106 387 c 0,13,14
 106 411 106 411 123 427.5 c 128,-1,15
 140 444 140 444 163 444 c 256,4,5
682 177 m 0,16,17
 705 177 705 177 722 160 c 128,-1,18
 739 143 739 143 739 120 c 0,19,20
 739 96 739 96 722 79.5 c 128,-1,21
 705 63 705 63 682 63 c 256,22,23
 659 63 659 63 642 80 c 128,-1,24
 625 97 625 97 625 120 c 256,25,26
 625 143 625 143 641.5 160 c 128,-1,27
 658 177 658 177 682 177 c 0,16,17
211 0 m 1,28,-1
 718 507 l 1,29,-1
 845 507 l 1,30,-1
 338 0 l 1,31,-1
 211 0 l 1,28,-1
EndSplineSet
Validated: 1
EndChar

StartChar: guillemotright
Encoding: 61640 61640 156
Width: 501
GlyphClass: 1
Flags: W
LayerCount: 3
Fore
SplineSet
92 204 m 1,0,-1
 92 228 l 1,1,-1
 350 228 l 1,2,-1
 350 204 l 1,3,-1
 92 204 l 1,0,-1
92 77 m 1,4,-1
 92 101 l 1,5,-1
 350 101 l 1,6,-1
 350 77 l 1,7,-1
 92 77 l 1,4,-1
EndSplineSet
Validated: 1
EndChar

StartChar: ellipsis
Encoding: 61641 61641 157
Width: 427
GlyphClass: 1
Flags: W
LayerCount: 3
Fore
SplineSet
196 20 m 1,0,1
 197 14 197 14 194 1 c 0,2,3
 185 -36 185 -36 152.5 -61.5 c 128,-1,4
 120 -87 120 -87 75 -92 c 0,5,6
 32 -96 32 -96 13 -69 c 0,7,8
 6 -61 6 -61 3 -37 c 0,9,10
 0 -15 0 -15 3 -4 c 0,11,12
 11 24 11 24 38 50 c 0,13,14
 73 83 73 83 118 83 c 0,15,16
 169 83 169 83 177 72 c 1,17,18
 179 124 179 124 177 226 c 1,19,-1
 53 160 l 1,20,-1
 53 184 l 1,21,-1
 177 251 l 1,22,-1
 177 579 l 1,23,-1
 193 580 l 1,24,25
 193 557 193 557 199 544 c 0,26,27
 209 517 209 517 244 479 c 0,28,29
 318 395 318 395 343 339 c 1,30,-1
 431 387 l 1,31,-1
 431 363 l 1,32,-1
 352 320 l 1,33,34
 360 297 360 297 364 278 c 0,35,36
 371 240 371 240 372 199 c 0,37,38
 373 160 373 160 354 94 c 0,39,40
 352 81 352 81 339 60 c 1,41,-1
 327 66 l 1,42,43
 354 121 354 121 355 191 c 0,44,45
 357 241 357 241 331 308 c 1,46,-1
 197 237 l 1,47,48
 197 253 197 253 197 180 c 0,49,50
 197 116 197 116 197 76 c 0,51,52
 197 58 197 58 197 19 c 1,53,-1
 196 20 l 1,0,1
197 403 m 1,54,-1
 197 261 l 1,55,-1
 321 328 l 1,56,57
 281 409 281 409 197 403 c 1,54,-1
EndSplineSet
Validated: 33
EndChar

StartChar: Agrave
Encoding: 61643 61643 159
Width: 375
GlyphClass: 1
Flags: W
LayerCount: 3
Fore
SplineSet
102 -241 m 1,0,-1
 -1 -241 l 1,1,-1
 270 264 l 1,2,-1
 374 264 l 1,3,-1
 102 -241 l 1,0,-1
EndSplineSet
Validated: 1
EndChar

StartChar: OE
Encoding: 61646 61646 160
Width: 287
GlyphClass: 1
Flags: W
LayerCount: 3
Fore
SplineSet
257 -217 m 1,0,1
 212 -197 212 -197 175 -197 c 0,2,3
 143 -197 143 -197 120.5 -217 c 128,-1,4
 98 -237 98 -237 98 -270 c 0,5,6
 98 -298 98 -298 149 -349 c 1,7,-1
 137 -359 l 1,8,9
 103 -337 103 -337 77 -315 c 0,10,11
 16 -262 16 -262 9 -216 c 0,12,13
 3 -180 3 -180 26 -150.5 c 128,-1,14
 49 -121 49 -121 90 -119 c 0,15,16
 120 -117 120 -117 166 -127 c 1,17,18
 15 21 15 21 27 49 c 1,19,20
 113 152 113 152 113 228 c 0,21,22
 113 271 113 271 43 377 c 1,23,-1
 57 387 l 1,24,-1
 239 158 l 1,25,26
 153 50 153 50 153 -17 c 0,27,28
 153 -70 153 -70 208 -139 c 0,29,30
 223 -156 223 -156 238 -173 c 0,31,32
 259 -197 259 -197 259 -201 c 2,33,-1
 257 -217 l 1,0,1
EndSplineSet
Validated: 33
EndChar

StartChar: oe
Encoding: 61647 61647 161
Width: 319
GlyphClass: 1
Flags: W
LayerCount: 3
Fore
SplineSet
8 -1 m 0,0,1
 27 53 27 53 85.5 90 c 128,-1,2
 144 127 144 127 207 126 c 0,3,4
 258 126 258 126 289 100 c 128,-1,5
 320 74 320 74 320 34 c 0,6,7
 320 15 320 15 312 -4 c 0,8,9
 293 -58 293 -58 234 -95 c 128,-1,10
 175 -132 175 -132 112 -132 c 0,11,12
 62 -131 62 -131 31 -105 c 128,-1,13
 0 -79 0 -79 0 -39 c 0,14,15
 0 -21 0 -21 8 -1 c 0,0,1
EndSplineSet
Validated: 33
EndChar

StartChar: endash
Encoding: 61648 61648 162
Width: 300
GlyphClass: 1
Flags: W
LayerCount: 3
Fore
SplineSet
-1 136 m 1,0,-1
 301 136 l 1,1,-1
 301 -133 l 1,2,-1
 -1 -133 l 1,3,-1
 -1 136 l 1,0,-1
EndSplineSet
Validated: 1
EndChar

StartChar: emdash
Encoding: 61649 61649 163
Width: 372
GlyphClass: 1
Flags: W
LayerCount: 3
Fore
SplineSet
186 144 m 1,0,-1
 372 -135 l 1,1,-1
 0 -135 l 1,2,-1
 186 144 l 1,0,-1
EndSplineSet
Validated: 1
EndChar

StartChar: quotedblleft
Encoding: 61650 61650 164
Width: 384
GlyphClass: 1
Flags: W
LayerCount: 3
Fore
SplineSet
234 70 m 1,0,-1
 149 48 l 1,1,-1
 149 -70 l 1,2,-1
 234 -48 l 1,3,-1
 234 70 l 1,0,-1
149 120 m 1,4,-1
 261 148 l 1,5,-1
 261 -281 l 1,6,-1
 234 -281 l 1,7,-1
 234 -120 l 1,8,-1
 122 -147 l 1,9,-1
 122 287 l 1,10,-1
 149 287 l 1,11,-1
 149 120 l 1,4,-1
385 0 m 0,12,13
 385 -127 385 -127 299 -184 c 1,14,-1
 296 -177 l 1,15,16
 355 -116 355 -116 355 0 c 0,17,18
 355 57 355 57 346 90 c 0,19,20
 334 138 334 138 296 177 c 1,21,-1
 299 184 l 1,22,23
 330 167 330 167 355 119 c 0,24,25
 385 63 385 63 385 0 c 0,12,13
87 -177 m 1,26,-1
 84 -184 l 1,27,28
 -2 -126 -2 -126 -2 0 c 0,29,30
 -2 63 -2 63 27 117 c 0,31,32
 51 163 51 163 84 184 c 1,33,-1
 87 177 l 1,34,35
 50 138 50 138 37 90 c 0,36,37
 28 57 28 57 28 0 c 0,38,39
 28 -116 28 -116 87 -177 c 1,26,-1
EndSplineSet
Validated: 1
EndChar

StartChar: quotedblright
Encoding: 61651 61651 165
Width: 512
GlyphClass: 1
Flags: W
LayerCount: 3
Fore
SplineSet
513 0 m 0,0,1
 513 -127 513 -127 427 -184 c 1,2,-1
 424 -177 l 1,3,4
 483 -116 483 -116 483 0 c 0,5,6
 483 57 483 57 474 90 c 0,7,8
 462 138 462 138 424 177 c 1,9,-1
 427 184 l 1,10,11
 458 167 458 167 483 119 c 0,12,13
 513 63 513 63 513 0 c 0,0,1
88 -177 m 1,14,-1
 85 -184 l 1,15,16
 -1 -126 -1 -126 -1 0 c 0,17,18
 -1 63 -1 63 28 117 c 0,19,20
 52 163 52 163 85 184 c 1,21,-1
 88 177 l 1,22,23
 51 138 51 138 38 90 c 0,24,25
 29 57 29 57 29 0 c 0,26,27
 29 -116 29 -116 88 -177 c 1,14,-1
152 309 m 1,28,-1
 152 64 l 1,29,30
 186 96 186 96 222 96 c 0,31,32
 271 96 271 96 273 36 c 0,33,34
 274 17 274 17 264 -9 c 0,35,36
 257 -26 257 -26 237 -48 c 1,37,38
 181 -87 181 -87 125 -128 c 1,39,-1
 125 309 l 1,40,-1
 152 309 l 1,28,-1
365 48 m 0,41,42
 356 58 356 58 343 58 c 0,43,44
 326 58 326 58 316.5 39 c 128,-1,45
 307 20 307 20 307 -28 c 2,46,-1
 307 -90 l 1,47,48
 325 -78 325 -78 348 -55 c 0,49,50
 368 -34 368 -34 375 -7 c 0,51,52
 383 27 383 27 365 48 c 0,41,42
307 309 m 1,53,-1
 307 65 l 1,54,55
 341 96 341 96 377 96 c 0,56,57
 426 96 426 96 429 36 c 0,58,59
 429 17 429 17 420 -8 c 0,60,61
 413 -26 413 -26 392 -48 c 1,62,63
 336 -87 336 -87 280 -127 c 1,64,-1
 280 309 l 1,65,-1
 307 309 l 1,53,-1
208 48 m 0,66,67
 199 58 199 58 186 58 c 0,68,69
 170 58 170 58 160 38 c 0,70,71
 152 24 152 24 152 -28 c 2,72,-1
 152 -90 l 1,73,74
 166 -80 166 -80 191 -55 c 0,75,76
 211 -34 211 -34 218 -7 c 0,77,78
 226 27 226 27 208 48 c 0,66,67
EndSplineSet
Validated: 33
EndChar

StartChar: quoteleft
Encoding: 61652 61652 166
Width: 676
GlyphClass: 1
Flags: W
LayerCount: 3
Fore
SplineSet
0 0 m 1,0,-1
 507 507 l 1,1,-1
 634 507 l 1,2,-1
 127 0 l 1,3,-1
 0 0 l 1,0,-1
161 442 m 0,4,5
 184 442 184 442 200.5 425.5 c 128,-1,6
 217 409 217 409 217 386 c 0,7,8
 217 362 217 362 200.5 345 c 128,-1,9
 184 328 184 328 161 328 c 0,10,11
 137 328 137 328 120 345 c 128,-1,12
 103 362 103 362 103 386 c 0,13,14
 103 409 103 409 120 425.5 c 128,-1,15
 137 442 137 442 161 442 c 0,4,5
468 177 m 0,16,17
 491 177 491 177 508 160 c 128,-1,18
 525 143 525 143 525 120 c 0,19,20
 525 96 525 96 508 79.5 c 128,-1,21
 491 63 491 63 468 63 c 256,22,23
 445 63 445 63 428 80 c 128,-1,24
 411 97 411 97 411 120 c 256,25,26
 411 143 411 143 427.5 160 c 128,-1,27
 444 177 444 177 468 177 c 0,16,17
EndSplineSet
Validated: 1
EndChar

StartChar: quoteright
Encoding: 61653 61653 167
Width: 676
GlyphClass: 1
Flags: W
LayerCount: 3
Fore
SplineSet
0 0 m 1,0,-1
 507 507 l 1,1,-1
 634 507 l 1,2,-1
 127 0 l 1,3,-1
 0 0 l 1,0,-1
EndSplineSet
Validated: 1
EndChar

StartChar: divide
Encoding: 61654 61654 168
Width: 254
GlyphClass: 1
Flags: W
LayerCount: 3
Fore
SplineSet
0 444 m 1,0,-1
 254 444 l 1,1,-1
 254 -444 l 1,2,-1
 0 -444 l 1,3,-1
 0 444 l 1,0,-1
42 -359 m 1,4,-1
 211 -359 l 1,5,-1
 211 359 l 1,6,-1
 42 359 l 1,7,-1
 42 -359 l 1,4,-1
EndSplineSet
Validated: 1
EndChar

StartChar: lozenge
Encoding: 61655 61655 169
Width: 717
GlyphClass: 1
Flags: W
LayerCount: 3
Fore
SplineSet
589 78 m 0,0,1
 570 78 570 78 553 86 c 0,2,3
 532 97 532 97 536 113 c 2,4,-1
 597 349 l 1,5,-1
 573 354 l 2,6,7
 569 354 569 354 572 360 c 256,8,9
 575 366 575 366 579 366 c 0,10,11
 588 365 588 365 607 370 c 0,12,13
 617 372 617 372 644 389 c 1,14,-1
 597 226 l 1,15,16
 631 268 631 268 670 268 c 0,17,18
 716 268 716 268 716 214 c 0,19,20
 716 164 716 164 677.5 121.5 c 128,-1,21
 639 79 639 79 589 78 c 0,0,1
586 183 m 1,22,-1
 567 107 l 1,23,24
 572 102 572 102 576 98.5 c 128,-1,25
 580 95 580 95 592 96 c 0,26,27
 632 100 632 100 663 150 c 0,28,29
 689 194 689 194 689 230 c 0,30,31
 689 250 689 250 671 250 c 0,32,33
 649 250 649 250 619 221 c 0,34,35
 595 199 595 199 586 183 c 1,22,-1
210 282 m 0,36,37
 166 274 166 274 166 225 c 0,38,39
 166 205 166 205 176 187 c 0,40,41
 193 154 193 154 230 123 c 0,42,43
 236 118 236 118 253 105 c 1,44,45
 284 110 284 110 303.5 137.5 c 128,-1,46
 323 165 323 165 323 198 c 0,47,48
 323 236 323 236 298.5 260 c 128,-1,49
 274 284 274 284 235 284 c 0,50,51
 223 284 223 284 210 282 c 0,36,37
222 303 m 0,52,53
 251 304 251 304 286 294.5 c 128,-1,54
 321 285 321 285 336 269 c 0,55,56
 366 237 366 237 366 193 c 0,57,58
 366 152 366 152 341.5 119.5 c 128,-1,59
 317 87 317 87 278 74 c 1,60,61
 316 21 316 21 316 -29 c 0,62,63
 316 -84 316 -84 272 -118 c 128,-1,64
 228 -152 228 -152 184 -153 c 0,65,66
 98 -155 98 -155 49 -118.5 c 128,-1,67
 0 -82 0 -82 0 -28 c 0,68,69
 0 -11 0 -11 6 6 c 0,70,71
 24 64 24 64 122 107 c 1,72,73
 93 135 93 135 85 176 c 0,74,75
 77 218 77 218 108 259 c 0,76,77
 127 283 127 283 150.5 292 c 128,-1,78
 174 301 174 301 222 303 c 0,52,53
148 74 m 1,79,80
 117 70 117 70 93.5 48.5 c 128,-1,81
 70 27 70 27 62 0 c 0,82,83
 56 -20 56 -20 56 -45 c 0,84,85
 56 -87 56 -87 75 -104 c 0,86,87
 110 -134 110 -134 150 -134 c 0,88,89
 183 -134 183 -134 209.5 -115 c 128,-1,90
 236 -96 236 -96 236 -67 c 0,91,92
 236 -32 236 -32 198 19 c 0,93,94
 165 64 165 64 148 74 c 1,79,80
424 79 m 0,95,96
 386 79 386 79 386 113 c 0,97,98
 386 122 386 122 389 132 c 0,99,100
 423 224 423 224 417 253 c 0,101,102
 416 262 416 262 405 255 c 2,103,-1
 378 236 l 1,104,-1
 368 246 l 1,105,106
 383 258 383 258 397 269 c 0,107,108
 418 284 418 284 432 282 c 0,109,110
 453 280 453 280 453 248 c 0,111,112
 453 223 453 223 439 183 c 128,-1,113
 425 143 425 143 422 123 c 0,114,115
 420 111 420 111 422.5 107 c 128,-1,116
 425 103 425 103 433 104 c 0,117,118
 458 106 458 106 490 153 c 128,-1,119
 522 200 522 200 518 233 c 0,120,121
 518 238 518 238 510 240 c 2,122,-1
 507 242 l 2,123,124
 498 245 498 245 495 257 c 0,125,126
 488 280 488 280 515 280 c 0,127,128
 541 280 541 280 541 235 c 256,129,130
 541 190 541 190 497 134.5 c 128,-1,131
 453 79 453 79 424 79 c 0,95,96
EndSplineSet
Validated: 33
EndChar

StartChar: ydieresis
Encoding: 61656 61656 170
Width: 127
GlyphClass: 1
Flags: W
LayerCount: 3
Fore
SplineSet
62 8 m 1,0,-1
 0 2 l 1,1,-1
 62 232 l 1,2,-1
 125 2 l 1,3,-1
 62 8 l 1,0,-1
EndSplineSet
Validated: 1
EndChar

StartChar: Ydieresis
Encoding: 61657 61657 171
Width: 487
GlyphClass: 1
Flags: W
LayerCount: 3
Fore
SplineSet
484 76 m 0,0,1
 474 54 474 54 448 54 c 0,2,3
 429 54 429 54 422 64 c 0,4,5
 418 69 418 69 418 80 c 0,6,7
 418 85 418 85 418 94 c 0,8,9
 419 103 419 103 419 106 c 0,10,11
 419 120 419 120 409 117 c 0,12,13
 392 111 392 111 378 85 c 0,14,15
 368 63 368 63 357 41 c 0,16,17
 344 14 344 14 282 -123 c 1,18,-1
 211 -123 l 1,19,20
 236 -73 236 -73 289 46 c 0,21,22
 313 103 313 103 304 118 c 0,23,24
 297 129 297 129 282 129 c 0,25,26
 260 129 260 129 195 90 c 1,27,28
 205 65 205 65 209 40 c 0,29,30
 222 -27 222 -27 200 -73 c 0,31,32
 175 -126 175 -126 130 -126 c 0,33,34
 103 -126 103 -126 86.5 -106 c 128,-1,35
 70 -86 70 -86 70 -59 c 0,36,37
 69 -22 69 -22 94 30 c 1,38,39
 81 27 81 27 69 27 c 0,40,41
 41 27 41 27 23 46 c 128,-1,42
 5 65 5 65 5 93 c 0,43,44
 5 136 5 136 38 154 c 0,45,46
 63 166 63 166 90 166 c 0,47,48
 125 166 125 166 150 149 c 1,49,50
 163 183 163 183 191 258 c 1,51,52
 238 256 238 256 255 258 c 1,53,54
 221 177 221 177 198 117 c 1,55,56
 215 129 215 129 251 148 c 0,57,58
 279 160 279 160 303 160 c 0,59,60
 348 160 348 160 364 118 c 1,61,62
 403 153 403 153 442 153 c 0,63,64
 467 153 467 153 482 135 c 0,65,66
 491 123 491 123 491 104 c 0,67,68
 491 89 491 89 484 76 c 0,0,1
133 112 m 1,69,70
 133 124 133 124 120 135 c 128,-1,71
 107 146 107 146 85 145 c 0,72,73
 58 144 58 144 42 126 c 128,-1,74
 26 108 26 108 26 86 c 0,75,76
 26 78 26 78 29 72 c 0,77,78
 37 45 37 45 71 45 c 0,79,80
 91 45 91 45 110 61 c 1,81,-1
 133 112 l 1,69,70
177 63 m 1,82,83
 123 -48 123 -48 123 -71 c 0,84,85
 123 -89 123 -89 140 -93 c 1,86,87
 191 -90 191 -90 191 -12 c 0,88,89
 191 33 191 33 177 63 c 1,82,83
EndSplineSet
Validated: 33
EndChar

StartChar: fraction
Encoding: 61658 61658 172
Width: 1086
GlyphClass: 1
Flags: W
LayerCount: 3
Fore
SplineSet
579 0 m 1,0,-1
 0 0 l 1,1,-1
 507 507 l 1,2,-1
 1086 507 l 1,3,-1
 579 0 l 1,0,-1
511 24 m 1,4,-1
 966 483 l 1,5,-1
 575 483 l 1,6,-1
 120 24 l 1,7,-1
 511 24 l 1,4,-1
EndSplineSet
Validated: 1
EndChar

StartChar: currency
Encoding: 61659 61659 173
Width: 1072
GlyphClass: 1
Flags: W
LayerCount: 3
Fore
SplineSet
604 305 m 1,0,-1
 558 224 l 1,1,-1
 368 224 l 1,2,-1
 341 175 l 1,3,4
 379 163 379 163 453 131 c 1,5,6
 528 88 528 88 528 23 c 0,7,8
 528 -15 528 -15 499.5 -61.5 c 128,-1,9
 471 -108 471 -108 438 -128 c 0,10,11
 402 -148 402 -148 378 -155 c 128,-1,12
 354 -162 354 -162 312 -162 c 0,13,14
 276 -161 276 -161 248 -147 c 0,15,16
 215 -129 215 -129 221 -103 c 0,17,18
 227 -79 227 -79 259 -79 c 0,19,20
 278 -79 278 -79 295 -110 c 128,-1,21
 312 -141 312 -141 335 -139 c 0,22,23
 382 -136 382 -136 423 -96.5 c 128,-1,24
 464 -57 464 -57 464 -10 c 0,25,26
 464 33 464 33 409 65 c 0,27,28
 370 88 370 88 280 114 c 1,29,-1
 382 291 l 1,30,-1
 546 291 l 2,31,32
 570 291 570 291 581 298 c 0,33,34
 589 301 589 301 601 308 c 1,35,-1
 604 305 l 1,0,-1
208 -153 m 1,36,-1
 3 -153 l 1,37,-1
 8 -140 l 1,38,-1
 50 -123 l 2,39,40
 67 -115 67 -115 74.5 -106.5 c 128,-1,41
 82 -98 82 -98 87 -74 c 2,42,-1
 147 199 l 2,43,44
 153 225 153 225 149 228 c 0,45,46
 145 233 145 233 119 226 c 2,47,-1
 82 217 l 1,48,-1
 80 228 l 1,49,-1
 242 296 l 1,50,-1
 155 -79 l 2,51,52
 150 -100 150 -100 155 -110 c 0,53,54
 160 -124 160 -124 173 -128 c 2,55,-1
 210 -141 l 1,56,-1
 208 -153 l 1,36,-1
818 83 m 0,57,58
 785 82 785 82 785 103 c 0,59,60
 785 107 785 107 787 113 c 2,61,-1
 832 234 l 2,62,63
 841 256 841 256 825 257 c 0,64,65
 804 258 804 258 789 233 c 1,66,-1
 733 89 l 1,67,-1
 698 89 l 1,68,-1
 757 234 l 1,69,70
 757 256 757 256 758 248 c 1,71,72
 757 260 757 260 747 261 c 0,73,74
 731 263 731 263 711 233 c 1,75,-1
 653 89 l 1,76,-1
 617 89 l 1,77,-1
 677 236 l 1,78,79
 677 256 677 256 668 258 c 0,80,81
 649 260 649 260 624 226 c 0,82,83
 607 202 607 202 603 189 c 1,84,-1
 580 189 l 1,85,86
 634 280 634 280 677 277 c 0,87,88
 693 276 693 276 703 255 c 1,89,90
 719 279 719 279 753 279 c 0,91,92
 771 279 771 279 779 254 c 1,93,94
 804 282 804 282 837 276 c 0,95,96
 864 272 864 272 867 234 c 1,97,-1
 820 116 l 2,98,99
 817 108 817 108 826 106 c 0,100,101
 838 105 838 105 856 136 c 1,102,-1
 864 125 l 2,103,104
 866 120 866 120 849 102 c 128,-1,105
 832 84 832 84 818 83 c 0,57,58
1068 126 m 1,106,107
 1054 112 1054 112 1036 96 c 0,108,109
 1024 84 1024 84 1004 84 c 0,110,111
 988 84 988 84 993 104 c 2,112,-1
 1003 144 l 1,113,114
 957 82 957 82 921 82 c 0,115,116
 880 82 880 82 880 130 c 0,117,118
 880 177 880 177 913 224 c 0,119,120
 950 276 950 276 993 276 c 0,121,122
 1013 276 1013 276 1031 262 c 1,123,-1
 1033 274 l 1,124,-1
 1064 276 l 1,125,-1
 1026 116 l 2,126,127
 1028 115 1028 115 1030 114 c 0,128,129
 1035 115 1035 115 1042.5 121.5 c 128,-1,130
 1050 128 1050 128 1061 138 c 1,131,-1
 1068 126 l 1,106,107
1026 242 m 1,132,133
 1022 247 1022 247 1013 254 c 0,134,135
 1007 258 1007 258 997 258 c 0,136,137
 977 258 977 258 957 235.5 c 128,-1,138
 937 213 937 213 925 182.5 c 128,-1,139
 913 152 913 152 913 132 c 0,140,141
 913 110 913 110 928 110 c 0,142,143
 955 110 955 110 987 150 c 0,144,145
 1010 179 1010 179 1015 192 c 2,146,-1
 1026 242 l 1,132,133
EndSplineSet
Validated: 33
EndChar

StartChar: guilsinglleft
Encoding: 61660 61660 174
Width: 253
GlyphClass: 1
Flags: W
LayerCount: 3
Fore
SplineSet
132 35 m 1,0,1
 145 41 145 41 162 58 c 1,2,3
 166 69 166 69 169.5 92.5 c 128,-1,4
 173 116 173 116 171 125 c 1,5,-1
 252 129 l 1,6,-1
 248 44 l 1,7,8
 244 46 244 46 225 44 c 0,9,10
 201 43 201 43 182 33 c 0,11,12
 172 29 172 29 167.5 22 c 128,-1,13
 163 15 163 15 158 8 c 1,14,-1
 158 -7 l 1,15,16
 170 -26 170 -26 181.5 -31 c 128,-1,17
 193 -36 193 -36 215.5 -39.5 c 128,-1,18
 238 -43 238 -43 248 -40 c 1,19,-1
 252 -124 l 1,20,-1
 167 -118 l 1,21,22
 167 -102 167 -102 166 -86 c 0,23,24
 166 -73 166 -73 157 -55 c 0,25,26
 153 -45 153 -45 132 -29 c 1,27,-1
 118 -29 l 1,28,29
 100 -39 100 -39 93 -55 c 0,30,31
 77 -91 77 -91 84 -118 c 1,32,-1
 0 -124 l 1,33,-1
 6 -38 l 1,34,35
 10 -39 10 -39 27 -38 c 0,36,37
 50 -37 50 -37 70 -27 c 0,38,39
 85 -20 85 -20 96 -7 c 1,40,-1
 96 8 l 1,41,42
 82 32 82 32 70 37 c 0,43,44
 33 53 33 53 6 46 c 1,45,-1
 0 129 l 1,46,-1
 87 125 l 1,47,48
 85 121 85 121 87 103 c 0,49,50
 88 80 88 80 96.5 62.5 c 128,-1,51
 105 45 105 45 118 35 c 1,52,-1
 132 35 l 1,0,1
EndSplineSet
Validated: 33
EndChar

StartChar: guilsinglright
Encoding: 61661 61661 175
Width: 515
GlyphClass: 1
Flags: W
LayerCount: 3
Fore
SplineSet
0 254 m 1,0,-1
 35 254 l 1,1,-1
 35 129 l 1,2,-1
 472 129 l 1,3,-1
 472 254 l 1,4,-1
 507 254 l 1,5,-1
 507 -254 l 1,6,-1
 472 -254 l 1,7,-1
 472 -129 l 1,8,-1
 35 -129 l 1,9,-1
 35 -254 l 1,10,-1
 0 -254 l 1,11,-1
 0 254 l 1,0,-1
35 -59 m 1,12,-1
 472 -59 l 1,13,-1
 472 59 l 1,14,-1
 35 59 l 1,15,-1
 35 -59 l 1,12,-1
EndSplineSet
Validated: 1
EndChar

StartChar: fi
Encoding: 61662 61662 176
Width: 482
GlyphClass: 1
Flags: W
LayerCount: 3
Fore
SplineSet
338 246 m 1,0,1
 341 445 341 445 252 456 c 1,2,-1
 252 246 l 1,3,-1
 338 246 l 1,0,1
252 226 m 1,4,-1
 252 23 l 1,5,6
 304 29 304 29 324 95 c 0,7,8
 336 138 336 138 338 226 c 1,9,-1
 252 226 l 1,4,-1
252 -80 m 1,10,-1
 231 -80 l 1,11,-1
 231 -3 l 1,12,13
 151 0 151 0 98 70 c 0,14,15
 50 135 50 135 47 226 c 1,16,-1
 -30 226 l 1,17,-1
 -30 246 l 1,18,-1
 47 246 l 1,19,20
 51 341 51 341 97 407 c 0,21,22
 149 479 149 479 231 483 c 1,23,-1
 231 560 l 1,24,-1
 252 560 l 1,25,-1
 252 483 l 1,26,27
 332 478 332 478 384 406 c 0,28,29
 432 338 432 338 437 246 c 1,30,-1
 513 246 l 1,31,-1
 513 226 l 1,32,-1
 437 226 l 1,33,34
 434 137 434 137 384 72 c 0,35,36
 332 3 332 3 252 -3 c 1,37,-1
 252 -80 l 1,10,-1
231 456 m 1,38,39
 177 450 177 450 157 382 c 0,40,41
 144 336 144 336 145 246 c 1,42,-1
 231 246 l 1,43,-1
 231 456 l 1,38,39
231 23 m 1,44,-1
 231 226 l 1,45,-1
 145 226 l 1,46,47
 147 139 147 139 160 95 c 0,48,49
 180 28 180 28 231 23 c 1,44,-1
EndSplineSet
Validated: 33
EndChar

StartChar: fl
Encoding: 61663 61663 177
Width: 390
GlyphClass: 1
Flags: W
LayerCount: 3
Fore
SplineSet
0 -1 m 1,0,-1
 0 39 l 1,1,-1
 301 152 l 1,2,-1
 0 264 l 1,3,-1
 0 304 l 1,4,-1
 397 152 l 1,5,-1
 0 -1 l 1,0,-1
118 367 m 256,6,7
 118 388 118 388 133 403 c 128,-1,8
 148 418 148 418 170 418 c 0,9,10
 191 418 191 418 206.5 403 c 128,-1,11
 222 388 222 388 222 367 c 256,12,13
 222 346 222 346 206.5 331.5 c 128,-1,14
 191 317 191 317 170 317 c 0,15,16
 148 317 148 317 133 331.5 c 128,-1,17
 118 346 118 346 118 367 c 256,6,7
EndSplineSet
Validated: 1
EndChar

StartChar: daggerdbl
Encoding: 61664 61664 178
Width: 296
GlyphClass: 1
Flags: W
LayerCount: 3
Fore
SplineSet
0 211 m 1,0,-1
 296 211 l 1,1,-1
 148 0 l 1,2,-1
 0 211 l 1,0,-1
EndSplineSet
Validated: 1
EndChar

StartChar: periodcentered
Encoding: 61665 61665 179
Width: 267
GlyphClass: 1
Flags: W
LayerCount: 3
Fore
SplineSet
21 0 m 1,0,-1
 131 -110 l 1,1,-1
 241 0 l 1,2,-1
 131 110 l 1,3,-1
 21 0 l 1,0,-1
131 136 m 1,4,-1
 267 0 l 1,5,-1
 131 -136 l 1,6,-1
 -5 0 l 1,7,-1
 131 136 l 1,4,-1
EndSplineSet
Validated: 1
EndChar

StartChar: quotesinglbase
Encoding: 61666 61666 180
Width: 283
GlyphClass: 1
Flags: W
LayerCount: 3
Fore
SplineSet
0 0 m 1,0,-1
 142 142 l 1,1,-1
 283 0 l 1,2,-1
 141 -142 l 1,3,-1
 0 0 l 1,0,-1
EndSplineSet
Validated: 1
EndChar

StartChar: quotedblbase
Encoding: 61667 61667 181
Width: 202
GlyphClass: 1
Flags: W
LayerCount: 3
Fore
SplineSet
0 249 m 1,0,-1
 205 249 l 1,1,-1
 205 -1 l 1,2,-1
 0 -1 l 1,3,-1
 0 249 l 1,0,-1
EndSplineSet
Validated: 1
EndChar

StartChar: perthousand
Encoding: 61668 61668 182
Width: 304
GlyphClass: 1
Flags: W
LayerCount: 3
Fore
SplineSet
72 213 m 0,0,1
 82 215 82 215 91 215 c 0,2,3
 123 215 123 215 141 187 c 0,4,5
 157 163 157 163 157 131 c 0,6,7
 157 117 157 117 153 106 c 1,8,9
 189 110 189 110 209 130 c 0,10,11
 222 145 222 145 251 179 c 1,12,-1
 265 171 l 1,13,-1
 154 -248 l 1,14,-1
 114 -248 l 1,15,16
 133 -189 133 -189 170.5 -82 c 128,-1,17
 208 25 208 25 223 103 c 1,18,19
 142 43 142 43 91 39 c 0,20,21
 50 37 50 37 25.5 63 c 128,-1,22
 1 89 1 89 1 126 c 0,23,24
 1 195 1 195 72 213 c 0,0,1
EndSplineSet
Validated: 33
EndChar

StartChar: Acircumflex
Encoding: 61669 61669 183
Width: 601
GlyphClass: 1
Flags: W
LayerCount: 3
Fore
SplineSet
340 967 m 0,0,1
 350 970 350 970 360 970 c 0,2,3
 391 970 391 970 410 942 c 0,4,5
 425 918 425 918 425 885 c 0,6,7
 425 872 425 872 422 861 c 1,8,9
 451 863 451 863 473 879 c 128,-1,10
 495 895 495 895 519 933 c 1,11,-1
 533 924 l 1,12,-1
 154 -509 l 1,13,-1
 114 -509 l 1,14,15
 136 -456 136 -456 169 -359 c 1,16,17
 198 -247 198 -247 226 -153 c 1,18,19
 139 -219 139 -219 91 -222 c 0,20,21
 50 -224 50 -224 25.5 -198 c 128,-1,22
 1 -172 1 -172 1 -136 c 0,23,24
 1 -66 1 -66 72 -49 c 0,25,26
 82 -46 82 -46 91 -46 c 0,27,28
 123 -46 123 -46 141 -74 c 0,29,30
 157 -98 157 -98 157 -130 c 0,31,32
 157 -144 157 -144 153 -155 c 1,33,34
 184 -152 184 -152 209 -134 c 0,35,36
 223 -124 223 -124 229 -115 c 0,37,38
 241 -101 241 -101 248 -75 c 0,39,40
 275 25 275 25 296 108 c 1,41,42
 260 81 260 81 235 66 c 0,43,44
 189 38 189 38 158 36 c 0,45,46
 117 34 117 34 92.5 60 c 128,-1,47
 68 86 68 86 68 122 c 0,48,49
 68 192 68 192 139 210 c 0,50,51
 149 212 149 212 159 212 c 0,52,53
 190 212 190 212 208 184 c 0,54,55
 224 160 224 160 224 128 c 0,56,57
 224 114 224 114 221 103 c 1,58,59
 250 106 250 106 279 125 c 0,60,61
 305 142 305 142 320 199 c 0,62,63
 343 287 343 287 360 357 c 1,64,65
 324 330 324 330 300 316 c 0,66,67
 255 289 255 289 224 287 c 0,68,69
 183 285 183 285 158.5 311 c 128,-1,70
 134 337 134 337 134 374 c 0,71,72
 134 443 134 443 205 461 c 0,73,74
 215 463 215 463 225 463 c 0,75,76
 256 463 256 463 275 435 c 0,77,78
 290 411 290 411 290 379 c 0,79,80
 290 365 290 365 287 354 c 1,81,82
 318 357 318 357 343.5 374.5 c 128,-1,83
 369 392 369 392 383 441 c 1,84,-1
 383 441 l 1,85,86
 413 562 413 562 425 602 c 1,87,88
 344 541 344 541 291 538 c 0,89,90
 251 536 251 536 226 562 c 128,-1,91
 201 588 201 588 201 624 c 0,92,93
 201 694 201 694 273 712 c 0,94,95
 283 714 283 714 292 714 c 0,96,97
 324 714 324 714 342 686 c 0,98,99
 357 662 357 662 357 630 c 0,100,101
 357 616 357 616 354 605 c 1,102,103
 394 609 394 609 413 625 c 0,104,105
 442 651 442 651 451 689 c 2,106,-1
 462 732 l 2,107,108
 482 816 482 816 491 857 c 1,109,110
 411 797 411 797 359 794 c 0,111,112
 318 791 318 791 293 819 c 0,113,114
 269 844 269 844 269 880 c 0,115,116
 269 949 269 949 340 967 c 0,0,1
EndSplineSet
Validated: 33
EndChar

StartChar: Ecircumflex
Encoding: 61670 61670 184
Width: 713
GlyphClass: 1
Flags: W
LayerCount: 3
Fore
SplineSet
301 254 m 0,0,1
 255 255 255 255 227 278 c 128,-1,2
 199 301 199 301 199 331 c 0,3,4
 199 382 199 382 255 409 c 1,5,6
 209 433 209 433 210 472 c 0,7,8
 210 510 210 510 237.5 534 c 128,-1,9
 265 558 265 558 303 557 c 0,10,11
 337 556 337 556 363.5 534 c 128,-1,12
 390 512 390 512 389 478 c 0,13,14
 389 441 389 441 350 418 c 1,15,16
 402 385 402 385 401 338 c 0,17,18
 400 303 400 303 369.5 278 c 128,-1,19
 339 253 339 253 301 254 c 0,0,1
303 538 m 0,20,21
 280 539 280 539 266 525.5 c 128,-1,22
 252 512 252 512 252 492 c 0,23,24
 252 463 252 463 302 443 c 2,25,-1
 328 432 l 1,26,27
 356 445 356 445 357 480 c 0,28,29
 357 502 357 502 341 520 c 128,-1,30
 325 538 325 538 303 538 c 0,20,21
305 382 m 2,31,-1
 280 394 l 1,32,33
 262 391 262 391 250 373 c 128,-1,34
 238 355 238 355 238 335 c 0,35,36
 237 312 237 312 256.5 293 c 128,-1,37
 276 274 276 274 301 274 c 0,38,39
 353 273 353 273 354 326 c 0,40,41
 354 360 354 360 305 382 c 2,31,-1
529 -200 m 0,42,43
 498 -272 498 -272 477 -302 c 0,44,45
 455 -337 455 -337 379 -423 c 0,46,47
 355 -452 355 -452 293 -489 c 128,-1,48
 231 -526 231 -526 173 -546 c 0,49,50
 104 -569 104 -569 12 -586 c 1,51,-1
 5 -571 l 1,52,53
 56 -554 56 -554 100 -534 c 0,54,55
 205 -487 205 -487 257 -432 c 0,56,57
 425 -257 425 -257 420 -7 c 0,58,59
 419 77 419 77 391 136 c 0,60,61
 351 221 351 221 268 221 c 0,62,63
 209 221 209 221 155 180 c 0,64,65
 96 136 96 136 101 82 c 0,66,67
 102 79 102 79 105 79 c 2,68,69
 105 79 105 79 132.5 86 c 128,-1,70
 160 93 160 93 186 92 c 0,71,72
 221 91 221 91 244 58 c 0,73,74
 265 29 265 29 265 -11 c 0,75,76
 265 -54 265 -54 240.5 -82 c 128,-1,77
 216 -110 216 -110 172 -110 c 0,78,79
 121 -110 121 -110 86 -77 c 0,80,81
 48 -43 48 -43 48 12 c 0,82,83
 45 152 45 152 159 215 c 0,84,85
 221 249 221 249 296 250 c 0,86,87
 373 252 373 252 446 201.5 c 128,-1,88
 519 151 519 151 547 73 c 0,89,90
 563 30 563 30 563 -28 c 0,91,92
 563 -124 563 -124 529 -200 c 0,42,43
603 123 m 0,93,94
 602 146 602 146 618 161 c 128,-1,95
 634 176 634 176 657 177 c 0,96,97
 680 177 680 177 696.5 162.5 c 128,-1,98
 713 148 713 148 713 125 c 0,99,100
 714 102 714 102 697.5 85.5 c 128,-1,101
 681 69 681 69 659 69 c 0,102,103
 636 68 636 68 619.5 84 c 128,-1,104
 603 100 603 100 603 123 c 0,93,94
603 -129 m 0,105,106
 603 -107 603 -107 619 -91.5 c 128,-1,107
 635 -76 635 -76 658 -75 c 0,108,109
 681 -75 681 -75 697 -90 c 128,-1,110
 713 -105 713 -105 714 -127 c 0,111,112
 714 -150 714 -150 698 -166.5 c 128,-1,113
 682 -183 682 -183 660 -183 c 0,114,115
 637 -184 637 -184 620.5 -168 c 128,-1,116
 604 -152 604 -152 603 -129 c 0,105,106
EndSplineSet
Validated: 33
EndChar

StartChar: Aacute
Encoding: 61671 61671 185
Width: 287
GlyphClass: 1
Flags: W
LayerCount: 3
Fore
SplineSet
23 -103 m 1,0,-1
 23 85 l 1,1,-1
 230 -103 l 1,2,-1
 23 -103 l 1,0,-1
286 -124 m 1,3,-1
 -1 135 l 1,4,-1
 -1 -124 l 1,5,-1
 286 -124 l 1,3,-1
EndSplineSet
Validated: 9
EndChar

StartChar: Edieresis
Encoding: 61672 61672 186
Width: 278
GlyphClass: 1
Flags: W
LayerCount: 3
Fore
SplineSet
169 249 m 0,0,1
 135 249 135 249 135 283 c 256,2,3
 135 317 135 317 169 317 c 0,4,5
 182 317 182 317 192.5 307 c 128,-1,6
 203 297 203 297 203 283 c 256,7,8
 203 269 203 269 193 259 c 128,-1,9
 183 249 183 249 169 249 c 0,0,1
140 -4 m 1,10,-1
 -2 310 l 1,11,-1
 96 310 l 1,12,-1
 170 130 l 1,13,-1
 251 310 l 1,14,-1
 276 310 l 1,15,-1
 140 -4 l 1,10,-1
EndSplineSet
Validated: 1
EndChar

StartChar: Egrave
Encoding: 61673 61673 187
Width: 196
GlyphClass: 1
Flags: W
LayerCount: 3
Fore
SplineSet
90 62 m 1,0,-1
 29 42 l 1,1,-1
 29 -62 l 1,2,-1
 90 -42 l 1,3,-1
 90 62 l 1,0,-1
29 106 m 1,4,-1
 119 131 l 1,5,-1
 119 -247 l 1,6,-1
 90 -247 l 1,7,-1
 90 -105 l 1,8,-1
 0 -129 l 1,9,-1
 0 253 l 1,10,-1
 29 253 l 1,11,-1
 29 106 l 1,4,-1
EndSplineSet
Validated: 1
EndChar

StartChar: Iacute
Encoding: 61674 61674 188
Width: 654
GlyphClass: 1
Flags: W
LayerCount: 3
Fore
SplineSet
386 385 m 0,0,1
 386 360 386 360 370 340 c 0,2,3
 352 317 352 317 325 317 c 0,4,5
 292 317 292 317 292 355 c 0,6,7
 292 370 292 370 311 385 c 0,8,9
 338 406 338 406 343 414 c 1,10,11
 344 427 344 427 324 427 c 0,12,13
 266 427 266 427 237 345 c 0,14,15
 227 318 227 318 210 258 c 1,16,17
 210 258 210 258 306 258 c 1,18,-1
 306 236 l 1,19,20
 205 237 205 237 205 236 c 0,21,22
 192 193 192 193 175 136 c 0,23,24
 162 95 162 95 127 3 c 0,25,26
 92 -81 92 -81 27 -146 c 0,27,28
 -21 -194 -21 -194 -86 -193 c 0,29,30
 -107 -193 -107 -193 -128.5 -170.5 c 128,-1,31
 -150 -148 -150 -148 -150 -122 c 0,32,33
 -150 -97 -150 -97 -135.5 -76.5 c 128,-1,34
 -121 -56 -121 -56 -96 -56 c 0,35,36
 -54 -56 -54 -56 -53 -103 c 1,37,38
 -58 -128 -58 -128 -77 -141.5 c 128,-1,39
 -96 -155 -96 -155 -96 -157 c 0,40,41
 -88 -165 -88 -165 -82 -165 c 0,42,43
 -24 -165 -24 -165 29 28 c 0,44,45
 47 89 47 89 88 236 c 1,46,-1
 2 236 l 1,47,-1
 2 258 l 1,48,-1
 97 258 l 1,49,50
 114 299 114 299 149 352 c 0,51,52
 215 451 215 451 325 450 c 0,53,54
 349 450 349 450 367.5 431 c 128,-1,55
 386 412 386 412 386 385 c 0,0,1
578 206 m 0,56,57
 578 234 578 234 557 234 c 0,58,59
 531 234 531 234 504 208.5 c 128,-1,60
 477 183 477 183 466 155 c 0,61,62
 437 84 437 84 437 59 c 0,63,64
 437 48 437 48 446 32 c 0,65,66
 457 12 457 12 472 12 c 0,67,68
 502 12 502 12 542 100 c 0,69,70
 577 178 577 178 578 206 c 0,56,57
257 129 m 1,71,72
 324 273 324 273 398 273 c 0,73,74
 421 272 421 272 433 265 c 0,75,76
 463 244 463 244 475 213 c 1,77,78
 487 229 487 229 509 245 c 0,79,80
 544 271 544 271 586 271 c 0,81,82
 647 271 647 271 660 183 c 0,83,84
 662 167 662 167 654 134.5 c 128,-1,85
 646 102 646 102 638 87 c 0,86,87
 573 -28 573 -28 488 -25 c 0,88,89
 467 -24 467 -24 440 -9 c 0,90,91
 434 -5 434 -5 412 17 c 1,92,-1
 345 -143 l 1,93,-1
 415 -150 l 1,94,-1
 415 -169 l 1,95,-1
 154 -169 l 1,96,-1
 154 -150 l 1,97,-1
 240 -144 l 1,98,-1
 388 205 l 2,99,100
 389 209 389 209 389 213 c 0,101,102
 389 239 389 239 369 239 c 0,103,104
 345 239 345 239 307 189 c 0,105,106
 293 165 293 165 269 127 c 1,107,108
 269 127 269 127 257 129 c 1,71,72
681 189 m 1024,109,-1
EndSplineSet
Validated: 33
EndChar

